<svg width="218" height="218" version="1.1" viewBox="0 0 163.5 163.50062" xmlns="http://www.w3.org/2000/svg">
 <g id="radarr-group-logo" transform="matrix(.21289 0 0 .21289 -.00030912 .056613)">
  <g id="radarr-group-details" transform="matrix(.74963 0 0 .74963 -.85254 -.00025565)" fill-rule="evenodd">
   <g id="radarr-group-shapes-l-r" transform="translate(-5.0026)">
    <path id="radarr-shape-right" d="m818.96 812.82c76.922-76.922 124.5-183.19 124.5-300.57s-47.578-223.65-124.5-300.57l-300.57 300.57z"/>
    <path id="radarr-shape-left" d="m217.82 211.68c-76.922 76.922-124.5 183.19-124.5 300.57s47.578 223.64 124.5 300.57l300.57-300.57z"/>
   </g>
   <g id="radarr-group-shapes-t-b">
    <path id="radarr-shape-bottom" d="m817.28 922.46c-85.035 62.871-190.22 100.05-304.09 100.05-113.7 0-218.74-37.059-303.7-99.758l196.29-201.4c32.191 16.406 68.637 25.656 107.24 25.656 38.875 0 75.562-9.3828 107.92-26.004z"/>
    <path id="radarr-shape-top" d="m817.28 102.05c-85.035-62.875-190.22-100.05-304.09-100.05-113.7 0-218.74 37.059-303.7 99.758l196.29 201.4c32.191-16.406 68.637-25.656 107.24-25.656 38.875 0 75.562 9.3828 107.92 26.004z"/>
   </g>
   <path id="radarr-yellow-circle" d="m648.51 512.26c0 74.625-60.492 135.12-135.12 135.12-74.621 0-135.12-60.492-135.12-135.12 0-74.621 60.496-135.12 135.12-135.12 74.625 0 135.12 60.496 135.12 135.12z"/>
  </g>
  <path id="radarr-outer-ring" d="m384-0.26592a384 384 0 0 0 -384 384 384 384 0 0 0 384 384 384 384 0 0 0 384 -384 384 384 0 0 0 -384 -384zm0 15a369 369 0 0 1 369 369 369 369 0 0 1 -369 369 369 369 0 0 1 -369 -369 369 369 0 0 1 369 -369z" stroke-width="1.0852"/>
 </g>
</svg>
