<?xml version="1.0" encoding="utf-8"?>
<svg width="1024" height="1024" version="1.1" viewBox="0 0 1024 1024" xmlns="http://www.w3.org/2000/svg">
  <defs>
    <clipPath id="a">
      <circle cx="512" cy="512" r="410" fill="#989898" stroke-width="3.5906"/>
    </clipPath>
    <clipPath id="b">
      <path d="m512 636l0-565 -330 565 330 0z" fill="#000"/>
      <path d="m512 388l0 565 330-565 -330 0z" fill="#000"/>
    </clipPath>
  </defs>
  <g id="lidarr-group-logo" transform="translate(5e-6 .26738)">
    <circle id="lidarr-black-circle" cx="512" cy="512" r="410" stroke-width="1.8"/>
    <path id="lidarr-honeycomb-a" d="m852.12 33.49l23.46 14.44 23.22-14.44 0-28.87 -23.22-14.44 -23.46 14.44 0 28.87zm-46.44-28.87l-23.22-14.44 -23.2 14.44 0 28.87 23.2 14.44 23.22-14.44 0-28.87 23.22-14.44 23.22 14.44m-46.44 28.87l23.22 14.44 23.22-14.44m-46.44 57.49l0 28.87 23.22 14.44 23.22-14.44 0-28.87 -23.22-14.18 -23.22 14.18 -23.22-14.18 -23.2 14.18m92.86 28.87l23.46 14.44 23.22-14.44 0-28.87 -23.22-14.18 -23.46 14.18m23.46-43.05l0 28.87m-46.68-28.87l0 28.87m69.9-72.18l23.22-14.44 23.22 14.44 23.22-14.44 23.22 14.44 23.2-14.44 23.22 14.44 0 28.87 23.22 14.44 0 28.87 -23.22 14.18 0 28.87 23.22 14.44 0 28.87 -23.22 14.44 0 28.87 23.22 14.44 0 28.87 -23.22 14.16 0 28.87 23.22 14.44 0 28.87 -23.22 14.44 0 28.87 23.22 14.44 0 28.87 -23.22 14.16 0 28.87 23.22 14.44 0 28.87 -23.22 14.45 0 28.87 23.22 14.44 0 28.87 -23.22 14.16 0 28.87 23.22 14.44 0 28.87 -23.22 14.44 0 28.87 23.22 14.44 0 28.87 -23.22 14.16 0 28.87 23.22 14.44 0 28.87 -23.22 14.44 0 28.87 23.22 14.44 0 28.87 -23.22 14.18 0 28.87 23.22 14.44 0 28.87 -23.22 14.44 -23.22-14.44 -23.2 14.44 -23.22-14.44 -23.22 14.44 -23.22-14.44 -23.22 14.44 -23.22-14.44 -23.46 14.44 -23.22-14.44 -23.22 14.44 -23.22-14.44 -23.2 14.44 -23.22-14.44 -23.22 14.44 -23.22-14.44 -23.22 14.44 -23.22-14.44 -23.46 14.44 -23.22-14.44 -23.22 14.44 -23.22-14.44 -23.2 14.44 -23.22-14.44 -23.22 14.44 -23.22-14.44 -23.22 14.44 -23.22-14.44 -23.2 14.44 -23.22-14.44 -23.22 14.44 -23.22-14.44 -23.46 14.44 -23.22-14.44 -23.22 14.44 -23.22-14.44 -23.22 14.44 -23.22-14.44 -23.22 14.44 -23.2-14.44 -23.22 14.44 -23.22-14.44 -23.46 14.44 -23.22-14.44 -23.22 14.44 -23.22-14.44 -23.22 14.44 -23.22-14.44 0-28.87 -23.22-14.44 0-28.87 23.22-14.18 0-28.87 -23.22-14.44 0-28.87 23.22-14.44 0-28.87 -23.22-14.44 0-28.87 23.22-14.16 0-28.87 -23.22-14.44 0-28.87 23.22-14.44 0-28.87 -23.22-14.44 0-28.87 23.22-14.16 0-28.87 -23.22-14.44 0-28.87 23.22-14.45 0-28.87 -23.22-14.44 0-28.87 23.22-14.16 0-28.87 -23.22-14.44 0-28.87 23.22-14.44 0-28.87 -23.22-14.44 0-28.87 23.22-14.16 0-28.87 -23.22-14.44 0-28.87 23.22-14.44 0-28.87 -23.22-14.44 0-28.87 23.22-14.18 0-28.87 -23.22-14.44 0-28.87 23.22-14.44 23.22 14.44 23.22-14.44 23.22 14.44 23.22-14.44 23.22 14.44 23.46-14.44 23.22 14.44 23.22-14.44 23.2 14.44 23.22-14.44 23.22 14.44 23.22-14.44 23.22 14.44 23.22-14.44 23.22 14.44 23.46-14.44 23.22 14.44 23.22-14.44 23.22 14.44 23.2-14.44 23.22 14.44 23.22-14.44 23.22 14.44 23.22-14.44 23.22 14.44 23.2-14.44 23.22 14.44 23.22-14.44 23.22 14.44 23.46-14.44 23.22 14.44 23.22-14.44 23.22 14.44 23.22-14.44 23.22 14.44m-46.44 0l0 28.87 23.22 14.44 23.22-14.44m-46.44 57.49l0 28.87 23.22 14.44 23.22-14.44 0-28.87 -23.22-14.18 -23.22 14.18 -23.22-14.18 -23.22 14.18m116.08-43.05l0 28.87m-46.42-28.87l0 28.87m23.22 100.79l0 28.87 23.2 14.44 23.22-14.44 0-28.87 -23.22-14.44 -23.2 14.44 -23.22-14.44 -23.22 14.44 0 28.87 23.22 14.44 23.22-14.44m46.42-86.61l-23.22 14.44 0 28.87m-23.2-43.31l23.2 14.44m-46.42 0l0 28.87m0 57.74l0 28.87 23.22 14.16 23.2-14.16 0-28.87m46.44-86.61l0 28.87 23.22 14.44 23.46-14.44 0-28.87m-46.68 28.87l-23.22 14.44m-23.22 72.18l23.22 14.16 23.22-14.16 0-28.87 -23.22-14.44m46.44-28.87l0 28.87 23.46 14.44 23.22-14.44 0-28.87 -23.22-14.44m0 57.74l0 28.87 23.22 14.16 23.22-14.16 0-28.87 -23.22-14.44m-69.9 14.44l23.22-14.44m-185.74-201.84l0 28.87 23.22 14.44 23.22-14.44m-139.56-28.87l0 28.87 23.22 14.44 23.22-14.44 0-28.87m0 28.87l23.46 14.44 23.22-14.44m-46.68 57.49l0 28.87 23.46 14.44 23.22-14.44 0-28.87 -23.22-14.18 -23.46 14.18 -23.22-14.18 -23.22 14.18 0 28.87 23.22 14.44 23.22-14.44m-23.22-71.92l0 28.87m93.12-28.87l0 28.87m-46.44-28.87l0 28.87m-116.32-72.18l0 28.87 23.2 14.44 23.22-14.44m-92.86-28.87l0 28.87 23.22 14.44 23.22-14.44m-23.22 43.31l-23.22 14.18 0 28.87 23.22 14.44 23.22-14.44 0-28.87 -23.22-14.18zm69.64 14.18l-23.22-14.18 -23.2 14.18m-23.22-43.05l0 28.87m46.42-28.87l0 28.87m23.22 43.05l-23.22 14.44 0 28.87 23.22 14.44 23.22-14.44 0-28.87m-92.86 0l0 28.87 23.22 14.44 23.2-14.44m-46.42 86.61l23.22 14.16 23.2-14.16 0-28.87 -23.2-14.44 -23.22 14.44 0 28.87 -23.22 14.16 0 28.87 23.22 14.44 23.22-14.44 0-28.87m23.2-43.03l23.22-14.44 0-28.87m-46.42-57.74l23.2 14.44m-23.2 72.18l0-28.87m116.32-43.31l0 28.87 23.22 14.44 23.22-14.44 0-28.87 -23.22-14.44m-93.12 86.61l23.22 14.44 23.22-14.44 0-28.87 -23.22-14.44m46.68 0l-23.46 14.44m23.46 72.18l23.22 14.16 23.22-14.16 0-28.87 -23.22-14.44 -23.22 14.44 0 28.87 -23.46 14.16 0 28.87 -23.22 14.44 0 28.87 23.22 14.44 23.46-14.44 0-28.87 -23.46-14.44m-69.66-43.03l23.22 14.16 23.22-14.16 0-28.87m23.22-14.44l23.46 14.44m23.22-14.44l0-28.87m0 86.34l0 28.87 23.22 14.44 23.22-14.44 0-28.87 -23.22-14.16m-69.9 100.77l0 28.87 23.46 14.44 23.22-14.44 0-28.87 -23.22-14.44m23.22 43.31l23.22 14.44 23.22-14.44 0-28.87 -23.22-14.44 -23.22 14.44m-23.22-43.31l23.22-14.44m23.22 14.44l0 28.87m-93.12-28.87l-23.22-14.44 -23.22 14.44 0 28.87 23.22 14.44 23.22-14.44m-23.22-43.31l0-28.87m-69.64 72.18l-23.22 14.44 0 28.87 23.22 14.44 23.22-14.44 0-28.87 -23.22-14.44zm23.22 43.31l23.2 14.44 23.22-14.44 0-28.87m-69.64-43.31l0 28.87m46.42 0l-23.2 14.44m0-57.74l23.2 14.44m0 115.48l-23.2 14.16 0 28.87 23.2 14.44 23.22-14.44 0-28.87 -23.22-14.16zm0-28.87l0 28.87m-46.42-28.87l0 28.87 23.22 14.16m0 28.87l-23.22 14.44 0 28.87 23.22 14.45 23.2-14.45 0-28.87m116.34-43.31l0 28.87 23.22 14.44 23.22-14.44 0-28.87 -23.22-14.16 -23.22 14.16zm23.22-43.03l0 28.87m-69.9-43.31l-23.22 14.44 0 28.87 23.22 14.16 23.46-14.16 0-28.87m-69.9 71.9l23.22 14.44 23.22-14.44 0-28.87m46.68 28.87l-23.22 14.44 0 28.87 23.22 14.45 23.22-14.45 0-28.87m-139.56 28.87l23.22 14.45 23.22-14.45 0-28.87m23.22-14.44l23.46 14.44m0-57.47l23.22 14.16m-93.12-57.47l23.22 14.44m0 28.87l-23.22 14.16m302.31-187.11l-23.46 14.16 0 28.87 23.46 14.44 23.22-14.44 0-28.87m-93.12 0l0 28.87 23.22 14.44 23.22-14.44m-46.44 86.61l23.22 14.44 23.22-14.44 0-28.87 -23.22-14.44 -23.22 14.44 0 28.87 -23.22 14.44 0 28.87m69.66-43.31l23.46 14.44 23.22-14.44 0-28.87 -23.22-14.44 -23.46 14.44m23.46-43.31l0 28.87m-46.68-28.87l0 28.87m-69.64-72.18l0 28.87 23.2 14.44 23.22-14.44m-92.86 0l23.22 14.44 23.22-14.44m-46.44 86.61l23.22 14.44 23.22-14.44 0-28.87 -23.22-14.44 -23.22 14.44m92.86 0l-23.22-14.44 -23.2 14.44m23.2-43.31l0 28.87m-46.42-28.87l0 28.87m23.22 100.77l0 28.87 23.2 14.44 23.22-14.44 0-28.87 -23.22-14.16 -23.2 14.16 -23.22-14.16 -23.22 14.16m23.22-43.03l0 28.87m23.22 43.03l-23.22 14.44 0 28.87 23.22 14.45 23.2-14.45 0-28.87m-69.64-14.44l23.22 14.44m139.53-86.34l0 28.87 23.22 14.16 23.22-14.16 0-28.87 -23.22-14.44m-23.22 43.31l-23.46 14.16 0 28.87 23.46 14.44 23.22-14.44 0-28.87m-69.9-43.03l0 28.87 23.22 14.16m-23.22-14.16l-23.22 14.16m46.44 28.87l-23.22 14.44 0 28.87 23.22 14.45 23.46-14.45 0-28.87m-69.9-14.44l23.22 14.44m-69.64-100.77l23.2 14.44m-69.64-216.26l-23.22-14.44m0 57.74l23.22-14.44m-23.22-72.18l23.22-14.44m116.08 129.92l23.22 14.16m-116.08-14.16l-23.22 14.16m-93.12 0l-23.22-14.16m418.39-201.84l-23.2-14.44 -23.22 14.44 0 28.87 23.22 14.18 23.2-14.18 0-28.87 23.22-14.44m0 57.49l-23.22-14.18m-23.2-72.18l0 28.87m-92.88 0l23.22 14.44 23.22-14.44 0-28.87m-46.44 115.23l23.22 14.44 23.22-14.44 0-28.87 -23.22-14.18 -23.22 14.18m46.44 0l23.22-14.18m-46.44-28.87l0 28.87m23.22-43.31l23.22 14.44m0 86.36l0 28.87 23.22 14.44 23.2-14.44 0-28.87 -23.2-14.44 -23.22 14.44 -23.22-14.44m-23.22 101.05l23.22-14.44 0-28.87 -23.22-14.44 -23.22 14.44m23.22-43.31l0 28.87m46.44 57.74l0 28.87 23.22 14.16 23.2-14.16 0-28.87 -23.2-14.44 -23.22 14.44 -23.22-14.44m46.44-28.87l0 28.87m-46.44-28.87l23.22-14.44m69.64 14.44l-23.22-14.44m0-28.87l23.22-14.44m-23.22 101.05l23.22-14.44m-46.42-115.48l0 28.87m0 144.08l0 28.87 23.2 14.44 23.22-14.44m-46.42 0l-23.22 14.44 0 28.87 23.22 14.44 23.2-14.44 0-28.87m23.22 43.31l-23.22-14.44m-116.08-43.31l23.22 14.44 23.22-14.44 0-28.87 -23.22-14.16m0 144.08l23.22-14.44 0-28.87 -23.22-14.44 -23.22 14.44m92.88 0l0 28.87 23.2 14.44 23.22-14.44m-92.86-28.87l23.22-14.44m-46.44-28.87l0 28.87m23.22-43.31l23.22 14.44m-46.44 115.48l23.22 14.16 23.22-14.16 0-28.87 -23.22-14.44m0 57.47l0 28.87 23.22 14.44 23.22-14.44 0-28.87 -23.22-14.16m-69.66 43.03l23.22 14.44 23.22-14.44m-23.22 14.44l0 28.87 23.22 14.45 23.22-14.45 0-28.87m23.22-43.31l23.2-14.16 0-28.87m23.22 43.03l-23.22-14.16m-23.2 43.03l23.2 14.44 23.22-14.44m-69.64 43.31l23.22 14.45 23.2-14.45 0-28.87m-46.42-86.34l23.22-14.44m46.42-115.48l-23.22-14.16m-69.64 14.16l23.22-14.16m46.42 317.04l-23.2-14.44 -23.22 14.44 0 28.87 23.22 14.16 23.2-14.16 0-28.87 23.22-14.44m0 57.47l-23.22-14.16m-23.2-72.18l0 28.87m-46.44-28.87l0 28.87 23.22 14.44m-69.66-14.44l-23.22 14.44 0 28.87 23.22 14.16 23.22-14.16 0-28.87 -23.22-14.44 0-28.87 -23.22-14.45m69.66 43.32l-23.22 14.44m46.44 28.87l-23.22 14.16 0 28.87 23.22 14.44 23.22-14.44 0-28.87m-116.1-14.16l-23.46 14.16 0 28.87 23.46 14.44 23.22-14.44 0-28.87m23.22-14.16l23.22 14.16m23.22 72.18l-23.22 14.44 0 28.87 23.22 14.44 23.22-14.44 0-28.87 -23.22-14.44zm0-28.87l0 28.87m-23.22-43.31l-23.22 14.44 0 28.87 23.22 14.44m-23.22-14.44l-23.22 14.44 0 28.87 23.22 14.44 23.22-14.44m-23.22 14.44l0 28.87 23.22 14.16 23.22-14.16 0-28.87m23.22-43.31l23.2-14.44 0-28.87 -23.2-14.44m46.42 57.74l-23.22-14.44m-46.42 86.61l23.22 14.16 23.2-14.16 0-28.87 -23.2-14.44m23.2 14.44l23.22-14.44m-139.3-86.61l23.22 14.44m92.86 0l23.22-14.44m-46.42 144.08l0 28.87 23.2 14.44 23.22-14.44m0 57.74l-23.22-14.44 -23.2 14.44 0 28.87 23.2 14.44 23.22-14.44m-23.22-43.31l0-28.87m-23.2-14.44l-23.22 14.44 0 28.87 23.22 14.44m-69.66-100.77l-23.22 14.16 0 28.87 23.22 14.44 23.22-14.44 0-28.87m-23.22 129.92l23.22-14.44 0-28.87 -23.22-14.44 -23.22 14.44 0 28.87 23.22 14.44 0 28.87 23.22 14.18 23.22-14.18m-23.22-43.31l23.22 14.44 23.22-14.44m-23.22-43.31l-23.22 14.44m0-57.74l23.22 14.44m-46.44 0l0 28.87m46.44 57.74l0 28.87 23.22 14.18 23.2-14.18 0-28.87m-116.08-14.44l-23.22 14.44 0 28.87 23.22 14.18 23.22-14.18m-23.22 14.18l0 28.87 23.22 14.44 23.22-14.44 0-28.87m-23.22 43.31l0 28.87m92.86 0l0-28.87 -23.2-14.44 -23.22 14.44 0 28.87m23.22-72.18l0 28.87m-23.22 14.44l-23.22-14.44m92.86-28.87l-23.22-14.18m0 57.49l23.22-14.44m0-201.84l-23.22-14.16m-162.76-245.12l0 28.87 23.46 14.44m-46.68-57.76l-23.22 14.45 0 28.87 23.22 14.44 23.22-14.44m0 57.47l-23.22-14.16 -23.22 14.16 0 28.87 23.22 14.44 23.22-14.44m-23.22-43.03l0-28.87m-69.64-43.31l0 28.87 23.2 14.44 23.22-14.44m-69.64-43.32l-23.22 14.45 0 28.87 23.22 14.44 23.22-14.44m-46.44 86.34l23.22 14.44 23.22-14.44 0-28.87 -23.22-14.16 -23.22 14.16 0 28.87 -23.22 14.44 0 28.87m69.66-72.18l23.2-14.16 0-28.87m-46.42 0l0 28.87m23.22 100.77l0 28.87 23.2 14.44 23.22-14.44 0-28.87 -23.22-14.44 -23.2 14.44zm46.42-57.74l-23.22 14.44 0 28.87m-46.42-28.87l0 28.87 23.22 14.44m-23.22-14.44l-23.22 14.44 0 28.87 23.22 14.44 23.22-14.44m-23.22 14.44l0 28.87 23.22 14.16 23.2-14.16 0-28.87m93.12-86.61l0 28.87 23.22 14.44m-23.22-14.44l-23.46 14.44 0 28.87 23.46 14.44 23.22-14.44m-93.12-28.87l23.22-14.44 0-28.87m23.22 72.18l-23.22 14.44 0 28.87 23.22 14.16 23.46-14.16 0-28.87m-69.9-14.44l23.22 14.44m23.22-43.31l-23.22-14.44m-69.64-43.31l23.2 14.44m0-57.47l23.22 14.16m-162.52-100.79l-23.46 14.45 0 28.87 23.46 14.44 23.22-14.44 0-28.87m-23.22 43.31l0 28.87 23.22 14.16 23.22-14.16 0-28.87 -23.22-14.44m-93.12-28.87l0 28.87 23.22 14.44 23.22-14.44m23.46 43.31l-23.46 14.16 0 28.87 23.46 14.44 23.22-14.44 0-28.87m-46.68 0l-23.22-14.16 -23.22 14.16 0 28.87 23.22 14.44 23.22-14.44m-23.22-43.03l0-28.87m-23.22-14.44l-23.22 14.44 0 28.87 23.22 14.16m-69.64-100.79l-23.22 14.45 0 28.87 23.22 14.44 23.22-14.44 0-28.87m0 86.34l-23.22-14.16 -23.22 14.16 0 28.87 23.22 14.44 23.22-14.44 0-28.87 23.2-14.16m0-28.87l-23.2-14.44m-23.22 14.44l0 28.87m46.42 86.34l-23.2 14.44 0 28.87 23.2 14.44 23.22-14.44 0-28.87 -23.22-14.44zm23.22-43.31l-23.22 14.44 0 28.87m-46.42-28.87l0 28.87 23.22 14.44m0 28.87l-23.22 14.44 0 28.87 23.22 14.16 23.2-14.16 0-28.87m162.77-43.31l-23.22-14.44 -23.22 14.44 0 28.87 23.22 14.44 23.22-14.44m-116.34-72.18l0 28.87 23.22 14.44 23.46-14.44 0-28.87m-46.68 115.48l23.22 14.16 23.46-14.16 0-28.87 -23.46-14.44 -23.22 14.44 0 28.87 -23.22 14.16 0 28.87 23.22 14.44 23.22-14.44m23.46-43.03l23.22 14.16 23.22-14.16 0-28.87m-46.44 0l23.22-14.44m-46.68-28.87l0 28.87m46.68-28.87l-23.22-14.44m23.22-43.31l23.22 14.44m-93.12 28.87l-23.22 14.44m0 28.87l23.22 14.44m-69.64-101.05l23.2 14.44m116.34 158.52l-23.22 14.44 0 28.87 23.22 14.44 23.22-14.44 0-28.87 -23.22-14.44 0-28.87m-46.68 0l0 28.87 23.46 14.44m0 28.87l-23.46 14.44 0 28.87 23.46 14.44 23.22-14.44 0-28.87m-46.68 0l-23.22-14.44 -23.22 14.44 0 28.87 23.22 14.44 23.22-14.44m23.46 14.44l0 28.87 23.22 14.18 23.22-14.18 0-28.87 -23.22-14.44m-69.9-43.31l0-28.87m-69.64-43.31l0 28.87 23.2 14.44 23.22-14.44m-69.64-43.03l-23.22 14.16 0 28.87 23.22 14.44 23.22-14.44m-23.22 43.31l-23.22 14.44 0 28.87 23.22 14.44 23.22-14.44 0-28.87 -23.22-14.44zm69.64 43.31l-23.22 14.44 0 28.87 23.22 14.18 23.22-14.18 0-28.87m-46.44-86.61l0 28.87 23.22 14.44m-69.64-43.31l0 28.87m23.22 14.44l23.2-14.44m0 57.74l-23.2-14.44m-23.22 14.44l0 28.87 23.22 14.18 23.2-14.18m0 86.36l0-28.87 -23.2-14.44 -23.22 14.44 0 28.87m92.86 0l0-28.87 -23.22-14.44 -23.22 14.44m-23.2-14.44l0-28.87m46.42 28.87l0-28.87m23.22 43.31l23.22-14.44 0-28.87 -23.22-14.18m46.68 0l-23.46 14.18m23.46 72.18l0-28.87 -23.46-14.44m116.34 43.31l0-28.87 -23.22-14.44 -23.22 14.44 0 28.87m-23.22-72.18l0 28.87 23.22 14.44m-46.44 0l23.22-14.44m185.74-201.84l0 28.87 23.46 14.44 23.22-14.44m-69.9-43.03l-23.22 14.16 0 28.87 23.22 14.44 23.22-14.44m-23.22 101.05l23.22-14.44 0-28.87 -23.22-14.44 -23.22 14.44 0 28.87 23.22 14.44 0 28.87 23.22 14.18 23.46-14.18m23.22-72.18l-23.22-14.44 -23.46 14.44m0 28.87l23.46 14.44m0-57.74l0-28.87m-46.68 0l0 28.87m-69.64-72.18l0 28.87 23.2 14.44 23.22-14.44m-69.64-43.03l-23.22 14.16 0 28.87 23.22 14.44 23.22-14.44m-46.44 57.74l0 28.87 23.22 14.44 23.22-14.44 0-28.87 -23.22-14.44 -23.22 14.44 -23.22-14.44m116.08 14.44l-23.22-14.44 -23.2 14.44m0 28.87l23.2 14.44 23.22-14.44m-23.22-72.18l0 28.87m-46.42-28.87l0 28.87m0 57.74l0 28.87 23.22 14.18 23.2-14.18 0-28.87m-46.42 28.87l-23.22 14.18 0 28.87m69.64 43.31l0-28.87 -23.2-14.44 -23.22 14.44m23.22-14.44l0-28.87m23.2-14.18l23.22 14.18 23.22-14.18m-23.22 14.18l0 28.87 23.22 14.44 23.22-14.44 0-28.87m-23.22 43.31l0 28.87m46.68 0l0-28.87 -23.46-14.44m-69.66 14.44l23.22-14.44m-92.86-374.79l-23.22-14.16m0-28.87l23.22-14.44m-23.22 360.34l23.22-14.44m-23.22-72.18l23.22-14.44m0-28.87l-23.22-14.16m116.08 14.16l-23.22-14.16m-209.2 14.16l-23.22-14.16m162.77 187.13l-23.22-14.18m185.97 57.49l23.22-14.44m0-201.84l-23.22-14.16m46.44-259.58l-23.22 14.45m-185.97 0l-23.22-14.45m116.08 14.45l-23.22-14.45m255.64 14.45l-23.22-14.45m-395.17 14.45l-23.22-14.45m-580.91-504.44l0 28.87 23.22 14.44 23.22-14.44 0-28.87m0 28.87l23.46 14.44 23.22-14.44 0-28.87m-139.56 0l0 28.87 23.22 14.44 23.22-14.44m-23.22 43.31l-23.22 14.18 0 28.87 23.22 14.44 23.22-14.44 0-28.87 -23.22-14.18zm23.22 43.05l23.22 14.44 23.22-14.44 0-28.87 -23.22-14.18 -23.22 14.18m46.44 28.87l23.46 14.44 23.22-14.44 0-28.87 -23.22-14.18 -23.46 14.18m-69.66-43.05l0 28.87m46.44-28.87l0 28.87m46.68-28.87l0 28.87m-139.56-28.87l23.22-14.44m0 57.49l-23.22-14.18m0 144.1l23.22-14.44 0-28.87 -23.22-14.44m0-28.87l23.22-14.44m69.66 43.31l-23.22 14.44 0 28.87 23.22 14.44 23.22-14.44 0-28.87 -23.22-14.44 0-28.87m23.22 72.18l23.46 14.44 23.22-14.44 0-28.87 -23.22-14.44 -23.46 14.44m23.46-43.31l0 28.87m-93.12-28.87l0 28.87 23.22 14.44m0 28.87l-23.22 14.44 0 28.87 23.22 14.16 23.22-14.16 0-28.87m46.68 0l0 28.87 23.22 14.16 23.22-14.16 0-28.87 -23.22-14.44m-116.34-43.31l-23.22 14.44m0 28.87l23.22 14.44m69.66 71.9l-23.22 14.44 0 28.87 23.22 14.44 23.46-14.44 0-28.87 -23.46-14.44zm23.46-43.03l-23.46 14.16 0 28.87m-69.66-43.03l-23.22 14.16 0 28.87 23.22 14.44 23.22-14.44 0-28.87m0 86.61l-23.22-14.44 -23.22 14.44 0 28.87 23.22 14.44 23.22-14.44 0-28.87 23.22-14.44m23.22 14.44l0 28.87 23.46 14.44 23.22-14.44 0-28.87 -23.22-14.44m-93.12-28.87l0 28.87m46.44-28.87l-23.22-14.44m-69.66 14.44l23.22-14.44m0 57.74l-23.22-14.44m0 144.08l23.22-14.44 0-28.87 -23.22-14.16m116.1 14.16l0 28.87 23.46 14.44 23.22-14.44 0-28.87 -23.22-14.16 -23.46 14.16zm23.46-43.03l0 28.87m-23.46-43.31l-23.22 14.44 0 28.87 23.22 14.16m-69.66-43.03l0 28.87 23.22 14.16 23.22-14.16m-46.44 57.47l0 28.87 23.22 14.45 23.22-14.45 0-28.87 -23.22-14.44 -23.22 14.44zm93.12 0l0 28.87 23.22 14.45 23.22-14.45 0-28.87 -23.22-14.44m-69.9 14.44l23.22-14.44m-46.44-28.87l0 28.87m0-86.34l23.22 14.44m-46.44 28.87l-23.22 14.16m0 28.87l23.22 14.44m-46.44-86.34l23.22-14.44m92.88-115.48l-23.22-14.16m-69.66 14.16l-23.22-14.16m488.05-245.15l0 28.87 23.22 14.44 23.22-14.44m-92.86-28.87l0 28.87 23.2 14.44 23.22-14.44m-23.22 43.31l-23.2 14.18 0 28.87 23.2 14.44 23.22-14.44 0-28.87 -23.22-14.18 0-28.87m69.66 43.05l-23.22-14.18 -23.22 14.18m23.22-14.18l0-28.87m-116.08-43.31l0 28.87 23.22 14.44 23.22-14.44m-93.12-28.87l0 28.87 23.46 14.44 23.22-14.44m-46.68 57.49l0 28.87 23.46 14.44 23.22-14.44 0-28.87 -23.22-14.18 -23.46 14.18 -23.22-14.18 -23.22 14.18m139.56 0l-23.22-14.18 -23.22 14.18m-23.22-43.05l0 28.87m46.44-28.87l0 28.87m23.22 43.05l-23.22 14.44 0 28.87 23.22 14.44 23.2-14.44 0-28.87m-69.64-14.44l23.22 14.44m0 28.87l-23.22 14.44 0 28.87 23.22 14.44 23.22-14.44 0-28.87m-93.12-57.74l-23.22 14.44 0 28.87 23.22 14.44 23.46-14.44 0-28.87m23.22 72.18l-23.22 14.44 0 28.87 23.22 14.16 23.22-14.16 0-28.87m-69.9-43.31l0 28.87 23.46 14.44m23.22-43.31l-23.22-14.44m116.08-43.31l23.22 14.44 23.22-14.44m-23.22 43.31l-23.22 14.44 0 28.87 23.22 14.44 23.22-14.44 0-28.87 -23.22-14.44 0-28.87m-46.44 28.87l23.22 14.44m0 28.87l-23.22 14.44 0 28.87 23.22 14.16 23.22-14.16 0-28.87m-46.44 0l-23.2-14.44m-139.56-201.84l0 28.87 23.22 14.44 23.22-14.44m-92.88-28.87l0 28.87 23.22 14.44 23.22-14.44m-46.44 57.49l0 28.87 23.22 14.44 23.22-14.44 0-28.87 -23.22-14.18 -23.22 14.18 -23.22-14.18 -23.22 14.18m116.1-43.05l0 28.87m-46.44-28.87l0 28.87m-69.66-72.18l0 28.87 23.22 14.44 23.22-14.44m-92.86 0l23.22 14.44 23.2-14.44m-46.42 86.36l23.22 14.44 23.2-14.44 0-28.87 -23.2-14.18 -23.22 14.18m69.64-43.05l0 28.87m-46.42-28.87l0 28.87m23.2 43.05l23.22 14.44 23.22-14.44m-23.22 14.44l0 28.87 23.22 14.44 23.22-14.44 0-28.87m-46.44 28.87l-23.22 14.44 0 28.87 23.22 14.44 23.22-14.44 0-28.87m-92.86 0l23.22-14.44 0-28.87m46.42 86.61l0 28.87 23.22 14.16 23.22-14.16 0-28.87 -23.22-14.44m-46.44-28.87l-23.2-14.44m0 57.74l23.2-14.44m92.88-86.61l23.22 14.44m0 28.87l-23.22 14.44 0 28.87 23.22 14.44 23.22-14.44m-69.66 43.31l23.22 14.16 23.22-14.16 0-28.87m-46.44-57.74l23.22 14.44m-23.22 43.31l23.22-14.44m0 57.47l0 28.87 23.22 14.44 23.22-14.44 0-28.87 -23.22-14.16m-69.66 14.16l0 28.87 23.22 14.44 23.22-14.44m-46.44 86.61l23.22 14.44 23.22-14.44 0-28.87 -23.22-14.44 -23.22 14.44 0 28.87 -23.22 14.44 0 28.87m69.66-43.31l23.22 14.44 23.22-14.44 0-28.87 -23.22-14.44 -23.22 14.44m23.22-43.31l0 28.87m-46.44-28.87l0 28.87m-46.44-86.34l-23.22 14.16 0 28.87 23.22 14.44 23.22-14.44m-92.86-28.87l0 28.87 23.22 14.44 23.2-14.44m-46.42 86.61l23.22 14.44 23.2-14.44 0-28.87 -23.2-14.44 -23.22 14.44m92.86 0l-23.22-14.44 -23.22 14.44m-23.2-43.31l0 28.87m46.42-28.87l0 28.87m-23.22 100.77l0 28.87 23.22 14.44 23.22-14.44 0-28.87 -23.22-14.16 -23.22 14.16 -23.2-14.16 -23.22 14.16m23.22-43.03l0 28.87m46.42 57.47l0 28.87 23.22 14.45 23.22-14.45 0-28.87 -23.22-14.44m-69.64 14.44l23.2-14.44m116.1-71.9l0 28.87 23.22 14.16 23.46-14.16 0-28.87 -23.46-14.44m-23.22 43.31l-23.22 14.16 0 28.87 23.22 14.44 23.22-14.44 0-28.87m-46.44 0l-23.22-14.16 -23.22 14.16m23.22-43.03l0 28.87m46.44 57.47l0 28.87 23.22 14.45 23.46-14.45 0-28.87 -23.46-14.44m-69.66 14.44l23.22-14.44m-92.88-86.34l23.22 14.44m255.64-129.92l0 28.87 23.22 14.44 23.22-14.44m-46.44 0l-23.22 14.44 0 28.87 23.22 14.44 23.22-14.44 0-28.87m-46.44 28.87l-23.2 14.44 0 28.87 23.2 14.44 23.22-14.44 0-28.87m46.44 0l-23.22-14.44m-116.08-72.18l0 28.87 23.22 14.44 23.22-14.44 0-28.87 -23.22-14.16m-69.9 43.03l23.46 14.44 23.22-14.44m-23.22 101.05l23.22-14.44 0-28.87 -23.22-14.44 -23.46 14.44m93.12 0l-23.22-14.44 -23.22 14.44m-23.22-43.31l0 28.87m46.44-28.87l0 28.87m23.22 43.31l-23.22 14.44 0 28.87 23.22 14.16 23.2-14.16 0-28.87m-46.42 28.87l-23.22 14.16 0 28.87 23.22 14.44 23.22-14.44 0-28.87m-23.22 43.31l0 28.87 23.22 14.45 23.2-14.45 0-28.87 -23.2-14.44m-46.44-28.87l-23.22-14.16m0 57.47l23.22-14.44m116.08-43.03l-23.22 14.16 0 28.87 23.22 14.44 23.22-14.44 0-28.87 -23.22-14.16 0-28.87 -23.22-14.44m0 57.47l-23.22-14.16m0 57.47l23.22-14.44m-23.22 43.31l23.22 14.45 23.22-14.45 0-28.87m0-86.34l23.22-14.44m-139.3 0l23.22 14.44m46.42-86.61l-23.2-14.44m-232.44-28.87l-23.2-14.16m348.5 14.16l-23.22-14.16m-139.3 0l-23.46 14.16m116.32-14.16l-23.2 14.16m-302.07 43.31l23.22-14.44m325.27 230.7l0 28.87 23.22 14.44 23.22-14.44m-46.44 0l-23.22 14.44 0 28.87 23.22 14.16 23.22-14.16 0-28.87m-46.44 28.87l-23.2 14.16 0 28.87 23.2 14.44 23.22-14.44 0-28.87m46.44 0l-23.22-14.16m-69.64-72.18l0 28.87 23.2 14.44m-23.2-14.44l-23.22 14.44 0 28.87 23.22 14.16m-23.22-43.03l-23.22-14.44 -23.22 14.44 0 28.87 23.22 14.16 23.22-14.16m-23.22-43.31l0-28.87 -23.22-14.45m-23.46 14.45l0 28.87 23.46 14.44m0 28.87l-23.46 14.16 0 28.87 23.46 14.44 23.22-14.44 0-28.87m0 86.61l0 28.87 23.22 14.44 23.22-14.44 0-28.87 -23.22-14.44 -23.22 14.44 -23.22-14.44 -23.46 14.44 0 28.87 23.46 14.44 23.22-14.44m46.44-86.61l-23.22 14.44 0 28.87m-46.44-28.87l0 28.87m-23.46 43.31l-23.22 14.44 0 28.87 23.22 14.16 23.46-14.16 0-28.87m46.44 0l0 28.87 23.22 14.16 23.2-14.16 0-28.87 -23.2-14.44m69.64-43.31l-23.22 14.44 0 28.87 23.22 14.44 23.22-14.44 0-28.87 -23.22-14.44 0-28.87 -23.22-14.44m-23.22 14.44l0 28.87 23.22 14.44m-23.22 43.31l23.22-14.44m-23.22 43.31l23.22 14.16 23.22-14.16 0-28.87m-116.08-101.05l23.22 14.44m46.42 28.87l-23.2 14.44m69.64-43.31l23.22-14.44m-209.2-129.66l-23.22 14.45 0 28.87 23.22 14.44 23.22-14.44m-92.88-28.87l0 28.87 23.22 14.44 23.22-14.44m-46.44 0l-23.22 14.44 0 28.87 23.22 14.16 23.22-14.16 0-28.87m-46.44 28.87l-23.22 14.16 0 28.87 23.22 14.44 23.22-14.44 0-28.87m92.88 0l-23.22-14.16 -23.22 14.16 0 28.87 23.22 14.44 23.22-14.44m-23.22-71.9l0 28.87m-46.44 0l23.22 14.16m-69.66-100.79l-23.22 14.45 0 28.87 23.22 14.44m-69.64-14.44l-23.22 14.44 0 28.87 23.22 14.16 23.22-14.16 0-28.87 -23.22-14.44 0-28.87m0 86.34l0 28.87 23.22 14.44 23.2-14.44m0-28.87l-23.2-14.16m0-28.87l23.2-14.44m0 144.08l0 28.87 23.22 14.44 23.22-14.44 0-28.87 -23.22-14.44 -23.22 14.44zm23.22-43.31l0 28.87m-46.42-28.87l0 28.87 23.2 14.44m-23.2-14.44l-23.22 14.44 0 28.87 23.22 14.44 23.2-14.44m-46.42 0l-23.22 14.44 0 28.87 23.22 14.16 23.22-14.16 0-28.87m46.42 0l0 28.87 23.22 14.16 23.22-14.16 0-28.87 -23.22-14.44m69.66-72.18l0 28.87 23.22 14.44m-23.22-14.44l-23.22 14.44 0 28.87 23.22 14.44m-23.22-43.31l-23.22-14.44 -23.22 14.44m46.44-57.74l-23.22 14.44 0 28.87m0 57.74l23.22-14.44m-46.44-86.61l23.22 14.44m-23.22 129.64l0 28.87 23.22 14.44 23.22-14.44 0-28.87 -23.22-14.16m23.22 43.03l23.22 14.44 23.22-14.44 0-28.87m-92.88 115.48l23.22 14.44 23.22-14.44 0-28.87 -23.22-14.44 -23.22 14.44 0 28.87zm46.44 0l23.22 14.44 23.22-14.44 0-28.87 -23.22-14.44 -23.22 14.44m23.22-43.31l0 28.87m-46.44-28.87l0 28.87m-116.08-72.18l0 28.87 23.22 14.44 23.2-14.44 0-28.87 -23.2-14.16m23.2 43.03l23.22 14.44 23.22-14.44m-92.86 0l-23.22 14.44 0 28.87 23.22 14.44 23.22-14.44 0-28.87m-46.44 28.87l-23.46 14.44 0 28.87 23.46 14.44 23.22-14.44 0-28.87m-23.22 43.31l0 28.87 23.22 14.18 23.22-14.18 0-28.87 -23.22-14.44m92.86-28.87l-23.22-14.44 -23.22 14.44 0 28.87 23.22 14.44 23.22-14.44m-23.22-72.18l0 28.87m-46.42 57.74l23.2-14.44m0-28.87l-23.2-14.44m23.2 100.79l0 28.87 23.22 14.44 23.22-14.44 0-28.87 -23.22-14.18 -23.22 14.18 -23.2-14.18m-23.22 14.18l0 28.87 23.22 14.44 23.2-14.44m-23.2 14.44l0 28.87m46.42-28.87l0 28.87m46.44-115.23l0 28.87 23.22 14.18 23.22-14.18 0-28.87m-69.66 43.05l23.22-14.18m-23.22 43.05l23.22 14.44 23.22-14.44 0-28.87m-23.22 43.31l0 28.87m46.44 0l0-28.87 -23.22-14.44m-69.66-71.92l0 28.87m255.64-158.79l0 28.87 23.22 14.44 23.22-14.44m-92.86-28.87l0 28.87 23.2 14.44 23.22-14.44m-23.22 43.31l-23.2 14.44 0 28.87 23.2 14.44 23.22-14.44 0-28.87 -23.22-14.44 0-28.87m69.66 43.31l-23.22-14.44 -23.22 14.44m0 28.87l23.22 14.44 23.22-14.44m-23.22-43.31l0-28.87m-92.86-57.47l-23.22 14.16 0 28.87 23.22 14.44 23.22-14.44m-93.12 0l23.46 14.44 23.22-14.44m-46.68 86.61l23.46 14.44 23.22-14.44 0-28.87 -23.22-14.44 -23.46 14.44m93.12 28.87l-23.22 14.44 0 28.87 23.22 14.18 23.2-14.18 0-28.87m-23.2-43.31l-23.22-14.44 -23.22 14.44m23.22 43.31l-23.22-14.44m-23.22-43.31l0-28.87m46.44 0l0 28.87m-46.44 57.74l0 28.87 23.22 14.18 23.22-14.18m-93.12 0l23.22 14.18 23.46-14.18m-23.46 14.18l0 28.87 23.46 14.44 23.22-14.44 0-28.87m-23.22 43.31l0 28.87m92.86 0l0-28.87 -23.2-14.44 -23.22 14.44 0 28.87m0-28.87l-23.22-14.44m46.44-28.87l0 28.87m69.64-43.05l-23.22 14.18 0 28.87 23.22 14.44 23.22-14.44 0-28.87 -23.22-14.18 0-28.87m-46.44 28.87l23.22 14.18m0 28.87l-23.22 14.44m46.44 28.87l0-28.87m-185.97 0l23.22-14.44m-116.1-216l-23.22 14.16m116.1-14.16l-23.22 14.16m93.12 0l-23.22-14.16m162.52 14.16l-23.22-14.16m-441.61-245.12l0 28.87 23.22 14.44 23.22-14.44 0-28.87 -23.22-14.45m23.22 43.32l23.46 14.44m-93.12-57.76l-23.22 14.45 0 28.87 23.22 14.44 23.22-14.44m0 57.47l-23.22-14.16 -23.22 14.16 0 28.87 23.22 14.44 23.22-14.44 0-28.87zm0 28.87l23.22 14.44 23.22-14.44 0-28.87 -23.22-14.16 -23.22 14.16m69.9-14.16l-23.46 14.16m-69.66-43.03l0 28.87m46.44 0l0-28.87m-92.88 0l23.22-14.44m0 57.47l-23.22-14.16m0 144.08l23.22-14.44 0-28.87 -23.22-14.44m92.88-28.87l0 28.87 23.22 14.44 23.46-14.44 0-28.87 -23.46-14.44m-69.66 14.44l0 28.87 23.22 14.44 23.22-14.44m-46.44 86.61l23.22 14.16 23.22-14.16 0-28.87 -23.22-14.44 -23.22 14.44 0 28.87 -23.22 14.16m69.66-43.03l23.22-14.44 0-28.87m0 28.87l23.46 14.44m-69.9-43.31l0 28.87m-69.66-72.18l23.22-14.44m23.22 43.31l-23.22 14.44m0 28.87l23.22 14.44m23.22 43.03l0 28.87 23.22 14.44 23.22-14.44 0-28.87 -23.22-14.16m23.22 43.03l23.46 14.44m-69.9-14.44l-23.22 14.44 0 28.87 23.22 14.44 23.22-14.44 0-28.87m-46.44 28.87l-23.22 14.44 0 28.87 23.22 14.44 23.22-14.44 0-28.87m0 28.87l23.22 14.44 23.22-14.44m0-28.87l-23.22-14.44m-92.88-28.87l23.22-14.44 0-28.87 -23.22-14.16m0 144.08l23.22-14.44m0-28.87l-23.22-14.44m0 144.1l23.22-14.44 0-28.87 -23.22-14.18m139.56 0l-23.46 14.18 0 28.87 23.46 14.44 23.22-14.44m-46.68-28.87l-23.22-14.18 -23.22 14.18 0 28.87 23.22 14.44 23.22-14.44m-69.66-71.92l0 28.87 23.22 14.18m0 28.87l-23.22 14.44 0 28.87m93.12 0l0-28.87m-46.68 28.87l0-28.87m0-57.49l0-28.87m-69.66-101.05l23.22 14.44m0 115.48l-23.22 14.18m0 28.87l23.22 14.44m93.12-230.44l-23.46 14.16m46.68-86.34l-23.22-14.44m0-28.87l23.22-14.44m46.42-115.21l-23.2-14.45m-162.77 14.45l-23.22-14.45m139.56 0l-23.46 14.45m302.31-14.45l-23.22 14.45m-116.34-14.45l23.22 14.45m232.41 0l-23.22-14.45m23.22-302.6l23.22 14.44m0-57.74l-23.22 14.44m0 547.75l23.22 14.44m0-57.74l-23.22 14.44m23.22 245.12l-23.22 14.18m0 28.87l23.22 14.44m-23.22-533.33l23.22 14.44m0-57.47l-23.22 14.16" clip-path="url(#a)" fill="none" stroke="#989898" stroke-linecap="square" stroke-miterlimit="1" stroke-width="2.0228"/>
    <ellipse cx="512" cy="512" rx="460" ry="460" style="fill:none;stroke-width:99;stroke:#e5e5e5"/>
    <ellipse cx="512" cy="512" rx="270" ry="270" style="fill:#e5e5e5;stroke-width:76;stroke:#e5e5e5"/>
    <ellipse ry="410" rx="410" cy="512" cx="512" style="fill-opacity:null;fill:none;stroke-width:12;stroke:#009252"/>
    <path d="m512 636l0-565 -330 565 330 0z" fill="#000"/>
    <path d="m512 388l0 565 330-565 -330 0z" fill="#000"/>
    <path id="lidarr-honeycomb-b" d="m852.12 33.49l23.46 14.44 23.22-14.44 0-28.87 -23.22-14.44 -23.46 14.44 0 28.87zm-46.44-28.87l-23.22-14.44 -23.2 14.44 0 28.87 23.2 14.44 23.22-14.44 0-28.87 23.22-14.44 23.22 14.44m-46.44 28.87l23.22 14.44 23.22-14.44m-46.44 57.49l0 28.87 23.22 14.44 23.22-14.44 0-28.87 -23.22-14.18 -23.22 14.18 -23.22-14.18 -23.2 14.18m92.86 28.87l23.46 14.44 23.22-14.44 0-28.87 -23.22-14.18 -23.46 14.18m23.46-43.05l0 28.87m-46.68-28.87l0 28.87m69.9-72.18l23.22-14.44 23.22 14.44 23.22-14.44 23.22 14.44 23.2-14.44 23.22 14.44 0 28.87 23.22 14.44 0 28.87 -23.22 14.18 0 28.87 23.22 14.44 0 28.87 -23.22 14.44 0 28.87 23.22 14.44 0 28.87 -23.22 14.16 0 28.87 23.22 14.44 0 28.87 -23.22 14.44 0 28.87 23.22 14.44 0 28.87 -23.22 14.16 0 28.87 23.22 14.44 0 28.87 -23.22 14.45 0 28.87 23.22 14.44 0 28.87 -23.22 14.16 0 28.87 23.22 14.44 0 28.87 -23.22 14.44 0 28.87 23.22 14.44 0 28.87 -23.22 14.16 0 28.87 23.22 14.44 0 28.87 -23.22 14.44 0 28.87 23.22 14.44 0 28.87 -23.22 14.18 0 28.87 23.22 14.44 0 28.87 -23.22 14.44 -23.22-14.44 -23.2 14.44 -23.22-14.44 -23.22 14.44 -23.22-14.44 -23.22 14.44 -23.22-14.44 -23.46 14.44 -23.22-14.44 -23.22 14.44 -23.22-14.44 -23.2 14.44 -23.22-14.44 -23.22 14.44 -23.22-14.44 -23.22 14.44 -23.22-14.44 -23.46 14.44 -23.22-14.44 -23.22 14.44 -23.22-14.44 -23.2 14.44 -23.22-14.44 -23.22 14.44 -23.22-14.44 -23.22 14.44 -23.22-14.44 -23.2 14.44 -23.22-14.44 -23.22 14.44 -23.22-14.44 -23.46 14.44 -23.22-14.44 -23.22 14.44 -23.22-14.44 -23.22 14.44 -23.22-14.44 -23.22 14.44 -23.2-14.44 -23.22 14.44 -23.22-14.44 -23.46 14.44 -23.22-14.44 -23.22 14.44 -23.22-14.44 -23.22 14.44 -23.22-14.44 0-28.87 -23.22-14.44 0-28.87 23.22-14.18 0-28.87 -23.22-14.44 0-28.87 23.22-14.44 0-28.87 -23.22-14.44 0-28.87 23.22-14.16 0-28.87 -23.22-14.44 0-28.87 23.22-14.44 0-28.87 -23.22-14.44 0-28.87 23.22-14.16 0-28.87 -23.22-14.44 0-28.87 23.22-14.45 0-28.87 -23.22-14.44 0-28.87 23.22-14.16 0-28.87 -23.22-14.44 0-28.87 23.22-14.44 0-28.87 -23.22-14.44 0-28.87 23.22-14.16 0-28.87 -23.22-14.44 0-28.87 23.22-14.44 0-28.87 -23.22-14.44 0-28.87 23.22-14.18 0-28.87 -23.22-14.44 0-28.87 23.22-14.44 23.22 14.44 23.22-14.44 23.22 14.44 23.22-14.44 23.22 14.44 23.46-14.44 23.22 14.44 23.22-14.44 23.2 14.44 23.22-14.44 23.22 14.44 23.22-14.44 23.22 14.44 23.22-14.44 23.22 14.44 23.46-14.44 23.22 14.44 23.22-14.44 23.22 14.44 23.2-14.44 23.22 14.44 23.22-14.44 23.22 14.44 23.22-14.44 23.22 14.44 23.2-14.44 23.22 14.44 23.22-14.44 23.22 14.44 23.46-14.44 23.22 14.44 23.22-14.44 23.22 14.44 23.22-14.44 23.22 14.44m-46.44 0l0 28.87 23.22 14.44 23.22-14.44m-46.44 57.49l0 28.87 23.22 14.44 23.22-14.44 0-28.87 -23.22-14.18 -23.22 14.18 -23.22-14.18 -23.22 14.18m116.08-43.05l0 28.87m-46.42-28.87l0 28.87m23.22 100.79l0 28.87 23.2 14.44 23.22-14.44 0-28.87 -23.22-14.44 -23.2 14.44 -23.22-14.44 -23.22 14.44 0 28.87 23.22 14.44 23.22-14.44m46.42-86.61l-23.22 14.44 0 28.87m-23.2-43.31l23.2 14.44m-46.42 0l0 28.87m0 57.74l0 28.87 23.22 14.16 23.2-14.16 0-28.87m46.44-86.61l0 28.87 23.22 14.44 23.46-14.44 0-28.87m-46.68 28.87l-23.22 14.44m-23.22 72.18l23.22 14.16 23.22-14.16 0-28.87 -23.22-14.44m46.44-28.87l0 28.87 23.46 14.44 23.22-14.44 0-28.87 -23.22-14.44m0 57.74l0 28.87 23.22 14.16 23.22-14.16 0-28.87 -23.22-14.44m-69.9 14.44l23.22-14.44m-185.74-201.84l0 28.87 23.22 14.44 23.22-14.44m-139.56-28.87l0 28.87 23.22 14.44 23.22-14.44 0-28.87m0 28.87l23.46 14.44 23.22-14.44m-46.68 57.49l0 28.87 23.46 14.44 23.22-14.44 0-28.87 -23.22-14.18 -23.46 14.18 -23.22-14.18 -23.22 14.18 0 28.87 23.22 14.44 23.22-14.44m-23.22-71.92l0 28.87m93.12-28.87l0 28.87m-46.44-28.87l0 28.87m-116.32-72.18l0 28.87 23.2 14.44 23.22-14.44m-92.86-28.87l0 28.87 23.22 14.44 23.22-14.44m-23.22 43.31l-23.22 14.18 0 28.87 23.22 14.44 23.22-14.44 0-28.87 -23.22-14.18zm69.64 14.18l-23.22-14.18 -23.2 14.18m-23.22-43.05l0 28.87m46.42-28.87l0 28.87m23.22 43.05l-23.22 14.44 0 28.87 23.22 14.44 23.22-14.44 0-28.87m-92.86 0l0 28.87 23.22 14.44 23.2-14.44m-46.42 86.61l23.22 14.16 23.2-14.16 0-28.87 -23.2-14.44 -23.22 14.44 0 28.87 -23.22 14.16 0 28.87 23.22 14.44 23.22-14.44 0-28.87m23.2-43.03l23.22-14.44 0-28.87m-46.42-57.74l23.2 14.44m-23.2 72.18l0-28.87m116.32-43.31l0 28.87 23.22 14.44 23.22-14.44 0-28.87 -23.22-14.44m-93.12 86.61l23.22 14.44 23.22-14.44 0-28.87 -23.22-14.44m46.68 0l-23.46 14.44m23.46 72.18l23.22 14.16 23.22-14.16 0-28.87 -23.22-14.44 -23.22 14.44 0 28.87 -23.46 14.16 0 28.87 -23.22 14.44 0 28.87 23.22 14.44 23.46-14.44 0-28.87 -23.46-14.44m-69.66-43.03l23.22 14.16 23.22-14.16 0-28.87m23.22-14.44l23.46 14.44m23.22-14.44l0-28.87m0 86.34l0 28.87 23.22 14.44 23.22-14.44 0-28.87 -23.22-14.16m-69.9 100.77l0 28.87 23.46 14.44 23.22-14.44 0-28.87 -23.22-14.44m23.22 43.31l23.22 14.44 23.22-14.44 0-28.87 -23.22-14.44 -23.22 14.44m-23.22-43.31l23.22-14.44m23.22 14.44l0 28.87m-93.12-28.87l-23.22-14.44 -23.22 14.44 0 28.87 23.22 14.44 23.22-14.44m-23.22-43.31l0-28.87m-69.64 72.18l-23.22 14.44 0 28.87 23.22 14.44 23.22-14.44 0-28.87 -23.22-14.44zm23.22 43.31l23.2 14.44 23.22-14.44 0-28.87m-69.64-43.31l0 28.87m46.42 0l-23.2 14.44m0-57.74l23.2 14.44m0 115.48l-23.2 14.16 0 28.87 23.2 14.44 23.22-14.44 0-28.87 -23.22-14.16zm0-28.87l0 28.87m-46.42-28.87l0 28.87 23.22 14.16m0 28.87l-23.22 14.44 0 28.87 23.22 14.45 23.2-14.45 0-28.87m116.34-43.31l0 28.87 23.22 14.44 23.22-14.44 0-28.87 -23.22-14.16 -23.22 14.16zm23.22-43.03l0 28.87m-69.9-43.31l-23.22 14.44 0 28.87 23.22 14.16 23.46-14.16 0-28.87m-69.9 71.9l23.22 14.44 23.22-14.44 0-28.87m46.68 28.87l-23.22 14.44 0 28.87 23.22 14.45 23.22-14.45 0-28.87m-139.56 28.87l23.22 14.45 23.22-14.45 0-28.87m23.22-14.44l23.46 14.44m0-57.47l23.22 14.16m-93.12-57.47l23.22 14.44m0 28.87l-23.22 14.16m302.31-187.11l-23.46 14.16 0 28.87 23.46 14.44 23.22-14.44 0-28.87m-93.12 0l0 28.87 23.22 14.44 23.22-14.44m-46.44 86.61l23.22 14.44 23.22-14.44 0-28.87 -23.22-14.44 -23.22 14.44 0 28.87 -23.22 14.44 0 28.87m69.66-43.31l23.46 14.44 23.22-14.44 0-28.87 -23.22-14.44 -23.46 14.44m23.46-43.31l0 28.87m-46.68-28.87l0 28.87m-69.64-72.18l0 28.87 23.2 14.44 23.22-14.44m-92.86 0l23.22 14.44 23.22-14.44m-46.44 86.61l23.22 14.44 23.22-14.44 0-28.87 -23.22-14.44 -23.22 14.44m92.86 0l-23.22-14.44 -23.2 14.44m23.2-43.31l0 28.87m-46.42-28.87l0 28.87m23.22 100.77l0 28.87 23.2 14.44 23.22-14.44 0-28.87 -23.22-14.16 -23.2 14.16 -23.22-14.16 -23.22 14.16m23.22-43.03l0 28.87m23.22 43.03l-23.22 14.44 0 28.87 23.22 14.45 23.2-14.45 0-28.87m-69.64-14.44l23.22 14.44m139.53-86.34l0 28.87 23.22 14.16 23.22-14.16 0-28.87 -23.22-14.44m-23.22 43.31l-23.46 14.16 0 28.87 23.46 14.44 23.22-14.44 0-28.87m-69.9-43.03l0 28.87 23.22 14.16m-23.22-14.16l-23.22 14.16m46.44 28.87l-23.22 14.44 0 28.87 23.22 14.45 23.46-14.45 0-28.87m-69.9-14.44l23.22 14.44m-69.64-100.77l23.2 14.44m-69.64-216.26l-23.22-14.44m0 57.74l23.22-14.44m-23.22-72.18l23.22-14.44m116.08 129.92l23.22 14.16m-116.08-14.16l-23.22 14.16m-93.12 0l-23.22-14.16m418.39-201.84l-23.2-14.44 -23.22 14.44 0 28.87 23.22 14.18 23.2-14.18 0-28.87 23.22-14.44m0 57.49l-23.22-14.18m-23.2-72.18l0 28.87m-92.88 0l23.22 14.44 23.22-14.44 0-28.87m-46.44 115.23l23.22 14.44 23.22-14.44 0-28.87 -23.22-14.18 -23.22 14.18m46.44 0l23.22-14.18m-46.44-28.87l0 28.87m23.22-43.31l23.22 14.44m0 86.36l0 28.87 23.22 14.44 23.2-14.44 0-28.87 -23.2-14.44 -23.22 14.44 -23.22-14.44m-23.22 101.05l23.22-14.44 0-28.87 -23.22-14.44 -23.22 14.44m23.22-43.31l0 28.87m46.44 57.74l0 28.87 23.22 14.16 23.2-14.16 0-28.87 -23.2-14.44 -23.22 14.44 -23.22-14.44m46.44-28.87l0 28.87m-46.44-28.87l23.22-14.44m69.64 14.44l-23.22-14.44m0-28.87l23.22-14.44m-23.22 101.05l23.22-14.44m-46.42-115.48l0 28.87m0 144.08l0 28.87 23.2 14.44 23.22-14.44m-46.42 0l-23.22 14.44 0 28.87 23.22 14.44 23.2-14.44 0-28.87m23.22 43.31l-23.22-14.44m-116.08-43.31l23.22 14.44 23.22-14.44 0-28.87 -23.22-14.16m0 144.08l23.22-14.44 0-28.87 -23.22-14.44 -23.22 14.44m92.88 0l0 28.87 23.2 14.44 23.22-14.44m-92.86-28.87l23.22-14.44m-46.44-28.87l0 28.87m23.22-43.31l23.22 14.44m-46.44 115.48l23.22 14.16 23.22-14.16 0-28.87 -23.22-14.44m0 57.47l0 28.87 23.22 14.44 23.22-14.44 0-28.87 -23.22-14.16m-69.66 43.03l23.22 14.44 23.22-14.44m-23.22 14.44l0 28.87 23.22 14.45 23.22-14.45 0-28.87m23.22-43.31l23.2-14.16 0-28.87m23.22 43.03l-23.22-14.16m-23.2 43.03l23.2 14.44 23.22-14.44m-69.64 43.31l23.22 14.45 23.2-14.45 0-28.87m-46.42-86.34l23.22-14.44m46.42-115.48l-23.22-14.16m-69.64 14.16l23.22-14.16m46.42 317.04l-23.2-14.44 -23.22 14.44 0 28.87 23.22 14.16 23.2-14.16 0-28.87 23.22-14.44m0 57.47l-23.22-14.16m-23.2-72.18l0 28.87m-46.44-28.87l0 28.87 23.22 14.44m-69.66-14.44l-23.22 14.44 0 28.87 23.22 14.16 23.22-14.16 0-28.87 -23.22-14.44 0-28.87 -23.22-14.45m69.66 43.32l-23.22 14.44m46.44 28.87l-23.22 14.16 0 28.87 23.22 14.44 23.22-14.44 0-28.87m-116.1-14.16l-23.46 14.16 0 28.87 23.46 14.44 23.22-14.44 0-28.87m23.22-14.16l23.22 14.16m23.22 72.18l-23.22 14.44 0 28.87 23.22 14.44 23.22-14.44 0-28.87 -23.22-14.44zm0-28.87l0 28.87m-23.22-43.31l-23.22 14.44 0 28.87 23.22 14.44m-23.22-14.44l-23.22 14.44 0 28.87 23.22 14.44 23.22-14.44m-23.22 14.44l0 28.87 23.22 14.16 23.22-14.16 0-28.87m23.22-43.31l23.2-14.44 0-28.87 -23.2-14.44m46.42 57.74l-23.22-14.44m-46.42 86.61l23.22 14.16 23.2-14.16 0-28.87 -23.2-14.44m23.2 14.44l23.22-14.44m-139.3-86.61l23.22 14.44m92.86 0l23.22-14.44m-46.42 144.08l0 28.87 23.2 14.44 23.22-14.44m0 57.74l-23.22-14.44 -23.2 14.44 0 28.87 23.2 14.44 23.22-14.44m-23.22-43.31l0-28.87m-23.2-14.44l-23.22 14.44 0 28.87 23.22 14.44m-69.66-100.77l-23.22 14.16 0 28.87 23.22 14.44 23.22-14.44 0-28.87m-23.22 129.92l23.22-14.44 0-28.87 -23.22-14.44 -23.22 14.44 0 28.87 23.22 14.44 0 28.87 23.22 14.18 23.22-14.18m-23.22-43.31l23.22 14.44 23.22-14.44m-23.22-43.31l-23.22 14.44m0-57.74l23.22 14.44m-46.44 0l0 28.87m46.44 57.74l0 28.87 23.22 14.18 23.2-14.18 0-28.87m-116.08-14.44l-23.22 14.44 0 28.87 23.22 14.18 23.22-14.18m-23.22 14.18l0 28.87 23.22 14.44 23.22-14.44 0-28.87m-23.22 43.31l0 28.87m92.86 0l0-28.87 -23.2-14.44 -23.22 14.44 0 28.87m23.22-72.18l0 28.87m-23.22 14.44l-23.22-14.44m92.86-28.87l-23.22-14.18m0 57.49l23.22-14.44m0-201.84l-23.22-14.16m-162.76-245.12l0 28.87 23.46 14.44m-46.68-57.76l-23.22 14.45 0 28.87 23.22 14.44 23.22-14.44m0 57.47l-23.22-14.16 -23.22 14.16 0 28.87 23.22 14.44 23.22-14.44m-23.22-43.03l0-28.87m-69.64-43.31l0 28.87 23.2 14.44 23.22-14.44m-69.64-43.32l-23.22 14.45 0 28.87 23.22 14.44 23.22-14.44m-46.44 86.34l23.22 14.44 23.22-14.44 0-28.87 -23.22-14.16 -23.22 14.16 0 28.87 -23.22 14.44 0 28.87m69.66-72.18l23.2-14.16 0-28.87m-46.42 0l0 28.87m23.22 100.77l0 28.87 23.2 14.44 23.22-14.44 0-28.87 -23.22-14.44 -23.2 14.44zm46.42-57.74l-23.22 14.44 0 28.87m-46.42-28.87l0 28.87 23.22 14.44m-23.22-14.44l-23.22 14.44 0 28.87 23.22 14.44 23.22-14.44m-23.22 14.44l0 28.87 23.22 14.16 23.2-14.16 0-28.87m93.12-86.61l0 28.87 23.22 14.44m-23.22-14.44l-23.46 14.44 0 28.87 23.46 14.44 23.22-14.44m-93.12-28.87l23.22-14.44 0-28.87m23.22 72.18l-23.22 14.44 0 28.87 23.22 14.16 23.46-14.16 0-28.87m-69.9-14.44l23.22 14.44m23.22-43.31l-23.22-14.44m-69.64-43.31l23.2 14.44m0-57.47l23.22 14.16m-162.52-100.79l-23.46 14.45 0 28.87 23.46 14.44 23.22-14.44 0-28.87m-23.22 43.31l0 28.87 23.22 14.16 23.22-14.16 0-28.87 -23.22-14.44m-93.12-28.87l0 28.87 23.22 14.44 23.22-14.44m23.46 43.31l-23.46 14.16 0 28.87 23.46 14.44 23.22-14.44 0-28.87m-46.68 0l-23.22-14.16 -23.22 14.16 0 28.87 23.22 14.44 23.22-14.44m-23.22-43.03l0-28.87m-23.22-14.44l-23.22 14.44 0 28.87 23.22 14.16m-69.64-100.79l-23.22 14.45 0 28.87 23.22 14.44 23.22-14.44 0-28.87m0 86.34l-23.22-14.16 -23.22 14.16 0 28.87 23.22 14.44 23.22-14.44 0-28.87 23.2-14.16m0-28.87l-23.2-14.44m-23.22 14.44l0 28.87m46.42 86.34l-23.2 14.44 0 28.87 23.2 14.44 23.22-14.44 0-28.87 -23.22-14.44zm23.22-43.31l-23.22 14.44 0 28.87m-46.42-28.87l0 28.87 23.22 14.44m0 28.87l-23.22 14.44 0 28.87 23.22 14.16 23.2-14.16 0-28.87m162.77-43.31l-23.22-14.44 -23.22 14.44 0 28.87 23.22 14.44 23.22-14.44m-116.34-72.18l0 28.87 23.22 14.44 23.46-14.44 0-28.87m-46.68 115.48l23.22 14.16 23.46-14.16 0-28.87 -23.46-14.44 -23.22 14.44 0 28.87 -23.22 14.16 0 28.87 23.22 14.44 23.22-14.44m23.46-43.03l23.22 14.16 23.22-14.16 0-28.87m-46.44 0l23.22-14.44m-46.68-28.87l0 28.87m46.68-28.87l-23.22-14.44m23.22-43.31l23.22 14.44m-93.12 28.87l-23.22 14.44m0 28.87l23.22 14.44m-69.64-101.05l23.2 14.44m116.34 158.52l-23.22 14.44 0 28.87 23.22 14.44 23.22-14.44 0-28.87 -23.22-14.44 0-28.87m-46.68 0l0 28.87 23.46 14.44m0 28.87l-23.46 14.44 0 28.87 23.46 14.44 23.22-14.44 0-28.87m-46.68 0l-23.22-14.44 -23.22 14.44 0 28.87 23.22 14.44 23.22-14.44m23.46 14.44l0 28.87 23.22 14.18 23.22-14.18 0-28.87 -23.22-14.44m-69.9-43.31l0-28.87m-69.64-43.31l0 28.87 23.2 14.44 23.22-14.44m-69.64-43.03l-23.22 14.16 0 28.87 23.22 14.44 23.22-14.44m-23.22 43.31l-23.22 14.44 0 28.87 23.22 14.44 23.22-14.44 0-28.87 -23.22-14.44zm69.64 43.31l-23.22 14.44 0 28.87 23.22 14.18 23.22-14.18 0-28.87m-46.44-86.61l0 28.87 23.22 14.44m-69.64-43.31l0 28.87m23.22 14.44l23.2-14.44m0 57.74l-23.2-14.44m-23.22 14.44l0 28.87 23.22 14.18 23.2-14.18m0 86.36l0-28.87 -23.2-14.44 -23.22 14.44 0 28.87m92.86 0l0-28.87 -23.22-14.44 -23.22 14.44m-23.2-14.44l0-28.87m46.42 28.87l0-28.87m23.22 43.31l23.22-14.44 0-28.87 -23.22-14.18m46.68 0l-23.46 14.18m23.46 72.18l0-28.87 -23.46-14.44m116.34 43.31l0-28.87 -23.22-14.44 -23.22 14.44 0 28.87m-23.22-72.18l0 28.87 23.22 14.44m-46.44 0l23.22-14.44m185.74-201.84l0 28.87 23.46 14.44 23.22-14.44m-69.9-43.03l-23.22 14.16 0 28.87 23.22 14.44 23.22-14.44m-23.22 101.05l23.22-14.44 0-28.87 -23.22-14.44 -23.22 14.44 0 28.87 23.22 14.44 0 28.87 23.22 14.18 23.46-14.18m23.22-72.18l-23.22-14.44 -23.46 14.44m0 28.87l23.46 14.44m0-57.74l0-28.87m-46.68 0l0 28.87m-69.64-72.18l0 28.87 23.2 14.44 23.22-14.44m-69.64-43.03l-23.22 14.16 0 28.87 23.22 14.44 23.22-14.44m-46.44 57.74l0 28.87 23.22 14.44 23.22-14.44 0-28.87 -23.22-14.44 -23.22 14.44 -23.22-14.44m116.08 14.44l-23.22-14.44 -23.2 14.44m0 28.87l23.2 14.44 23.22-14.44m-23.22-72.18l0 28.87m-46.42-28.87l0 28.87m0 57.74l0 28.87 23.22 14.18 23.2-14.18 0-28.87m-46.42 28.87l-23.22 14.18 0 28.87m69.64 43.31l0-28.87 -23.2-14.44 -23.22 14.44m23.22-14.44l0-28.87m23.2-14.18l23.22 14.18 23.22-14.18m-23.22 14.18l0 28.87 23.22 14.44 23.22-14.44 0-28.87m-23.22 43.31l0 28.87m46.68 0l0-28.87 -23.46-14.44m-69.66 14.44l23.22-14.44m-92.86-374.79l-23.22-14.16m0-28.87l23.22-14.44m-23.22 360.34l23.22-14.44m-23.22-72.18l23.22-14.44m0-28.87l-23.22-14.16m116.08 14.16l-23.22-14.16m-209.2 14.16l-23.22-14.16m162.77 187.13l-23.22-14.18m185.97 57.49l23.22-14.44m0-201.84l-23.22-14.16m46.44-259.58l-23.22 14.45m-185.97 0l-23.22-14.45m116.08 14.45l-23.22-14.45m255.64 14.45l-23.22-14.45m-395.17 14.45l-23.22-14.45m-580.91-504.44l0 28.87 23.22 14.44 23.22-14.44 0-28.87m0 28.87l23.46 14.44 23.22-14.44 0-28.87m-139.56 0l0 28.87 23.22 14.44 23.22-14.44m-23.22 43.31l-23.22 14.18 0 28.87 23.22 14.44 23.22-14.44 0-28.87 -23.22-14.18zm23.22 43.05l23.22 14.44 23.22-14.44 0-28.87 -23.22-14.18 -23.22 14.18m46.44 28.87l23.46 14.44 23.22-14.44 0-28.87 -23.22-14.18 -23.46 14.18m-69.66-43.05l0 28.87m46.44-28.87l0 28.87m46.68-28.87l0 28.87m-139.56-28.87l23.22-14.44m0 57.49l-23.22-14.18m0 144.1l23.22-14.44 0-28.87 -23.22-14.44m0-28.87l23.22-14.44m69.66 43.31l-23.22 14.44 0 28.87 23.22 14.44 23.22-14.44 0-28.87 -23.22-14.44 0-28.87m23.22 72.18l23.46 14.44 23.22-14.44 0-28.87 -23.22-14.44 -23.46 14.44m23.46-43.31l0 28.87m-93.12-28.87l0 28.87 23.22 14.44m0 28.87l-23.22 14.44 0 28.87 23.22 14.16 23.22-14.16 0-28.87m46.68 0l0 28.87 23.22 14.16 23.22-14.16 0-28.87 -23.22-14.44m-116.34-43.31l-23.22 14.44m0 28.87l23.22 14.44m69.66 71.9l-23.22 14.44 0 28.87 23.22 14.44 23.46-14.44 0-28.87 -23.46-14.44zm23.46-43.03l-23.46 14.16 0 28.87m-69.66-43.03l-23.22 14.16 0 28.87 23.22 14.44 23.22-14.44 0-28.87m0 86.61l-23.22-14.44 -23.22 14.44 0 28.87 23.22 14.44 23.22-14.44 0-28.87 23.22-14.44m23.22 14.44l0 28.87 23.46 14.44 23.22-14.44 0-28.87 -23.22-14.44m-93.12-28.87l0 28.87m46.44-28.87l-23.22-14.44m-69.66 14.44l23.22-14.44m0 57.74l-23.22-14.44m0 144.08l23.22-14.44 0-28.87 -23.22-14.16m116.1 14.16l0 28.87 23.46 14.44 23.22-14.44 0-28.87 -23.22-14.16 -23.46 14.16zm23.46-43.03l0 28.87m-23.46-43.31l-23.22 14.44 0 28.87 23.22 14.16m-69.66-43.03l0 28.87 23.22 14.16 23.22-14.16m-46.44 57.47l0 28.87 23.22 14.45 23.22-14.45 0-28.87 -23.22-14.44 -23.22 14.44zm93.12 0l0 28.87 23.22 14.45 23.22-14.45 0-28.87 -23.22-14.44m-69.9 14.44l23.22-14.44m-46.44-28.87l0 28.87m0-86.34l23.22 14.44m-46.44 28.87l-23.22 14.16m0 28.87l23.22 14.44m-46.44-86.34l23.22-14.44m92.88-115.48l-23.22-14.16m-69.66 14.16l-23.22-14.16m488.05-245.15l0 28.87 23.22 14.44 23.22-14.44m-92.86-28.87l0 28.87 23.2 14.44 23.22-14.44m-23.22 43.31l-23.2 14.18 0 28.87 23.2 14.44 23.22-14.44 0-28.87 -23.22-14.18 0-28.87m69.66 43.05l-23.22-14.18 -23.22 14.18m23.22-14.18l0-28.87m-116.08-43.31l0 28.87 23.22 14.44 23.22-14.44m-93.12-28.87l0 28.87 23.46 14.44 23.22-14.44m-46.68 57.49l0 28.87 23.46 14.44 23.22-14.44 0-28.87 -23.22-14.18 -23.46 14.18 -23.22-14.18 -23.22 14.18m139.56 0l-23.22-14.18 -23.22 14.18m-23.22-43.05l0 28.87m46.44-28.87l0 28.87m23.22 43.05l-23.22 14.44 0 28.87 23.22 14.44 23.2-14.44 0-28.87m-69.64-14.44l23.22 14.44m0 28.87l-23.22 14.44 0 28.87 23.22 14.44 23.22-14.44 0-28.87m-93.12-57.74l-23.22 14.44 0 28.87 23.22 14.44 23.46-14.44 0-28.87m23.22 72.18l-23.22 14.44 0 28.87 23.22 14.16 23.22-14.16 0-28.87m-69.9-43.31l0 28.87 23.46 14.44m23.22-43.31l-23.22-14.44m116.08-43.31l23.22 14.44 23.22-14.44m-23.22 43.31l-23.22 14.44 0 28.87 23.22 14.44 23.22-14.44 0-28.87 -23.22-14.44 0-28.87m-46.44 28.87l23.22 14.44m0 28.87l-23.22 14.44 0 28.87 23.22 14.16 23.22-14.16 0-28.87m-46.44 0l-23.2-14.44m-139.56-201.84l0 28.87 23.22 14.44 23.22-14.44m-92.88-28.87l0 28.87 23.22 14.44 23.22-14.44m-46.44 57.49l0 28.87 23.22 14.44 23.22-14.44 0-28.87 -23.22-14.18 -23.22 14.18 -23.22-14.18 -23.22 14.18m116.1-43.05l0 28.87m-46.44-28.87l0 28.87m-69.66-72.18l0 28.87 23.22 14.44 23.22-14.44m-92.86 0l23.22 14.44 23.2-14.44m-46.42 86.36l23.22 14.44 23.2-14.44 0-28.87 -23.2-14.18 -23.22 14.18m69.64-43.05l0 28.87m-46.42-28.87l0 28.87m23.2 43.05l23.22 14.44 23.22-14.44m-23.22 14.44l0 28.87 23.22 14.44 23.22-14.44 0-28.87m-46.44 28.87l-23.22 14.44 0 28.87 23.22 14.44 23.22-14.44 0-28.87m-92.86 0l23.22-14.44 0-28.87m46.42 86.61l0 28.87 23.22 14.16 23.22-14.16 0-28.87 -23.22-14.44m-46.44-28.87l-23.2-14.44m0 57.74l23.2-14.44m92.88-86.61l23.22 14.44m0 28.87l-23.22 14.44 0 28.87 23.22 14.44 23.22-14.44m-69.66 43.31l23.22 14.16 23.22-14.16 0-28.87m-46.44-57.74l23.22 14.44m-23.22 43.31l23.22-14.44m0 57.47l0 28.87 23.22 14.44 23.22-14.44 0-28.87 -23.22-14.16m-69.66 14.16l0 28.87 23.22 14.44 23.22-14.44m-46.44 86.61l23.22 14.44 23.22-14.44 0-28.87 -23.22-14.44 -23.22 14.44 0 28.87 -23.22 14.44 0 28.87m69.66-43.31l23.22 14.44 23.22-14.44 0-28.87 -23.22-14.44 -23.22 14.44m23.22-43.31l0 28.87m-46.44-28.87l0 28.87m-46.44-86.34l-23.22 14.16 0 28.87 23.22 14.44 23.22-14.44m-92.86-28.87l0 28.87 23.22 14.44 23.2-14.44m-46.42 86.61l23.22 14.44 23.2-14.44 0-28.87 -23.2-14.44 -23.22 14.44m92.86 0l-23.22-14.44 -23.22 14.44m-23.2-43.31l0 28.87m46.42-28.87l0 28.87m-23.22 100.77l0 28.87 23.22 14.44 23.22-14.44 0-28.87 -23.22-14.16 -23.22 14.16 -23.2-14.16 -23.22 14.16m23.22-43.03l0 28.87m46.42 57.47l0 28.87 23.22 14.45 23.22-14.45 0-28.87 -23.22-14.44m-69.64 14.44l23.2-14.44m116.1-71.9l0 28.87 23.22 14.16 23.46-14.16 0-28.87 -23.46-14.44m-23.22 43.31l-23.22 14.16 0 28.87 23.22 14.44 23.22-14.44 0-28.87m-46.44 0l-23.22-14.16 -23.22 14.16m23.22-43.03l0 28.87m46.44 57.47l0 28.87 23.22 14.45 23.46-14.45 0-28.87 -23.46-14.44m-69.66 14.44l23.22-14.44m-92.88-86.34l23.22 14.44m255.64-129.92l0 28.87 23.22 14.44 23.22-14.44m-46.44 0l-23.22 14.44 0 28.87 23.22 14.44 23.22-14.44 0-28.87m-46.44 28.87l-23.2 14.44 0 28.87 23.2 14.44 23.22-14.44 0-28.87m46.44 0l-23.22-14.44m-116.08-72.18l0 28.87 23.22 14.44 23.22-14.44 0-28.87 -23.22-14.16m-69.9 43.03l23.46 14.44 23.22-14.44m-23.22 101.05l23.22-14.44 0-28.87 -23.22-14.44 -23.46 14.44m93.12 0l-23.22-14.44 -23.22 14.44m-23.22-43.31l0 28.87m46.44-28.87l0 28.87m23.22 43.31l-23.22 14.44 0 28.87 23.22 14.16 23.2-14.16 0-28.87m-46.42 28.87l-23.22 14.16 0 28.87 23.22 14.44 23.22-14.44 0-28.87m-23.22 43.31l0 28.87 23.22 14.45 23.2-14.45 0-28.87 -23.2-14.44m-46.44-28.87l-23.22-14.16m0 57.47l23.22-14.44m116.08-43.03l-23.22 14.16 0 28.87 23.22 14.44 23.22-14.44 0-28.87 -23.22-14.16 0-28.87 -23.22-14.44m0 57.47l-23.22-14.16m0 57.47l23.22-14.44m-23.22 43.31l23.22 14.45 23.22-14.45 0-28.87m0-86.34l23.22-14.44m-139.3 0l23.22 14.44m46.42-86.61l-23.2-14.44m-232.44-28.87l-23.2-14.16m348.5 14.16l-23.22-14.16m-139.3 0l-23.46 14.16m116.32-14.16l-23.2 14.16m-302.07 43.31l23.22-14.44m325.27 230.7l0 28.87 23.22 14.44 23.22-14.44m-46.44 0l-23.22 14.44 0 28.87 23.22 14.16 23.22-14.16 0-28.87m-46.44 28.87l-23.2 14.16 0 28.87 23.2 14.44 23.22-14.44 0-28.87m46.44 0l-23.22-14.16m-69.64-72.18l0 28.87 23.2 14.44m-23.2-14.44l-23.22 14.44 0 28.87 23.22 14.16m-23.22-43.03l-23.22-14.44 -23.22 14.44 0 28.87 23.22 14.16 23.22-14.16m-23.22-43.31l0-28.87 -23.22-14.45m-23.46 14.45l0 28.87 23.46 14.44m0 28.87l-23.46 14.16 0 28.87 23.46 14.44 23.22-14.44 0-28.87m0 86.61l0 28.87 23.22 14.44 23.22-14.44 0-28.87 -23.22-14.44 -23.22 14.44 -23.22-14.44 -23.46 14.44 0 28.87 23.46 14.44 23.22-14.44m46.44-86.61l-23.22 14.44 0 28.87m-46.44-28.87l0 28.87m-23.46 43.31l-23.22 14.44 0 28.87 23.22 14.16 23.46-14.16 0-28.87m46.44 0l0 28.87 23.22 14.16 23.2-14.16 0-28.87 -23.2-14.44m69.64-43.31l-23.22 14.44 0 28.87 23.22 14.44 23.22-14.44 0-28.87 -23.22-14.44 0-28.87 -23.22-14.44m-23.22 14.44l0 28.87 23.22 14.44m-23.22 43.31l23.22-14.44m-23.22 43.31l23.22 14.16 23.22-14.16 0-28.87m-116.08-101.05l23.22 14.44m46.42 28.87l-23.2 14.44m69.64-43.31l23.22-14.44m-209.2-129.66l-23.22 14.45 0 28.87 23.22 14.44 23.22-14.44m-92.88-28.87l0 28.87 23.22 14.44 23.22-14.44m-46.44 0l-23.22 14.44 0 28.87 23.22 14.16 23.22-14.16 0-28.87m-46.44 28.87l-23.22 14.16 0 28.87 23.22 14.44 23.22-14.44 0-28.87m92.88 0l-23.22-14.16 -23.22 14.16 0 28.87 23.22 14.44 23.22-14.44m-23.22-71.9l0 28.87m-46.44 0l23.22 14.16m-69.66-100.79l-23.22 14.45 0 28.87 23.22 14.44m-69.64-14.44l-23.22 14.44 0 28.87 23.22 14.16 23.22-14.16 0-28.87 -23.22-14.44 0-28.87m0 86.34l0 28.87 23.22 14.44 23.2-14.44m0-28.87l-23.2-14.16m0-28.87l23.2-14.44m0 144.08l0 28.87 23.22 14.44 23.22-14.44 0-28.87 -23.22-14.44 -23.22 14.44zm23.22-43.31l0 28.87m-46.42-28.87l0 28.87 23.2 14.44m-23.2-14.44l-23.22 14.44 0 28.87 23.22 14.44 23.2-14.44m-46.42 0l-23.22 14.44 0 28.87 23.22 14.16 23.22-14.16 0-28.87m46.42 0l0 28.87 23.22 14.16 23.22-14.16 0-28.87 -23.22-14.44m69.66-72.18l0 28.87 23.22 14.44m-23.22-14.44l-23.22 14.44 0 28.87 23.22 14.44m-23.22-43.31l-23.22-14.44 -23.22 14.44m46.44-57.74l-23.22 14.44 0 28.87m0 57.74l23.22-14.44m-46.44-86.61l23.22 14.44m-23.22 129.64l0 28.87 23.22 14.44 23.22-14.44 0-28.87 -23.22-14.16m23.22 43.03l23.22 14.44 23.22-14.44 0-28.87m-92.88 115.48l23.22 14.44 23.22-14.44 0-28.87 -23.22-14.44 -23.22 14.44 0 28.87zm46.44 0l23.22 14.44 23.22-14.44 0-28.87 -23.22-14.44 -23.22 14.44m23.22-43.31l0 28.87m-46.44-28.87l0 28.87m-116.08-72.18l0 28.87 23.22 14.44 23.2-14.44 0-28.87 -23.2-14.16m23.2 43.03l23.22 14.44 23.22-14.44m-92.86 0l-23.22 14.44 0 28.87 23.22 14.44 23.22-14.44 0-28.87m-46.44 28.87l-23.46 14.44 0 28.87 23.46 14.44 23.22-14.44 0-28.87m-23.22 43.31l0 28.87 23.22 14.18 23.22-14.18 0-28.87 -23.22-14.44m92.86-28.87l-23.22-14.44 -23.22 14.44 0 28.87 23.22 14.44 23.22-14.44m-23.22-72.18l0 28.87m-46.42 57.74l23.2-14.44m0-28.87l-23.2-14.44m23.2 100.79l0 28.87 23.22 14.44 23.22-14.44 0-28.87 -23.22-14.18 -23.22 14.18 -23.2-14.18m-23.22 14.18l0 28.87 23.22 14.44 23.2-14.44m-23.2 14.44l0 28.87m46.42-28.87l0 28.87m46.44-115.23l0 28.87 23.22 14.18 23.22-14.18 0-28.87m-69.66 43.05l23.22-14.18m-23.22 43.05l23.22 14.44 23.22-14.44 0-28.87m-23.22 43.31l0 28.87m46.44 0l0-28.87 -23.22-14.44m-69.66-71.92l0 28.87m255.64-158.79l0 28.87 23.22 14.44 23.22-14.44m-92.86-28.87l0 28.87 23.2 14.44 23.22-14.44m-23.22 43.31l-23.2 14.44 0 28.87 23.2 14.44 23.22-14.44 0-28.87 -23.22-14.44 0-28.87m69.66 43.31l-23.22-14.44 -23.22 14.44m0 28.87l23.22 14.44 23.22-14.44m-23.22-43.31l0-28.87m-92.86-57.47l-23.22 14.16 0 28.87 23.22 14.44 23.22-14.44m-93.12 0l23.46 14.44 23.22-14.44m-46.68 86.61l23.46 14.44 23.22-14.44 0-28.87 -23.22-14.44 -23.46 14.44m93.12 28.87l-23.22 14.44 0 28.87 23.22 14.18 23.2-14.18 0-28.87m-23.2-43.31l-23.22-14.44 -23.22 14.44m23.22 43.31l-23.22-14.44m-23.22-43.31l0-28.87m46.44 0l0 28.87m-46.44 57.74l0 28.87 23.22 14.18 23.22-14.18m-93.12 0l23.22 14.18 23.46-14.18m-23.46 14.18l0 28.87 23.46 14.44 23.22-14.44 0-28.87m-23.22 43.31l0 28.87m92.86 0l0-28.87 -23.2-14.44 -23.22 14.44 0 28.87m0-28.87l-23.22-14.44m46.44-28.87l0 28.87m69.64-43.05l-23.22 14.18 0 28.87 23.22 14.44 23.22-14.44 0-28.87 -23.22-14.18 0-28.87m-46.44 28.87l23.22 14.18m0 28.87l-23.22 14.44m46.44 28.87l0-28.87m-185.97 0l23.22-14.44m-116.1-216l-23.22 14.16m116.1-14.16l-23.22 14.16m93.12 0l-23.22-14.16m162.52 14.16l-23.22-14.16m-441.61-245.12l0 28.87 23.22 14.44 23.22-14.44 0-28.87 -23.22-14.45m23.22 43.32l23.46 14.44m-93.12-57.76l-23.22 14.45 0 28.87 23.22 14.44 23.22-14.44m0 57.47l-23.22-14.16 -23.22 14.16 0 28.87 23.22 14.44 23.22-14.44 0-28.87zm0 28.87l23.22 14.44 23.22-14.44 0-28.87 -23.22-14.16 -23.22 14.16m69.9-14.16l-23.46 14.16m-69.66-43.03l0 28.87m46.44 0l0-28.87m-92.88 0l23.22-14.44m0 57.47l-23.22-14.16m0 144.08l23.22-14.44 0-28.87 -23.22-14.44m92.88-28.87l0 28.87 23.22 14.44 23.46-14.44 0-28.87 -23.46-14.44m-69.66 14.44l0 28.87 23.22 14.44 23.22-14.44m-46.44 86.61l23.22 14.16 23.22-14.16 0-28.87 -23.22-14.44 -23.22 14.44 0 28.87 -23.22 14.16m69.66-43.03l23.22-14.44 0-28.87m0 28.87l23.46 14.44m-69.9-43.31l0 28.87m-69.66-72.18l23.22-14.44m23.22 43.31l-23.22 14.44m0 28.87l23.22 14.44m23.22 43.03l0 28.87 23.22 14.44 23.22-14.44 0-28.87 -23.22-14.16m23.22 43.03l23.46 14.44m-69.9-14.44l-23.22 14.44 0 28.87 23.22 14.44 23.22-14.44 0-28.87m-46.44 28.87l-23.22 14.44 0 28.87 23.22 14.44 23.22-14.44 0-28.87m0 28.87l23.22 14.44 23.22-14.44m0-28.87l-23.22-14.44m-92.88-28.87l23.22-14.44 0-28.87 -23.22-14.16m0 144.08l23.22-14.44m0-28.87l-23.22-14.44m0 144.1l23.22-14.44 0-28.87 -23.22-14.18m139.56 0l-23.46 14.18 0 28.87 23.46 14.44 23.22-14.44m-46.68-28.87l-23.22-14.18 -23.22 14.18 0 28.87 23.22 14.44 23.22-14.44m-69.66-71.92l0 28.87 23.22 14.18m0 28.87l-23.22 14.44 0 28.87m93.12 0l0-28.87m-46.68 28.87l0-28.87m0-57.49l0-28.87m-69.66-101.05l23.22 14.44m0 115.48l-23.22 14.18m0 28.87l23.22 14.44m93.12-230.44l-23.46 14.16m46.68-86.34l-23.22-14.44m0-28.87l23.22-14.44m46.42-115.21l-23.2-14.45m-162.77 14.45l-23.22-14.45m139.56 0l-23.46 14.45m302.31-14.45l-23.22 14.45m-116.34-14.45l23.22 14.45m232.41 0l-23.22-14.45m23.22-302.6l23.22 14.44m0-57.74l-23.22 14.44m0 547.75l23.22 14.44m0-57.74l-23.22 14.44m23.22 245.12l-23.22 14.18m0 28.87l23.22 14.44m-23.22-533.33l23.22 14.44m0-57.47l-23.22 14.16" clip-path="url(#b)" fill="none" stroke="#989898" stroke-linecap="square" stroke-miterlimit="1" stroke-width="2.0228"/>
    <path d="m512 636l0-565 -330 565 330 0z" style="fill:none;stroke-width:16;stroke:#009252;"/>
    <path d="m512 388l0 565 330-565 -330 0z" style="fill:none;stroke-width:16;stroke:#009252;"/>
    <ellipse cx="512" cy="512" rx="150" ry="150" style="fill-opacity:null;fill:#009252;stroke-opacity:null;stroke-width:null;stroke:null"/>
  </g>
</svg>