<svg width="768pt" height="768pt" version="1.1" viewBox="0 0 768.00001 768.00292" xmlns="http://www.w3.org/2000/svg">
 <g transform="translate(-.27088 -40.795)">
  <ellipse cx="384.27" cy="424.8" rx="369.04" ry="368.79" stroke-width=".60817"/>
 </g>
 <g transform="translate(-.2709 -41.042)">
  <path d="m369.91 56.512a369.04 368.79 0 0 0 -3.4273 0.12098l-0.0665 4.1035-10.216 5.9223c-5.6187 3.2569-10.268 5.8935-10.33 5.8597-0.0627-0.03379-4.6024-2.6973-10.088-5.9195l-9.789-5.7499a369.04 368.79 0 0 0 -5.2055 0.73282l-8.7579 5.0769c-5.6187 3.2569-10.267 5.8935-10.33 5.8597-0.0513-0.02753-4.1306-2.4227-8.2055-4.8154a369.04 368.79 0 0 0 -3.8696 0.8691c0.31413 0.18038 0.59616 0.33675 0.91552 0.52144l9.9769 5.7693v23.913l-9.9769 5.7694c-5.487 3.1731-10.376 5.7531-10.865 5.7346-0.48853-0.0185-5.2959-2.6147-10.684-5.7694l-9.796-5.736v-20.515a369.04 368.79 0 0 0 -2.8497 0.94696v19.569l-9.9768 5.7694c-5.487 3.1731-10.376 5.7531-10.865 5.7346-0.48854-0.0185-5.2959-2.6147-10.684-5.7694l-9.7959-5.736v-1.4698a369.04 368.79 0 0 0 -26.24 15.041l0.94898 0.54648 0.1948 12.081 0.19342 12.082-10.259 5.8514c-5.6425 3.2186-10.379 5.8514-10.528 5.8514-0.14839 0-4.8444-2.6343-10.435-5.8542l-7.1146-4.0979a369.04 368.79 0 0 0 -2.1734 1.9078l8.0455 4.6096 10.347 5.9265-0.17811 12.081-0.1781 12.082-9.9741 5.8556c-5.4857 3.2208-10.134 5.8566-10.33 5.857s-4.9131-2.6256-10.482-5.8347l-10.124-5.8347-0.0164-12.103v-2.4126a369.04 368.79 0 0 0 -3.0765 3.2998l-0.16422 11.173-9.9741 5.8556c-5.4857 3.2208-10.134 5.8559-10.33 5.8556-0.0342-6e-5 -0.26973-0.1178-0.59553-0.28784a369.04 368.79 0 0 0 -1.7073 2.1609l0.84601 0.48391 0.19478 12.874 0.17398 11.61-9.853 5.6776c-5.5291 3.1866-10.426 5.7587-10.881 5.7151-0.28718-0.0274-2.3911-1.1355-5.1902-2.6949a369.04 368.79 0 0 0 -1.3678 2.229l5.3196 3.037 0.01634 12.103 0.01501 12.103-10.209 5.8736c-5.6155 3.2305-10.339 5.863-10.497 5.85-0.09995-9e-3 -2.303-1.2411-5.1136-2.8353a369.04 368.79 0 0 0 -1.1828 2.446l4.9731 2.8576-0.19343 12.094-0.19478 12.094-9.9741 5.8514c-5.4858 3.2183-10.134 5.8421-10.33 5.8319-0.02346-2e-3 -0.29573-0.1501-0.43694-0.22109a369.04 368.79 0 0 0 -0.98793 2.7032v23.846l-8.5868 4.9851a369.04 368.79 0 0 0 -0.95872 3.7517l0.853-0.49225 10.187-5.8722 10.117 5.8625 10.117 5.8639 0.19478 12.092 0.19343 12.092-10.179 5.85c-5.5986 3.2174-10.335 5.8404-10.525 5.8291-0.19001-0.0112-4.92-2.6455-10.513-5.8542l-6.7014-3.8448a369.04 368.79 0 0 0 -0.43551 2.884l5.911 3.3999 10.304 5.9279-0.01282 12.103-0.01349 12.103-9.9922 5.6956c-4.9472 2.82-9.0825 5.1246-10.092 5.6317a369.04 368.79 0 0 0 -0.41328 8.2542 369.04 368.79 0 0 0 0.76808 21.699c1.7096 0.74757 5.584 2.8246 9.8029 5.2854l9.6178 5.6094 0.19478 12.067 0.19484 12.067-10.073 5.8083c-1.6372 0.94407-3.1627 1.7984-4.5891 2.5836a369.04 368.79 0 0 0 0.65394 2.9076l5.2486-3.0536 10.152-5.9056 10.302 5.8834 10.304 5.8848 0.02356 12.103 0.02346 12.103-3.7528 2.1581-7.2551 4.1577-1.0867 0.62296c-4.6415 2.6492-8.4862 4.7874-8.6257 4.7682-0.12296-0.017-3.2554-1.7788-7.0785-3.9561a369.04 368.79 0 0 0 1.2885 3.8754l4.4583 2.5614-0.06412 4.2537-0.09739 6.11a369.04 368.79 0 0 0 3.2978 9.9173l-0.13218-8.2473-0.18225-11.375v-0.71753l11.043-6.3325 7.5028-4.3023c0.53347-0.29691 1.5109-0.84898 1.5821-0.88021 0.29331-0.12859 5.1934 2.4241 10.89 5.6734l10.357 5.9084-0.19486 12.081-0.19335 12.081-10.266 5.9181c-5.646 3.2545-10.295 5.892-10.33 5.8611-0.03562-0.0308-4.5523-2.6901-10.038-5.9084l-8.3307-4.8864a369.04 368.79 0 0 0 1.994 4.4511c1.5856 0.8637 3.3083 1.8177 5.193 2.8965l10.049 5.7513v23.981l-0.07656 0.0445a369.04 368.79 0 0 0 1.3456 2.3444l0.08625-0.05 10.187 5.8722 10.187 5.8722 0.19335 12.081 0.16699 10.347a369.04 368.79 0 0 0 3.9796 5.5607l7.7547 4.4414 10.347 5.9278-0.17811 12.081-0.0128 0.84552a369.04 368.79 0 0 0 3.0835 3.5083l-8e-3 -4.3315-0.0149-12.103 10.302-5.9278 10.302-5.9265 10.347 5.9265 10.347 5.9278-0.17812 12.081-0.17811 12.081-9.9741 5.8555c-5.4857 3.2208-10.134 5.8566-10.33 5.857-0.14668 2.8e-4 -3.1602-1.6762-6.8363-3.7628a369.04 368.79 0 0 0 8.2542 7.851l-0.0263-1.6783 10.106-5.8236c5.5579-3.2031 10.453-5.7295 10.88-5.615 0.42661 0.11449 5.1923 2.7317 10.589 5.8167l9.8113 5.6094-0.19342 12.095-0.19479 12.096-8.9388 5.1826a369.04 368.79 0 0 0 2.3655 1.7979c4.2839-2.4295 7.8564-4.2757 8.3544-4.2717 0.58777 0 5.3967 2.5311 10.686 5.6149l9.6178 5.6081 0.19341 12.02 0.0139 0.84826a369.04 368.79 0 0 0 3.1155 1.9092l0.0446-2.7198 0.19481-12.07 9.6179-5.6094c5.2898-3.0854 10.099-5.6058 10.686-5.6011 0.58771 0 5.3967 2.5311 10.686 5.6149l9.6179 5.6081 0.19483 12.064 0.1934 12.066-10.122 5.8041c-0.56016 0.32113-1.0631 0.59851-1.6058 0.90522a369.04 368.79 0 0 0 2.9555 1.4268l10.165-5.8056 10.304 5.8847 10.302 5.8848 0.0123 7.0028a369.04 368.79 0 0 0 2.9361 1.0708l0.01-8.0736 10.304-5.8848 10.304-5.8847 10.304 5.8847 10.302 5.8848 0.0152 12.103 0.01 8.2126a369.04 368.79 0 0 0 2.9082 0.74252l0.01-8.9551 0.0143-12.103 10.304-5.8848 10.304-5.8847 10.302 5.8847 10.304 5.8848 0.0142 12.103 0.0152 12.103-5.3001 3.0398a369.04 368.79 0 0 0 4.3637 0.65907l2.4114-1.385 3.5232 2.0247a369.04 368.79 0 0 0 5.9569 0.2975l-8.0636-4.636 0.0181-12.103 0.0181-12.103 10.304-5.8848 10.304-5.8847 10.303 5.8847 10.304 5.8848 0.0142 12.103 0.0152 12.103-10.102 5.7929a369.04 368.79 0 0 0 5.076 0.25317l6.501-3.7322 5.7635 3.3123a369.04 368.79 0 0 0 5.122 -0.18074l-9.469-5.4454 0.0181-12.103 0.018-12.103 10.304-5.8848 10.304-5.8847 10.302 5.8847 10.304 5.8848 0.0143 12.103 0.0152 12.103-5.1944 2.9785a369.04 368.79 0 0 0 10.937 -1.3266l-2.8776-1.6519 0.18371-12.082 0.18228-12.081 10.152-5.907 10.154-5.9056 10.302 5.8847 10.241 5.8501-0.0152 11.226-0.01 6.8915a369.04 368.79 0 0 0 3.0013 -0.67303l0.01-4.5735 0.0199-12.836 11.008-6.281 9.718-5.5441 9.9184 5.7694 10.149 5.9042 0.057 3.8963a369.04 368.79 0 0 0 3.2004 -1.4308v-2.5085l10.302-5.8834 10.302-5.8847 4.9175 2.8604a369.04 368.79 0 0 0 2.872 -1.4323l-6.3952-3.7364 0.19473-12.082 0.19349-12.082 9.6178-5.6109c5.2898-3.0854 10.099-5.5974 10.686-5.583 0.5878 0.0142 5.3967 2.5345 10.687 5.6011l9.6178 5.576 0.11969 7.4631a369.04 368.79 0 0 0 3.3618 -2.4029l0.0807-5.0324 9.6178-5.6067c5.2898-3.0838 10.099-5.5995 10.686-5.59 0.16594 0 0.73038 0.24396 1.4847 0.60212a369.04 368.79 0 0 0 2.5102 -2.0608l-2.2138-1.2918-0.1935-12.067-0.19473-12.067 10.119-5.8347c5.5657-3.2093 10.472-5.7432 10.902-5.6302 0.4303 0.11296 5.1885 2.7502 10.574 5.8611l3.0349 1.7535a369.04 368.79 0 0 0 1.8924 -2.0302c-1.3119-0.73113-2.7256-1.5311-4.2245-2.3945l-10.126-5.8319-0.0142-12.103-0.0142-12.103 10.286-5.9 10.286-5.8987 10.354 5.8987 10.352 5.9-9.5e-4 1.2584a369.04 368.79 0 0 0 3.8266 -5.031c-1.3674 0.75353-2.3504 1.2807-2.424 1.2807-0.17849 0-4.8973-2.6343-10.488-5.8542l-10.165-5.8542 0.19483-12.087 0.1934-12.088 10.152-5.8834 10.152-5.8834 10.152 5.8834 10.152 5.8834 0.12938 7.9914a369.04 368.79 0 0 0 3.3938 -5.5316l0.0389-2.4598 2.2805-1.321a369.04 368.79 0 0 0 3.7724 -6.149c-4.4339 2.5794-8.1197 4.6708-8.2877 4.6708-0.19596 0-4.8445-2.6331-10.33-5.8514l-9.9741-5.8514-0.1934-12.094-0.19483-12.094 10.333-5.939 10.334-5.9376 10.36 5.9473 10.358 5.9487-0.096 6.021a369.04 368.79 0 0 0 2.8832 -5.9654v-0.0751l0.0513-0.0292a369.04 368.79 0 0 0 1.9299 -4.3107c-2.0328 1.1348-3.4032 1.8784-3.4759 1.8717-0.13973-0.0129-4.8165-2.6561-10.393-5.8736l-10.14-5.85 0.0142-12.103 0.0142-12.103 10.303-5.8848 10.304-5.8848 10.304 5.8848 6.0502 3.4555a369.04 368.79 0 0 0 0.67073 -2.624c-1.7134-0.95507-3.6697-2.0638-5.8206-3.3178l-9.8113-5.7207 0.1934-12.075 0.19483-12.074 9.6179-5.6094c5.2898-3.0855 10.099-5.6108 10.686-5.6108 0.33304 0 2.0927 0.85949 4.4554 2.1234a369.04 368.79 0 0 0 0.45786 -3.0244l-3.1322-1.8258-0.19473-12.062-0.19349-12.06 7.1577-4.1285a369.04 368.79 0 0 0 0.16139 -3.2288c-4.5634 2.5793-8.3895 4.7055-8.609 4.7654-0.2523 0.0688-5.0144-2.4943-10.583-5.6956l-10.126-5.8208-0.0152-12.103-0.0161-12.103 10.321-5.9362 10.319-5.9362 9.4899 5.4593a369.04 368.79 0 0 0 -0.11409 -3.2052l-7.9842-4.5999 0.19473-12.064 0.19349-12.066 4.6474-2.6935a369.04 368.79 0 0 0 -0.3715 -3.0564c-3.3438 1.8405-5.8949 3.1348-6.2366 3.1176-0.48844-0.0247-5.2972-2.6209-10.685-5.7694l-9.796-5.7249v-23.912l9.9769-5.7694c3.4083-1.971 6.4139-3.6331 8.4017-4.675a369.04 368.79 0 0 0 -0.67348 -3.0022l-9.0404 5.241c-5.6187 3.2569-10.267 5.8935-10.33 5.8597-0.0636-0.0338-4.6038-2.6973-10.09-5.9195l-9.9741-5.8583-0.1934-12.071-0.19473-12.071 10.347-5.9404 10.346-5.9418 8.8873 5.1033a369.04 368.79 0 0 0 -1.2898 -3.8796l-6.149-3.5528 0.0133-10.649a369.04 368.79 0 0 0 -3.1474 -7.0278l0.0817 5.5955 0.1781 12.081-10.254 5.8736c-5.64 3.2305-10.369 5.8673-10.508 5.8597-0.13973-8e-3 -4.8172-2.6512-10.394-5.8736l-10.141-5.8597 0.0152-12.103 0.0152-12.103 10.302-5.8834 10.302-5.8848 10.154 5.9056 6.3521 3.6947a369.04 368.79 0 0 0 -1.8952 -4.2328c-1.0869-0.61961-2.2192-1.2698-3.405-1.9634l-9.8113-5.7388 0.1934-12.064 0.0513-3.1482a369.04 368.79 0 0 0 -3.3688 -5.8681l0.14477 9.0051 0.19473 12.08-10.123 5.8041c-5.5673 3.1921-10.464 5.7737-10.881 5.7374-0.41729-0.0364-5.1742-2.6487-10.571-5.8055l-9.8113-5.7401 0.1934-12.063 0.19483-12.064 9.6179-5.6067c5.2898-3.0839 10.099-5.5995 10.686-5.59 0.58771 0.01 5.3967 2.5262 10.686 5.5927l7.0478 4.0854a369.04 368.79 0 0 0 -3.86 -5.405c-0.81635-0.46213-1.6179-0.9126-2.4754-1.4128l-9.6178-5.6108-0.16281-10.106a369.04 368.79 0 0 0 -3.1641 -4.4219l-0.0408 2.4821-0.19482 12.035-9.6179 5.6066c-5.2898 3.0839-10.099 5.6116-10.686 5.6164-0.58771 5e-3 -5.3967-2.5156-10.686-5.6011l-9.6179-5.6108-0.19482-12.067-0.1934-12.067 10.119-5.8347c5.5656-3.2094 10.472-5.7432 10.902-5.6303 0.23805 0.0625 1.8657 0.93832 4.1257 2.1984a369.04 368.79 0 0 0 -5.9235 -6.7399v1.8995l-9.9922 5.6956c-5.4954 3.1326-10.212 5.7567-10.483 5.8319-0.2711 0.0752-5.0495-2.4878-10.618-5.6956l-10.126-5.8319-0.0143-12.103-0.0152-12.103 10.287-5.9001 1.0366-0.59375a369.04 368.79 0 0 0 -2.1679 -1.9231l-0.11693 0.0667c-5.6123 3.2228-10.351 5.8583-10.529 5.8583-0.17839 0-4.8987-2.6343-10.489-5.8542l-10.069-5.8 0.16272-10.827 0.10022-6.6384a369.04 368.79 0 0 0 -3.4021 -2.0844l0.12796 8.0067 0.0988 6.1643v5.3953l-11.043 6.3325-9.6374 5.5246c-1.3578-0.52486-5.6337-2.7886-10.443-5.5524l-10.167-5.8444 0.1934-12.078 0.19483-12.08 10.187-5.8722 7.2969-4.205a369.04 368.79 0 0 0 -2.7036 -1.6575l-5.8358 3.3874c-5.4642 3.1726-10.353 5.7481-10.865 5.7234-0.51124-0.0246-5.3377-2.6209-10.725-5.7693l-9.7962-5.7235v-15.119a369.04 368.79 0 0 0 -2.8497 -1.0401v16.161l-9.9351 5.768c-5.4642 3.1726-10.353 5.7481-10.865 5.7234-0.51134-0.0246-5.3377-2.6209-10.726-5.7693l-9.7959-5.7235v-23.913l7.0074-4.052a369.04 368.79 0 0 0 -3.7221 -0.94974c-2.5912 1.4785-4.5912 2.594-4.7102 2.5878-0.19588-0.01016-4.8445-2.6464-10.33-5.8583l-1.717-1.0054a369.04 368.79 0 0 0 -14.762 -3.1426l-7.2732 4.2161c-5.6186 3.2569-10.268 5.8882-10.33 5.8472-0.0627-0.04101-4.6025-2.7035-10.088-5.9154l-9.974-5.8389-0.0532-3.2747a369.04 368.79 0 0 0 -3.4536 -0.17243l-0.056 3.4319-10.216 5.9223c-5.6186 3.2569-10.268 5.8882-10.33 5.8472-0.0627-0.04101-4.6024-2.7035-10.088-5.9154l-9.9741-5.8389zm-45.884 6.8123c0.38927 0 5.1966 2.5963 10.684 5.7693l9.9768 5.7693v23.913l-9.9768 5.7694c-5.487 3.1731-10.376 5.7481-10.865 5.7234-0.48854-0.0246-5.2959-2.6209-10.684-5.7693l-9.7959-5.7235v-23.913l9.9768-5.7693c5.487-3.1731 10.294-5.7693 10.684-5.7693zm44.213 0c0.41207 0 5.2194 2.5968 10.684 5.7693l9.9351 5.768v23.916l-9.9351 5.768c-5.4643 3.1726-10.353 5.7481-10.865 5.7234-0.51124-0.0246-5.3377-2.6209-10.726-5.7693l-9.7959-5.7235v-23.913l9.9768-5.7693c5.487-3.1731 10.314-5.7693 10.725-5.7693zm44.171 0c0.41207 0 5.2194 2.5968 10.684 5.7693l9.9351 5.768v23.916l-9.9351 5.768c-5.4643 3.1726-10.353 5.7481-10.865 5.7234-0.51124-0.0246-5.3376-2.6209-10.725-5.7693l-9.796-5.7235v-23.913l9.9769-5.7693c5.487-3.1731 10.314-5.7693 10.726-5.7693zm44.171 0c0.41207 0 5.2195 2.5968 10.684 5.7693l9.9351 5.768v23.916l-9.9351 5.768c-5.4643 3.1726-10.353 5.7481-10.865 5.7234-0.51124-0.0246-5.3376-2.6209-10.725-5.7693l-9.796-5.7235v-23.913l9.9769-5.7693c5.487-3.1731 10.313-5.7693 10.725-5.7693zm-154.64 37.807 10.152 5.8848 10.152 5.8848 0.19473 12.07 0.1935 12.07-10.204 5.8584c-5.6123 3.2228-10.349 5.857-10.525 5.8542-0.17612-3e-3 -4.8964-2.6408-10.489-5.8625l-10.168-5.8584 0.1934-12.066 0.19483-12.066 10.152-5.8848zm44.171 0 10.152 5.8848 10.152 5.8848 0.19483 12.07 0.1934 12.07-10.204 5.8584c-5.6123 3.2228-10.349 5.857-10.525 5.8542-0.17601-3e-3 -4.8964-2.6408-10.489-5.8625l-10.167-5.8584 0.1934-12.066 0.19482-12.066 10.152-5.8848zm132.58 0.018 10.117 5.8625 10.117 5.8639 0.19473 12.092 0.1935 12.092-10.179 5.8486c-5.5986 3.2174-10.335 5.8417-10.525 5.8305-0.18998-0.0112-4.9214-2.6455-10.514-5.8542l-10.168-5.8347 0.1934-12.078 0.19483-12.08 10.187-5.8722zm44.171 0 10.117 5.8625 10.117 5.8639 0.19483 12.092 0.1934 12.092-10.179 5.8486c-5.5986 3.2174-10.335 5.8417-10.525 5.8305-0.18998-0.0112-4.9214-2.6455-10.514-5.8542l-10.167-5.8347 0.19341-12.078 0.19482-12.08 10.187-5.8722zm-309.32 0.0111 10.177 5.8653 10.177 5.8667 0.19482 12.081 0.19341 12.082-10.259 5.8514c-5.6425 3.2186-10.378 5.8487-10.524 5.8458-0.14601-3e-3 -4.8421-2.6408-10.435-5.8625l-10.167-5.8584 0.19342-12.066 0.1948-12.066 10.127-5.8695zm44.171 0 10.177 5.8653 10.177 5.8667 0.19483 12.081 0.1934 12.082-10.259 5.8514c-5.6424 3.2186-10.378 5.8487-10.524 5.8458-0.146-3e-3 -4.8422-2.6408-10.435-5.8625l-10.168-5.8584 0.1934-12.066 0.19483-12.066 10.127-5.8695zm132.61 0 10.128 5.8709 10.127 5.8695 0.19482 12.07 0.1934 12.07-10.204 5.8583c-5.6123 3.2228-10.349 5.8515-10.525 5.8403-0.17611-0.0112-4.8963-2.6455-10.489-5.8542l-10.167-5.8347 0.1934-12.078 0.19483-12.08 10.177-5.8653zm44.171 0 10.128 5.8709 10.127 5.8695 0.19483 12.07 0.1934 12.07-10.204 5.8583c-5.6123 3.2228-10.349 5.8515-10.525 5.8403-0.17611-0.0112-4.8963-2.6455-10.489-5.8542l-10.168-5.8347 0.1934-12.078 0.19483-12.08 10.177-5.8653zm154.92 38.044 9.8488 5.6053 10.386 5.9098-0.18362 12.081-0.18228 12.081-9.974 5.857c-5.4858 3.2208-10.134 5.8552-10.33 5.8556-0.19587 3.9e-4 -4.9117-2.6242-10.481-5.8333l-10.126-5.8347-0.01-2.6351 0.0114-8.225 0.018-12.815 11.019-6.3158zm-265.4 0.17242 10.321 5.9376 10.319 5.9362-0.0124 12.103-0.0123 12.103-10.027 5.6956c-5.5142 3.1323-10.232 5.752-10.485 5.8208-0.25229 0.0688-5.0158-2.4943-10.585-5.6956l-10.124-5.8208-0.0171-12.103-0.0152-12.103 10.319-5.9362zm-132.55 0.0195 10.347 5.9279 10.347 5.9265-0.17811 12.081-0.17811 12.082-9.974 5.8556c-5.4858 3.2208-10.134 5.8566-10.33 5.8569-0.19592 4e-4 -4.9131-2.6256-10.482-5.8347l-10.124-5.8347-0.0166-12.103-0.0153-12.103 10.302-5.9265zm44.171 0 10.347 5.9279 10.347 5.9265-0.17811 12.081-0.1781 12.082-9.974 5.8556c-5.4858 3.2208-10.134 5.8566-10.33 5.8569-0.19587 4e-4 -4.913-2.6256-10.482-5.8347l-10.124-5.8347-0.0171-12.103-0.0152-12.103 10.302-5.9265zm44.171 0 10.347 5.9279 10.347 5.9265-0.17811 12.081-0.17811 12.082-9.9741 5.8556c-5.4857 3.2208-10.134 5.8566-10.33 5.8569-0.19597 4e-4 -4.9131-2.6256-10.482-5.8347l-10.124-5.8347-0.0171-12.103-0.0152-12.103 10.302-5.9265zm88.407 0 10.302 5.9279 10.304 5.9265-0.0123 12.103-0.0124 12.103-9.9922 5.6956c-5.4954 3.1326-10.212 5.7571-10.483 5.8319-0.2711 0.0748-4.9823-2.4984-10.468-5.7179l-9.9741-5.8528-0.17811-12.082-0.17811-12.081 10.347-5.9265zm44.172 0 10.302 5.9279 10.302 5.9265-0.0124 12.103-0.0123 12.103-9.9922 5.6956c-5.4954 3.1326-10.214 5.7571-10.485 5.8319-0.27111 0.0748-4.9809-2.4984-10.467-5.7179l-9.974-5.8528-0.17811-12.082-0.1781-12.081 10.347-5.9265zm44.171 0 10.302 5.9279 10.302 5.9265-0.0124 12.103-0.0123 12.103-9.9921 5.6956c-5.4955 3.1326-10.214 5.7571-10.485 5.8319-0.2711 0.0748-4.9809-2.4984-10.467-5.7179l-9.974-5.8528-0.17811-12.082-0.17811-12.081 10.347-5.9265zm44.171 0 10.302 5.9279 10.302 5.9265-0.0123 12.103-0.0124 12.103-9.9922 5.6956c-5.4955 3.1326-10.214 5.7571-10.485 5.8319-0.27111 0.0748-4.9809-2.4984-10.467-5.7179l-9.974-5.8528-0.1781-12.082-0.17811-12.081 10.347-5.9265zm44.164 0 10.302 5.9279 10.266 5.9056-0.0152 10.86-0.018 12.836-11.009 6.281-9.8586 5.6247c-1.2867-0.57055-5.365-2.8257-10.032-5.5649l-9.9741-5.8528-0.17811-12.082-0.17811-12.081 10.347-5.9265zm22.321 38.17c0.43268 0.11341 5.1927 2.7516 10.578 5.8625l9.7918 5.6567-0.19483 12.035-0.19482 12.035-9.6178 5.6066c-5.2898 3.0839-10.099 5.6116-10.687 5.6164-0.58771 5e-3 -5.3966-2.5156-10.686-5.6011l-9.6179-5.6108-0.19473-12.113-0.12529-7.7495 0.0589-3.8226 11.016-6.3005 9.8113-5.6108c0.0199-2e-3 0.0503-8e-3 0.0627-5e-3zm44.175 9.5e-4c0.43031 0.11297 5.1885 2.7503 10.574 5.8611l9.7917 5.6567-0.19473 12.035-0.19483 12.035-9.6179 5.6067c-5.2898 3.0839-10.099 5.6116-10.686 5.6164-0.5878 5e-3 -5.3967-2.5156-10.686-5.6011l-9.6179-5.6108-0.19483-12.067-0.1934-12.067 10.119-5.8347c5.5656-3.2094 10.472-5.7432 10.902-5.6303zm-309.46 0.38101c0.30226 0 5.0816 2.6136 10.621 5.8083l10.071 5.8083-0.1935 12.06-0.19473 12.062-9.6179 5.6066c-5.2897 3.0839-10.099 5.6066-10.686 5.6066-0.5878 0-5.3967-2.5228-10.687-5.6066l-9.6178-5.6066-0.19483-12.062-0.19483-12.062 10.073-5.8069c5.5395-3.1943 10.319-5.8083 10.621-5.8083zm44.171 0c0.30226 0 5.0815 2.6136 10.621 5.8083l10.071 5.8083-0.1934 12.06-0.19483 12.062-9.6178 5.6066c-5.2898 3.0839-10.099 5.6066-10.686 5.6066-0.5878 0-5.3967-2.5228-10.687-5.6066l-9.6178-5.6066-0.19482-12.062-0.19483-12.062 10.073-5.8069c5.5395-3.1943 10.319-5.8083 10.621-5.8083zm-220.56 0.14739c0.4266 0.11445 5.1923 2.7317 10.589 5.8166l9.8126 5.6094-0.19478 12.091-0.19486 12.091-6.4119 3.6933c-3.5266 2.0311-8.1752 4.6686-10.33 5.8611l-3.7277 2.0622-8.9416-5.1144-11.018-6.3005-0.19343-12.874-0.17533-11.611 9.9059-5.7082c5.5579-3.2032 10.453-5.7308 10.88-5.6164zm44.171 0c0.42664 0.11445 5.1923 2.7317 10.589 5.8166l9.8126 5.6094-0.1948 12.096-0.19481 12.096-9.6178 5.5761c-5.2898 3.0666-10.099 5.5868-10.686 5.6011-0.58777 0.0143-5.3967-2.4975-10.686-5.583l-9.6178-5.6108-0.19478-12.081-0.19486-12.081 10.106-5.8236c5.5579-3.2032 10.453-5.7308 10.88-5.6164zm352.78 0c0.4267-0.11445 5.3234 2.4132 10.881 5.6164l10.012 5.7694-0.16281 10.852-0.19483 12.846-10.686 6.1962-9.9463 5.768-9.6957-5.5608-10.218-5.8597-0.19482-12.1-0.19483-12.1 9.8126-5.6094c5.3968-3.0849 10.161-5.7022 10.588-5.8166zm-44.171 9.5e-4c0.4267-0.11445 5.3234 2.4119 10.881 5.615l10.105 5.8236-0.1935 12.081-0.19473 12.082-9.6179 5.6094c-5.2898 3.0854-10.099 5.5987-10.686 5.5844-0.58771-0.0143-5.3968-2.5359-10.687-5.6025l-9.6178-5.5761-0.19483-12.096-0.19483-12.096 9.8127-5.608c5.3968-3.0849 10.161-5.7022 10.588-5.8166zm-264.42 9.5e-4c0.41881 0.11297 5.1769 2.7289 10.574 5.8138l9.8127 5.6094-0.19483 12.096-0.19482 12.096-9.6178 5.5761c-5.2898 3.0666-10.099 5.5832-10.687 5.5927-0.58771 0.01-5.3966-2.5061-10.686-5.59l-9.6179-5.6067-0.1948-12.062-0.19481-12.062 10.12-5.8347c5.5657-3.2094 10.462-5.7432 10.881-5.6303zm44.171 0c0.41891 0.11297 5.177 2.7289 10.574 5.8138l9.8126 5.6094-0.19473 12.096-0.19483 12.096-9.6179 5.5761c-5.2898 3.0666-10.099 5.5832-10.686 5.5927-0.5878 0.01-5.3967-2.5061-10.686-5.59l-9.6179-5.6067-0.19483-12.062-0.19473-12.062 10.12-5.8347c5.5657-3.2094 10.462-5.7432 10.881-5.6303zm131.9 2e-3c0.41881-0.11295 5.3157 2.4195 10.881 5.6289l10.119 5.8361-0.1934 12.06-0.19482 12.062-9.6178 5.6067c-5.2898 3.0839-10.099 5.5995-10.687 5.59-0.58781-0.01-5.3966-2.5261-10.686-5.5927l-9.6178-5.5761-0.19483-12.096-0.19482-12.096 9.8126-5.6081c5.3968-3.0849 10.155-5.7009 10.574-5.8138zm44.171 0c0.41891-0.11295 5.3156 2.4195 10.881 5.6289l10.119 5.8361-0.1934 12.06-0.19483 12.062-9.6178 5.6067c-5.2898 3.0839-10.099 5.5995-10.687 5.59-0.58771-0.01-5.3966-2.5261-10.686-5.5927l-9.6179-5.5761-0.19483-12.096-0.19473-12.096 9.8126-5.6081c5.3968-3.0849 10.155-5.7009 10.574-5.8138zm111.06 37.557 9.6957 5.5608 10.218 5.8597 0.19483 12.084 0.19482 12.084-10.123 5.8041c-5.5672 3.1921-10.464 5.7764-10.881 5.7429-0.41739-0.0335-5.1742-2.6408-10.571-5.793l-9.718-5.6762 0.16424-10.855 0.1934-12.847 10.686-6.1962zm43.78 0.25169c0.58781 0.0143 5.3967 2.5345 10.687 5.6011l9.6178 5.5761 0.19482 12.08 0.19473 12.08-10.123 5.8041c-5.5672 3.1921-10.464 5.7764-10.881 5.7429-0.4173-0.0335-5.1742-2.6408-10.571-5.793l-9.8113-5.7304 0.19341-12.084 0.19482-12.082 9.6179-5.6094c5.2898-3.0855 10.099-5.5987 10.686-5.5844zm44.171 9e-3c0.58771 9e-3 5.3967 2.5262 10.686 5.5928l9.6179 5.5761 0.19473 12.08 0.19483 12.08-10.123 5.8041c-5.5672 3.1921-10.464 5.7737-10.881 5.7374-0.41729-0.0363-5.1742-2.6487-10.571-5.8055l-9.8113-5.7401 0.1934-12.063 0.19483-12.064 9.6178-5.6067c5.2898-3.0839 10.099-5.5995 10.687-5.59zm-529.49 0.24752 2.9443 1.677 6.1795 3.5834 10.686 6.1963 0.19343 12.847 0.18088 11.934-9.7459 5.6067h-7e-3c-5.6156 3.2305-10.339 5.863-10.497 5.85-0.15794-0.0129-4.8553-2.6561-10.439-5.8736l-10.152-5.85 0.17811-12.081 0.17675-12.082 10.151-5.9028zm220.36 0.24892c0.5877 0 5.3966 2.5254 10.686 5.6108l9.6178 5.6094 0.19483 12.071 0.1934 12.071-10.122 5.8027c-5.5672 3.192-10.464 5.7684-10.881 5.7248-0.41729-0.0437-5.1742-2.6534-10.571-5.7999l-9.8126-5.7207 0.19483-12.075 0.19482-12.074 9.6178-5.6094c5.2898-3.0855 10.099-5.6108 10.687-5.6108zm-176.68 9e-3c0.58776 5e-3 5.3967 2.5325 10.687 5.6164l9.6178 5.6066 0.1948 12.02 0.19342 12.02-10.087 5.85c-5.5475 3.2171-10.443 5.8199-10.88 5.7846-0.16734-0.0135-1.1081-0.48574-2.3391-1.1361l-6.5094-3.7308-11.019-6.3158-0.0163-12.815-0.0164-11.763 9.4885-5.5344c5.2898-3.0855 10.099-5.6072 10.686-5.6025zm44.171 0c0.58776 5e-3 5.3967 2.5325 10.687 5.6164l9.6178 5.6066 0.19483 12.02 0.1934 12.02-10.087 5.85c-5.5475 3.2171-10.443 5.8196-10.88 5.7833-0.43693-0.0364-5.2104-2.6487-10.607-5.8055l-9.8127-5.7401 0.19481-12.07 0.1948-12.068 9.6178-5.6094c5.2898-3.0855 10.099-5.6072 10.686-5.6025zm44.171 0c0.58781 5e-3 5.3967 2.5325 10.687 5.6164l9.6178 5.6066 0.19482 12.066 0.1934 12.066-10.122 5.8027c-5.5673 3.192-10.464 5.7751-10.881 5.7388-0.4172-0.0364-5.1741-2.6487-10.571-5.8055l-9.8126-5.7401 0.19482-12.07 0.19473-12.068 9.6179-5.6105c5.2898-3.0855 10.099-5.6072 10.686-5.6025zm44.171 0c0.58771 5e-3 5.3967 2.5325 10.686 5.6164l9.6179 5.6066 0.19473 12.066 0.1935 12.066-10.122 5.8027c-5.5672 3.192-10.464 5.7684-10.881 5.7248-0.4173-0.0437-5.1742-2.6534-10.571-5.7999l-9.8127-5.7207 0.19482-12.075 0.19483-12.074 9.6178-5.6094c5.2898-3.0855 10.099-5.6072 10.687-5.6025zm88.342 0c0.58771-5e-3 5.3967 2.517 10.687 5.6025l9.6178 5.6094 0.19483 12.071 0.1934 12.071-10.122 5.8027c-5.5672 3.192-10.464 5.7684-10.881 5.7248-0.4173-0.0437-5.1742-2.6534-10.571-5.8l-9.8126-5.7207 0.19482-12.068 0.19483-12.07 9.6178-5.6066c5.2898-3.0839 10.099-5.6116 10.686-5.6164zm44.171 0c0.58771-5e-3 5.3967 2.5156 10.687 5.6011l9.6178 5.6108 0.19482 12.066 0.1934 12.067-10.071 5.8083c-5.5395 3.1943-10.436 5.776-10.881 5.7374-0.44503-0.0386-5.2245-2.6688-10.621-5.8458l-9.8113-5.7763 0.1935-12.023 0.19473-12.023 9.6179-5.6066c5.2898-3.0839 10.099-5.6116 10.686-5.6164zm44.171 0c0.5878-5e-3 5.3966 2.5156 10.686 5.6011l9.6179 5.6108 0.19483 12.066 0.1934 12.067-10.071 5.8083c-5.5395 3.1943-10.436 5.776-10.881 5.7374-0.44503-0.0386-5.2245-2.6688-10.621-5.8458l-9.8113-5.7763 0.1934-12.023 0.19483-12.023 9.6179-5.6066c5.2898-3.0839 10.099-5.6116 10.686-5.6164zm44.171 0c0.5878-5e-3 5.3966 2.5156 10.686 5.6011l9.6179 5.6108 0.19473 12.113 0.12529 7.7495-0.0589 3.8226-11.016 6.3005-9.8962 5.6595c-0.69827-0.19561-5.3104-2.7368-10.535-5.8124l-9.8113-5.7763 0.1934-12.023 0.19483-12.023 9.6179-5.6066c5.2898-3.0839 10.099-5.6116 10.686-5.6164zm66.192 37.154 10.154 5.9056 10.152 5.9056 0.1781 12.082 0.17811 12.081-10.254 5.8736c-5.64 3.2305-10.369 5.8673-10.508 5.8597-0.13973-8e-3 -4.8172-2.6512-10.394-5.8736l-10.141-5.8597 0.0152-12.103 0.0152-12.103 10.302-5.8834zm44.171 0 10.154 5.9056 10.152 5.9056 0.17811 12.082 0.17811 12.081-10.254 5.8736c-5.64 3.2305-10.369 5.8673-10.508 5.8597-0.13983-8e-3 -4.8172-2.6512-10.394-5.8736l-10.14-5.8597 0.0143-12.103 0.0152-12.103 10.302-5.8834zm44.171 0 10.154 5.9056 10.152 5.9056 0.17811 12.082 0.1781 12.081-10.254 5.8736c-5.64 3.2305-10.369 5.8673-10.508 5.8597-0.13973-8e-3 -4.8172-2.6512-10.394-5.8736l-10.141-5.8597 0.0152-12.103 0.0152-12.103 10.302-5.8834zm-132.02 0.28782 9.6624 5.6206 10.149 5.9028 0.17811 12.082 0.17811 12.081-10.254 5.8736c-5.64 3.2305-10.369 5.8673-10.508 5.8598-0.13973-8e-3 -4.8172-2.6512-10.394-5.8736l-10.099-5.8361 0.0152-10.863 0.019-12.836 11.008-6.2797zm-309.63 0.24196 10.304 5.8848 10.304 5.8848 0.0209 12.103 0.0209 12.103-10.013 5.6957c-5.5073 3.1326-10.233 5.7644-10.503 5.8486s-5.0517-2.4789-10.628-5.6956l-10.14-5.8486 0.0139-12.103 0.0125-12.103 10.304-5.8848zm44.171 0 10.304 5.8848 10.304 5.8848 0.0209 12.103 0.0209 12.103-10.013 5.6957c-5.5073 3.1326-10.233 5.7644-10.503 5.8486-0.26948 0.0842-5.0518-2.4789-10.628-5.6956l-10.14-5.8486 0.0143-12.103 0.0123-12.103 10.304-5.8848zm44.171 0 10.304 5.8848 10.302 5.8848 0.0152 12.103 0.0143 12.103-10.243 5.8736c-5.633 3.2305-10.355 5.8629-10.494 5.85-0.13973-0.0129-4.8166-2.6561-10.393-5.8736l-10.14-5.85 0.0143-12.103 0.0124-12.103 10.304-5.8848zm44.171 0 10.302 5.8848 10.304 5.8848 0.0143 12.103 0.0152 12.103-10.243 5.8736c-5.6329 3.2305-10.356 5.8629-10.496 5.85-0.13973-0.0129-4.8166-2.6561-10.393-5.8736l-10.138-5.85 0.0143-12.103 0.0123-12.103 10.304-5.8848zm44.171 0 10.302 5.8848 10.304 5.8848 0.0143 12.103 0.0152 12.103-10.243 5.8736c-5.6323 3.2302-10.355 5.8554-10.494 5.8333-0.13973-0.0221-4.8194-2.6653-10.398-5.8736l-10.144-5.8333 0.0181-12.103 0.018-12.103 10.304-5.8848zm44.171 0 10.302 5.8848 10.304 5.8848 0.0143 12.103 0.0152 12.103-10.243 5.8736c-5.6323 3.2302-10.355 5.8554-10.494 5.8333-0.13974-0.0221-4.8194-2.6653-10.398-5.8736l-10.144-5.8333 0.0181-12.103 0.0181-12.103 10.304-5.8848zm-265.03 9.5e-4 10.152 5.9056 10.154 5.9056 0.18506 12.082 0.18647 12.081-10.026 5.6956c-5.5143 3.1326-10.247 5.7698-10.517 5.8597-0.20213 0.0675-2.9459-1.3571-6.6596-3.4332l-2.5868-1.499-10.686-6.1935-0.19478-12.871-0.18089-12.013 9.8711-5.6359zm309.2 0 10.302 5.8848 10.302 5.8834 0.01 2.6351-0.0114 8.225-0.0162 12.815-11.02 6.3172-9.9963 5.7304c-0.93119-0.4747-5.0546-2.7969-10.08-5.6831l-10.158-5.8333 0.18362-12.081 0.18229-12.082 10.152-5.9056zm-396.95 0.37545 10.307 5.9223 10.305 5.9223-0.19342 12.094-0.19478 12.094-9.9741 5.8514c-5.4857 3.2183-10.134 5.8421-10.33 5.8319s-4.8446-2.6464-10.33-5.8584l-9.9741-5.8389-0.19342-12.085-0.19485-12.084 10.387-5.9251zm44.645 0.26698c0.11855 0.0519 1.3288 0.73147 2.6327 1.4656l5.9234 3.3804 11.008 6.2797 0.0193 12.836 0.0163 11.891-9.8252 5.7638c-5.4857 3.2183-10.134 5.8421-10.33 5.8319s-4.8445-2.6464-10.33-5.8584l-9.9741-5.8389-0.19342-12.085-0.19478-12.084 10.357-5.907c5.6962-3.2493 10.598-5.8034 10.891-5.6748zm418.42 37.148 10.387 5.9251 10.386 5.9251-0.1934 12.081-0.19483 12.081-10.265 5.9168c-5.6461 3.2545-10.295 5.892-10.33 5.8611-0.0352-0.0309-4.5538-2.6887-10.039-5.907l-9.974-5.8514-0.1935-12.094-0.19473-12.094 10.307-5.9223zm44.171 0 10.387 5.9251 10.386 5.9251-0.1934 12.081-0.19482 12.081-10.265 5.9168c-5.6461 3.2545-10.295 5.892-10.33 5.8611-0.0352-0.0309-4.5538-2.6887-10.039-5.907l-9.9741-5.8514-0.1934-12.094-0.19483-12.094 10.307-5.9223zm44.196 0.0139 10.375 5.9181 10.373 5.9181-0.1935 12.081-0.19473 12.081-10.265 5.9168c-5.646 3.2545-10.295 5.8908-10.33 5.857-0.0351-0.0338-4.5537-2.6987-10.039-5.9209l-9.974-5.8583-0.1934-12.071-0.19483-12.07 10.319-5.9265zm44.171 0 10.375 5.9181 10.373 5.9181-0.1934 12.081-0.19483 12.081-10.265 5.9168c-5.646 3.2545-10.295 5.8908-10.33 5.857-0.0361-0.0338-4.5538-2.6987-10.039-5.9209l-9.974-5.8583-0.1934-12.071-0.19482-12.07 10.319-5.9265zm-176.57 0.4547c1.4868 0.6252 5.5896 2.8 10.276 5.4732l10.357 5.9084-0.1934 12.081-0.19483 12.081-10.265 5.9168c-5.6461 3.2545-10.295 5.892-10.33 5.8611-0.0361-0.0308-4.5538-2.6887-10.039-5.907l-9.974-5.8514-0.19482-12.156-0.0988-6.2088v-5.3537l11.043-6.3311zm-176.68 0.0153 10.347 5.9459 10.346 5.946-0.1934 12.094-0.19483 12.094-9.974 5.8514c-4.9948 2.9302-9.1214 5.2717-9.9991 5.6859-0.94867-0.32815-5.7426-2.9048-11.225-6.0447l-2.0121-1.1514-7.3984-4.3412-0.19482-12.094-0.1934-12.094 10.346-5.946zm-132.54 0.0139 10.358 5.9487 10.36 5.9487-0.1934 12.084-0.19483 12.084-9.974 5.8514c-5.0382 2.9557-9.2033 5.3179-10.028 5.6984-0.88458-0.27158-5.7408-2.8854-11.272-6.078l-5.3683-3.0981-3.9657-2.3138-0.1948-12.123-0.0125-0.78566v-11.443l10.152-5.8347zm44.171 0 10.358 5.9487 10.359 5.9487-0.1934 12.084-0.19482 12.084-9.974 5.8514c-4.9948 2.9302-9.1215 5.2717-9.9992 5.6859-0.94867-0.32813-5.7425-2.9048-11.225-6.0447l-2.0121-1.1514-7.3984-4.3412-0.19473-12.094-0.19349-12.094 10.333-5.939zm44.171 0 10.358 5.9487 10.36 5.9487-0.1935 12.084-0.19473 12.084-9.9741 5.8514c-4.9947 2.9302-9.1214 5.2717-9.9991 5.6859-0.94867-0.32813-5.7425-2.9048-11.225-6.0447l-2.0121-1.1514-7.3984-4.3412-0.19483-12.094-0.1934-12.094 10.333-5.939zm88.392 0 10.334 5.939 10.333 5.939-0.1934 12.094-0.19483 12.094-9.974 5.8514c-4.9947 2.9302-9.1215 5.2717-9.9991 5.6859-0.94867-0.32813-5.7425-2.9048-11.225-6.0447l-2.012-1.1514-7.3984-4.3412-0.19483-12.084-0.1934-12.084 10.358-5.9487zm44.171 0 10.334 5.939 10.333 5.939-0.1934 12.094-0.19482 12.094-9.974 5.8514c-4.9618 2.9109-9.0602 5.2367-9.9769 5.6748-1.0555-0.3756-5.8274-2.9295-11.247-6.0335l-2.0121-1.1514-7.3984-4.3412-0.19473-12.084-0.1935-12.084 10.358-5.9487zm44.171 0 10.334 5.939 10.24 5.8848-0.16415 10.835-0.1934 12.872-10.687 6.1921-10.023 5.8083c-0.27329-0.13661-0.68327-0.35569-1.2941-0.69388-2.0257-1.2184-6.2823-3.7041-10.7-6.2352l-4.5779-2.6226-3.2644-1.9148-0.19483-12.084-0.1934-12.084 10.358-5.9487zm-397.02 0.67861c0.412 0 5.2195 2.5954 10.684 5.768l9.9352 5.768v23.916l-9.9352 5.768c-5.4642 3.1726-10.353 5.7495-10.865 5.7248-0.51125-0.0246-5.3376-2.6209-10.725-5.7693l-9.796-5.7238v-23.912l9.9768-5.7694c5.4869-3.1731 10.313-5.7693 10.725-5.7693zm44.171 0c0.41207 0 5.2195 2.5954 10.684 5.768l9.9352 5.768v23.916l-9.9352 5.768c-5.4642 3.1726-10.353 5.7495-10.865 5.7248-0.51124-0.0246-5.3376-2.6209-10.725-5.7693l-9.796-5.7238v-23.912l9.9768-5.7694c5.487-3.1731 10.313-5.7693 10.725-5.7693zm44.382 0.018c0.2314 5e-3 1.617 0.69676 3.6081 1.7743l5.2374 3.0036 8.0372 4.6082 2.9889 1.7437 0.1795 11.829v12.758l-0.78618 0.45889-6.5107 3.7294c-2.5565 1.4646-5.1454 2.9628-7.3038 4.2231-2.9998 1.6321-5.3149 2.7754-5.7036 2.7588-0.58783-0.025-5.4768-2.6044-10.865-5.7318l-9.796-5.6859v-23.983l10.049-5.7527c5.5271-3.1637 10.416-5.7434 10.865-5.7332zm374.59 37.397c0.41198 0 5.2385 2.5963 10.725 5.7693l9.9754 5.7694v23.912l-9.9754 5.7694c-5.487 3.1731-10.376 5.7545-10.865 5.736-0.48854-0.0185-5.2974-2.6147-10.685-5.7694l-9.7959-5.736v-23.915l9.9351-5.768c5.4642-3.1726 10.273-5.768 10.685-5.768zm44.171 0c0.41207 0 5.2385 2.5963 10.726 5.7693l9.9754 5.7694v23.912l-9.9754 5.7694c-5.487 3.1731-10.376 5.7545-10.865 5.736-0.48863-0.0185-5.2974-2.6147-10.685-5.7694l-9.796-5.736v-23.915l9.9352-5.768c5.4642-3.1726 10.273-5.768 10.685-5.768zm44.171 0c0.41207 0 5.2384 2.5963 10.726 5.7693l9.9754 5.7694v23.912l-9.9754 5.7694c-5.487 3.1731-10.376 5.7545-10.865 5.736-0.48854-0.0185-5.2972-2.6147-10.685-5.7694l-9.796-5.736v-23.915l9.9351-5.768c5.4644-3.1726 10.273-5.768 10.685-5.768zm44.171 0c0.41197 0 5.2384 2.5963 10.725 5.7693l9.9754 5.7694v23.912l-9.9754 5.7694c-5.487 3.1731-10.376 5.7545-10.865 5.736-0.48853-0.0185-5.2973-2.6147-10.685-5.7694l-9.7959-5.736v-23.915l9.9351-5.768c5.4643-3.1726 10.273-5.768 10.685-5.768zm44.171 0c0.41198 0 5.2385 2.5963 10.725 5.7693l9.9755 5.7694v23.912l-9.9755 5.7694c-5.4869 3.1731-10.376 5.7545-10.865 5.736-0.48854-0.0185-5.2974-2.6147-10.685-5.7694l-9.7959-5.7349v-23.916l9.9351-5.768c5.4642-3.1726 10.273-5.768 10.685-5.768zm-220.91 0.0682c0.86964 0.25084 5.4776 2.6912 10.705 5.6831l10.049 5.7527v23.98l-10.049 5.7526c-5.527 3.1637-10.416 5.7434-10.865 5.7332-0.44845-0.0102-5.1435-2.5418-10.433-5.6261l-9.3868-5.4732v-24.18l7.1493-4.0952c4.9877-2.8574 10.27-5.9406 11.74-6.8512zm-308.51 0.30732 10.147 5.8792 10.148 5.8806 0.19341 12.082 0.1948 12.082-10.204 5.8597c-5.6124 3.2228-10.351 5.8597-10.529 5.8597-0.17848 0-4.8987-2.6343-10.489-5.8542l-10.159-5.8514 0.0656-4.3649 0.12382-7.7564 0.19343-12.068 10.668-6.181 3.2449-1.88zm-88.303 0.0334 10.117 5.8625 10.117 5.8639 0.19478 12.092 0.19342 12.092-10.179 5.85c-5.5986 3.2174-10.335 5.8404-10.525 5.8291-0.18993-0.0112-4.92-2.6455-10.513-5.8542l-10.169-5.8347 0.19485-12.078 0.19342-12.08 10.187-5.8709zm44.171 0 10.117 5.8625 10.117 5.8639 0.19478 12.155 0.18231 11.373v0.71891l-11.043 6.3311-3.3034 1.8939c-3.1376 1.7524-5.712 3.1606-5.9791 3.2233-0.39184 0.092-5.2874-2.4622-10.88-5.6762l-10.169-5.8444 0.19485-12.078 0.19342-12.08 10.187-5.8709zm308.8 0.15991c0.56026 0.14776 3.2742 1.5665 6.8544 3.5626l3.6359 2.0941 10.158 5.85 0.12529 7.8496v16.546l-9.9156 5.6984c-5.5986 3.2174-10.335 5.8473-10.525 5.8444-0.18999-3e-3 -4.9214-2.6422-10.514-5.8639l-10.167-5.857 0.1934-12.078 0.19482-12.08 10.147-5.8806zm-176.71 0.0139c0.7035 0.22289 4.1354 2.0474 8.4156 4.4511l2.104 1.2181 10.152 5.8834 0.1934 12.082 0.19483 12.082-10.204 5.8597c-5.6124 3.2228-10.351 5.8597-10.529 5.8597-0.17849 0-4.8988-2.6343-10.489-5.8542l-10.163-5.8542 0.1934-12.088 0.19482-12.088 10.152-5.8834zm44.171 0c0.7035 0.22289 4.1354 2.0474 8.4156 4.4511l2.104 1.2181 10.152 5.8834 0.19483 12.092 0.1934 12.092-10.179 5.85c-5.5986 3.2174-10.337 5.85-10.529 5.85-0.19226 0-4.9238-2.6343-10.514-5.8542l-10.163-5.8542 0.19349-12.088 0.19474-12.088 10.152-5.8834zm44.171 0c0.70351 0.22289 4.1354 2.0474 8.4156 4.4511l2.1039 1.2181 10.152 5.8834 0.19482 12.092 0.1934 12.092-10.179 5.85c-5.5986 3.2174-10.335 5.8473-10.525 5.8444-0.18989-3e-3 -4.9214-2.6422-10.514-5.8639l-10.168-5.8569 0.19341-12.078 0.19482-12.08 10.152-5.8834zm44.171 0c0.70341 0.22289 4.1353 2.0474 8.4156 4.4511l2.1038 1.2181 10.152 5.8834 0.1934 12.092 0.19483 12.092-10.179 5.85c-5.5986 3.2174-10.335 5.8473-10.525 5.8444-0.18989-3e-3 -4.9215-2.6422-10.514-5.8639l-10.168-5.8569 0.1934-12.078 0.19483-12.08 10.152-5.8834zm-176.71 0.01c0.80438 0.26736 4.2954 2.116 8.5937 4.529l1.9481 1.1291 10.152 5.882 0.1934 12.082 0.19473 12.084-10.204 5.8597v-9.4e-4c-5.6123 3.2228-10.351 5.8597-10.529 5.8597s-4.8988-2.6343-10.489-5.8542l-10.163-5.8542 0.19342-12.088 0.19481-12.088 10.152-5.882zm507.77 37.214 10.152 5.8848 10.152 5.8848 0.19473 12.068 0.1935 12.07-10.204 5.8598c-5.6125 3.2228-10.349 5.857-10.525 5.8542-0.17601-3e-3 -4.895-2.6422-10.487-5.8639l-10.169-5.8583 0.19473-12.064 0.1935-12.066 10.152-5.8848zm-220.92 0.0166 10.187 5.8722 10.187 5.8709 0.19483 12.082 0.1934 12.081-10.258 5.8514c-5.6425 3.2186-10.539 5.8171-10.881 5.7735-0.34188-0.0436-5.0378-2.6548-10.435-5.8013l-9.1559-5.3383-0.018-12.334-0.0181-12.465 9.8864-5.7304zm44.171 0 10.187 5.8722 10.187 5.8709 0.19483 12.082 0.1934 12.081-10.258 5.8514c-5.6424 3.2186-10.381 5.8528-10.529 5.8528-0.14838 0-4.8444-2.6343-10.435-5.8542l-10.163-5.8556 0.19473-12.087 0.1935-12.088 10.117-5.8639zm44.171 0 10.187 5.8722 10.187 5.8709 0.19482 12.082 0.1934 12.081-10.258 5.8514c-5.6424 3.2186-10.381 5.8528-10.529 5.8528-0.14837 0-4.8444-2.6343-10.435-5.8542l-10.163-5.8556 0.19483-12.087 0.1934-12.088 10.117-5.8639zm44.192 0.0111 10.176 5.8667 10.177 5.8653 0.19473 12.082 0.1935 12.081-10.258 5.8514c-5.6424 3.2186-10.379 5.8487-10.525 5.8458-0.146-3e-3 -4.8407-2.6408-10.433-5.8625l-10.169-5.8584 0.19483-12.066 0.1934-12.064 10.127-5.8708zm44.171 0 10.176 5.8667 10.177 5.8653 0.19483 12.082 0.1934 12.081-10.258 5.8514c-5.6425 3.2186-10.379 5.8487-10.525 5.8458-0.14591-3e-3 -4.8406-2.6408-10.433-5.8625l-10.169-5.8584 0.19482-12.066 0.1934-12.064 10.127-5.8708zm-617.74 0.82182 10.302 5.9265 10.304 5.9279-0.01282 12.103-0.01349 12.103-9.9922 5.6956c-5.4955 3.1326-10.212 5.7571-10.483 5.8319-0.27108 0.0748-4.9823-2.4984-10.468-5.7179l-9.9741-5.8542-0.17811-12.081-0.17811-12.081 10.347-5.9279zm44.164 0 10.302 5.9265 10.302 5.9279 0.01 12.103 8e-3 9.108-8e-3 2.9952-2.4058 1.3725-7.6002 4.3232h-9e-3c-5.5072 3.1326-10.233 5.7571-10.503 5.8319-0.26944 0.0748-4.9781-2.4984-10.464-5.7179l-9.9741-5.8542-0.17811-12.081-0.17811-12.081 10.347-5.9279zm176.68 0.0181 10.318 5.9181 10.318 5.9168-0.0114 12.103-0.0114 12.103-9.9922 5.6957c-5.4955 3.1326-10.214 5.7581-10.485 5.8333-0.27111 0.0752-5.0494-2.4878-10.618-5.6956l-10.124-5.8333-0.0152-12.103-0.0143-12.103 10.318-5.9168zm44.171 0 10.318 5.9181 10.318 5.9168-0.0114 12.103-0.0114 12.103-9.9922 5.6957c-5.4948 3.1323-10.212 5.7581-10.483 5.8333-0.27111 0.0752-5.0495-2.4878-10.618-5.6956l-10.126-5.8333-0.0143-12.103-0.0142-12.103 10.318-5.9168zm132.61 0.0153 10.276 5.9098 9.3465 5.3744 0.18646 12.447 0.19065 12.587-9.4802 5.4036c-5.4955 3.1326-10.212 5.7571-10.483 5.8319-0.2711 0.0748-4.9824-2.4984-10.468-5.7179l-9.974-5.8528-0.18229-12.081-0.18228-12.082 10.384-5.9098zm-309.37 0.0166 10.357 5.8931 10.385 5.9098-0.18227 12.082-0.18229 12.081-9.9741 5.8556c-5.4857 3.2208-10.134 5.8566-10.33 5.857-0.19591 4e-4 -4.9131-2.6256-10.482-5.8347l-10.124-5.8347-0.0235-12.103-0.025-12.103 2.8887-1.6603 8.1192-4.6555zm44.179 6e-3 10.354 5.8987 10.354 5.8987-0.0152 12.103-0.0152 12.103-9.9922 5.6957c-5.4954 3.1326-10.214 5.7581-10.485 5.8333-0.27111 0.0752-5.0494-2.4878-10.618-5.6956l-10.124-5.8333-0.0153-12.103-0.0139-12.103 10.286-5.8987zm44.171 0 10.354 5.8987 10.354 5.8987-0.0152 12.103-0.0152 12.103-9.9922 5.6957c-5.4954 3.1326-10.214 5.7581-10.485 5.8333-0.2711 0.0752-5.0494-2.4878-10.618-5.6956l-10.124-5.8333-0.0152-12.103-0.0143-12.103 10.286-5.8987zm132.64 0 10.286 5.8987 10.286 5.8987-0.0114 12.103-0.0114 12.103-9.9922 5.6957c-5.4948 3.1323-10.212 5.7581-10.483 5.8333-0.2712 0.0752-5.0495-2.4878-10.618-5.6956l-10.124-5.8333-0.019-12.103-0.0199-12.103 10.354-5.8987zm44.171 0 10.286 5.8987 10.286 5.8987-0.0114 12.103-0.0114 12.103-9.9922 5.6957c-5.4949 3.1323-10.212 5.7581-10.483 5.8333-0.27119 0.0752-5.0494-2.4878-10.618-5.6956l-10.124-5.8333-0.019-12.103-0.0199-12.103 10.354-5.8987zm109.74 37.36 10.347 5.9265 10.347 5.9265-0.17811 12.082-0.17811 12.081-9.974 5.8556c-5.4857 3.2208-10.134 5.8559-10.33 5.8556-0.19587-3.8e-4 -4.9209-2.6266-10.5-5.8347l-9.2213-5.3035-0.19055-12.537-0.18789-12.509 9.7639-5.6164zm44.171 0 10.347 5.9265 10.347 5.9265-0.17811 12.082-0.1781 12.081-9.974 5.8556c-5.4858 3.2208-10.134 5.8566-10.33 5.857-0.19588 4e-4 -4.9117-2.6256-10.481-5.8347l-10.126-5.8347-0.0171-12.103-0.0152-12.103 10.302-5.9265zm44.171 0 10.347 5.9265 10.347 5.9265-0.17811 12.082-0.17811 12.081-9.9741 5.8556c-5.4857 3.2208-10.134 5.8566-10.33 5.857-0.19596 4e-4 -4.9117-2.6256-10.481-5.8347l-10.126-5.8347-0.0171-12.103-0.0152-12.103 10.302-5.9265zm44.171 0 10.347 5.9265 10.347 5.9265-0.1781 12.082-0.17811 12.081-9.9741 5.8556c-5.4857 3.2208-10.134 5.8566-10.33 5.857-0.19597 4e-4 -4.9117-2.6256-10.481-5.8347l-10.126-5.8347-0.0171-12.103-0.0152-12.103 10.303-5.9265zm44.171 0 10.347 5.9265 10.347 5.9265-0.17811 12.082-0.17811 12.081-9.974 5.8556c-5.4857 3.2208-10.134 5.8566-10.33 5.857-0.19596 4e-4 -4.9117-2.6256-10.481-5.8347l-10.126-5.8347-0.0171-12.103-0.0152-12.103 10.302-5.9265zm-662.26 1.2848c0.42667-0.11446 5.322 2.4133 10.88 5.6164l10.106 5.8236-0.19478 12.081-0.19478 12.081-9.6178 5.6094c-5.2899 3.0855-10.099 5.5987-10.686 5.5844-0.58776-0.0143-5.3968-2.5345-10.686-5.6011l-9.6178-5.5749-0.19485-12.096-0.19342-12.096 9.8113-5.6094c5.3968-3.0849 10.163-5.7022 10.589-5.8166zm44.171 0c0.42668-0.11446 5.322 2.4119 10.88 5.615l10.102 5.8222-0.0598 4.0048-0.1308 8.1374-0.19343 12.046-10.667 6.1851-9.5274 5.5246-10.198-5.8486-10.218-5.8611-0.19478-12.1-0.19343-12.099 9.8113-5.6094c5.3968-3.0849 10.162-5.7022 10.589-5.8166zm44.807 2e-3c0.43267 0.11343 5.1926 2.7517 10.578 5.8625l9.7918 5.6553-0.19343 12.035-0.19478 12.035-9.6178 5.6067c-5.2898 3.0838-10.099 5.6116-10.686 5.6164-0.58784 5e-3 -5.3967-2.5156-10.686-5.6011l-9.6178-5.6094-0.19485-12.114-0.17113-10.677 0.0206-1.4253 11.018-6.3005 2.424-1.3864c4.0349-2.2192 7.1893-3.7869 7.5306-3.6974zm352.72 0c0.43268-0.11342 5.3374 2.3986 10.901 5.583l9.4815 5.4273 0.0171 12.372 0.0162 12.342-9.4064 5.4857c-5.2898 3.0855-10.099 5.6058-10.686 5.6011-0.58771-5e-3 -5.3968-2.5311-10.687-5.615l-9.6178-5.608-0.19483-12.035-0.1934-12.035 9.7904-5.6553c5.3853-3.1108 10.147-5.7491 10.579-5.8625zm-308.55 2e-3c0.43026 0.11298 5.1884 2.7503 10.574 5.8611l9.7918 5.6553-0.19341 12.035-0.1948 12.035-9.6178 5.6066c-5.2898 3.0839-10.099 5.6116-10.686 5.6164-0.58775 5e-3 -5.3967-2.5156-10.686-5.6011l-9.6178-5.6094-0.19486-12.067-0.19477-12.067 10.12-5.8361c5.5656-3.2094 10.471-5.7419 10.901-5.6289zm44.171 0c0.43031 0.11298 5.1885 2.7503 10.574 5.8611l9.7917 5.6553-0.1934 12.035-0.19473 12.035-9.6179 5.6066c-5.2898 3.0839-10.099 5.6116-10.686 5.6164-0.5878 5e-3 -5.3967-2.5156-10.687-5.6011l-9.6178-5.6094-0.19481-12.067-0.19481-12.067 10.12-5.8361c5.5656-3.2094 10.471-5.7419 10.901-5.6289zm176.05 0c0.41882-0.11295 5.3157 2.4195 10.881 5.6289l10.119 5.8361-0.1935 12.067-0.19473 12.067-9.6179 5.6094c-5.2898 3.0855-10.099 5.6058-10.686 5.6011-0.5878-5e-3 -5.3967-2.5311-10.687-5.615l-9.6178-5.608-0.19483-12.082-0.19482-12.081 9.8127-5.6094c5.3968-3.0849 10.155-5.7009 10.574-5.8139zm44.15 0c0.43031-0.11295 5.3364 2.4195 10.902 5.6289l10.119 5.8361-0.1934 12.067-0.19483 12.067-9.6178 5.6094c-5.2898 3.0855-10.099 5.6058-10.686 5.6011-0.58771-5e-3 -5.3967-2.5311-10.687-5.615l-9.6178-5.608-0.19482-12.035-0.1934-12.035 9.7904-5.6553c5.3854-3.1109 10.143-5.7482 10.574-5.8611zm-176.36 0.20441c0.5877 0 5.4845 2.5245 10.881 5.6094l9.8126 5.6094-0.19483 12.081-0.19483 12.082-9.6178 5.6066c-5.2898 3.0839-10.099 5.6116-10.686 5.6164-0.58781 5e-3 -5.3967-2.5156-10.687-5.6011l-9.6178-5.6094-0.19482-12.088-0.19483-12.088 9.8126-5.6094c5.3968-3.0849 10.294-5.6094 10.881-5.6094zm44.171 0c0.5878 0 5.4845 2.5245 10.881 5.6094l9.8127 5.6094-0.19482 12.088-0.19483 12.088-9.6178 5.6094c-5.2898 3.0855-10.099 5.6094-10.687 5.6094-0.58771 0-5.3967-2.524-10.686-5.6094l-9.6179-5.6094-0.19474-12.088-0.19482-12.088 9.8126-5.6094c5.3968-3.0849 10.294-5.6094 10.881-5.6094zm44.171 0c0.58771 0 5.4845 2.5245 10.881 5.6094l9.8126 5.6094-0.19473 12.088-0.19482 12.088-9.6179 5.6094c-5.2898 3.0855-10.099 5.6058-10.686 5.6011-0.5878-5e-3 -5.3966-2.5325-10.686-5.6164l-9.6179-5.6066-0.19482-12.082-0.19474-12.081 9.8126-5.6094c5.3968-3.0849 10.293-5.6094 10.881-5.6094zm374.87 37.059c0.30235 0 5.0816 2.6137 10.621 5.8083l10.073 5.8083-0.19493 12.062-0.19473 12.06-9.6179 5.608v-2e-3c-5.2898 3.0839-10.099 5.608-10.687 5.608-0.58771 0-5.3966-2.5242-10.686-5.608l-9.6178-5.6066-0.19483-12.062-0.1934-12.06 10.071-5.8083c5.5395-3.1943 10.319-5.8083 10.621-5.8083zm-176.39 0.14739c0.4267 0.11446 5.1909 2.7331 10.588 5.818l9.8126 5.608-0.19482 12.091-0.19483 12.091-6.4119 3.6933c-3.5265 2.0311-8.1752 4.6686-10.33 5.8611l-3.9184 2.1678-9.974-5.8027-9.718-5.6539-0.18789-12.407-0.18362-12.184 9.8321-5.6664c5.5579-3.2031 10.455-5.7308 10.881-5.6164zm44.171 0c0.4266 0.11446 5.1909 2.7331 10.588 5.818l9.8126 5.608-0.19473 12.096-0.19482 12.096-9.6178 5.5761c-5.2898 3.0666-10.099 5.5868-10.687 5.6011-0.5877 0.0143-5.3967-2.4976-10.686-5.583l-9.6179-5.6108-0.19482-12.081-0.19341-12.081 10.105-5.8236c5.5579-3.2031 10.455-5.7308 10.881-5.6164zm44.185 3e-3c0.41891 0.11297 5.177 2.7304 10.574 5.8152l9.8126 5.608-0.19483 12.096-0.19473 12.096-9.6179 5.576c-5.2898 3.0666-10.099 5.5832-10.686 5.5928-0.5878 0.01-5.3967-2.5061-10.687-5.59l-9.6178-5.6066-0.19483-12.062-0.1934-12.062 10.119-5.8347c5.5656-3.2094 10.462-5.7432 10.881-5.6303zm44.171 0c0.41891 0.11297 5.177 2.7304 10.574 5.8152l9.8126 5.608-0.19482 12.096-0.19483 12.096-9.6178 5.576c-5.2898 3.0666-10.099 5.5832-10.686 5.5928-0.58781 0.01-5.3967-2.5061-10.687-5.59l-9.6178-5.6066-0.19482-12.062-0.1934-12.062 10.119-5.8347c5.5656-3.2094 10.462-5.7432 10.881-5.6303zm-176.27 0.37545 10.087 5.8138 9.8321 5.6678 0.18646 12.399 0.18371 12.183-9.7793 5.6372c-5.5291 3.1866-10.426 5.7573-10.881 5.7137-0.45539-0.0436-5.2438-2.6534-10.641-5.7999l-9.8126-5.7207 0.19482-12.087 0.19473-12.088 10.218-5.8597zm-397.78 0.0111 10.198 5.8486 10.218 5.8611 0.19478 12.082 0.19342 12.084-10.122 5.8041c-5.5672 3.1921-10.464 5.7764-10.881 5.7429-0.41727-0.0334-5.1742-2.6394-10.571-5.7916l-9.8098-5.7304 0.06127-3.9714 0.1308-8.1708 0.19342-12.048 10.667-6.1865zm-44.08 0.52216c0.58776-5e-3 5.3966 2.5156 10.686 5.6011l9.6178 5.6094 0.19478 12.113 0.17113 10.682-0.02061 1.4225-11.018 6.3005-2.9527 1.6881c-3.7448 2.062-6.5953 3.5026-6.9323 3.4736-0.44848-0.0386-5.23-2.6702-10.627-5.8472l-9.8127-5.7763 0.19484-12.023 0.19343-12.023 9.6178-5.6066c5.2897-3.0839 10.099-5.6102 10.686-5.615zm220.88 9e-3c0.5878 0 5.3967 2.5228 10.687 5.6067l9.6178 5.6066 0.19483 12.062 0.1934 12.062-10.071 5.8083c-5.5395 3.1943-10.436 5.7779-10.881 5.7415-0.44503-0.0364-5.2243-2.6487-10.621-5.8055l-9.8126-5.7402 0.19483-12.063 0.19482-12.064 9.6178-5.6066c5.2898-3.0839 10.099-5.6067 10.686-5.6067zm44.171 0c0.5877 0 5.3968 2.5228 10.687 5.6067l9.6178 5.6066 0.19482 12.062 0.1934 12.062-10.071 5.8083c-5.5395 3.1943-10.436 5.7779-10.881 5.7415-0.44504-0.0364-5.2243-2.6487-10.621-5.8055l-9.8126-5.7402 0.19482-12.063 0.19473-12.064 9.6179-5.6066c5.2898-3.0839 10.099-5.6067 10.686-5.6067zm-176.68 9e-3c0.58769 0.0143 5.3967 2.5359 10.686 5.6025l9.6178 5.576 0.19481 12.078 0.19342 12.08-10.122 5.8041c-5.5672 3.1921-10.464 5.7764-10.881 5.7429-0.41728-0.0335-5.1742-2.6394-10.571-5.7916l-9.8126-5.7318 0.19478-12.082 0.19485-12.084 9.6178-5.6094c5.2897-3.0854 10.099-5.5987 10.686-5.5844zm309.2 0c0.5878-0.0143 5.3967 2.4989 10.687 5.5844l9.6178 5.6094 0.19483 12.081 0.1934 12.081-10.052 5.7944c-5.5291 3.1866-10.426 5.7573-10.881 5.7137-0.45538-0.0436-5.2438-2.6534-10.641-5.7999l-9.8126-5.7207 0.19483-12.082 0.19482-12.084 9.6178-5.5761c5.2898-3.0666 10.099-5.5868 10.686-5.6011zm-88.342 9e-3c0.58771-9e-3 5.3966 2.5061 10.686 5.59l9.6179 5.6066 0.19473 12.062 0.1935 12.062-10.071 5.8083c-5.5395 3.1943-10.436 5.7712-10.881 5.7276-0.44503-0.0436-5.2243-2.6534-10.621-5.7999l-9.8126-5.7207 0.19473-12.082 0.19483-12.084 9.6179-5.5761c5.2898-3.0666 10.099-5.5832 10.686-5.5928zm44.171 0c0.5878-9e-3 5.3966 2.5061 10.686 5.59l9.6179 5.6066 0.19473 12.062 0.1934 12.062-10.071 5.8083c-5.5395 3.1943-10.436 5.7712-10.881 5.7276-0.44493-0.0436-5.2244-2.6534-10.621-5.7999l-9.8126-5.7207 0.19483-12.082 0.19483-12.084 9.6178-5.5761c5.2898-3.0666 10.099-5.5832 10.687-5.5928zm-220.85 2e-3c0.58776 0.01 5.3967 2.5262 10.686 5.5928l9.6179 5.576 0.19474 12.078 0.19349 12.08-10.122 5.8041c-5.5672 3.192-10.464 5.7737-10.881 5.7374-0.41732-0.0364-5.1742-2.6487-10.571-5.8055l-9.8126-5.7401 0.1948-12.063 0.19481-12.063 9.6178-5.6081c5.2898-3.0838 10.099-5.5981 10.686-5.5886zm44.171 0c0.58771 0.01 5.3966 2.5262 10.686 5.5928l9.6178 5.576 0.19482 12.078 0.1934 12.08-10.122 5.8041c-5.5672 3.192-10.464 5.7737-10.881 5.7374-0.41729-0.0364-5.1742-2.6487-10.571-5.8055l-9.8126-5.7401 0.19483-12.063 0.19483-12.063 9.6178-5.6081c5.2898-3.0838 10.099-5.5981 10.687-5.5886zm330.69 37.389c0.5878 5e-3 5.3967 2.5311 10.687 5.615l9.6178 5.6066 0.19482 12.02 0.1934 12.02-10.085 5.85c-5.5476 3.2171-10.444 5.8199-10.881 5.7846-0.43686-0.0351-5.2102-2.627-10.607-5.7596l-9.1768-5.3272-0.018-12.38-0.0171-12.342 9.4064-5.4857c5.2898-3.0855 10.099-5.6058 10.686-5.6011zm44.171 0c0.5878 5e-3 5.3967 2.5311 10.686 5.615l9.6179 5.6066 0.19483 12.02 0.1934 12.02-10.085 5.85c-5.5475 3.2171-10.444 5.8196-10.881 5.7833-0.43686-0.0364-5.2104-2.6487-10.607-5.8055l-9.8113-5.7402 0.1934-12.068 0.19483-12.07 9.6179-5.6094c5.2897-3.0855 10.099-5.6058 10.686-5.6011zm44.171 0c0.5877 5e-3 5.3966 2.5311 10.686 5.615l9.6179 5.6066 0.19473 12.066 0.19483 12.066-10.123 5.8041c-5.5672 3.192-10.464 5.7737-10.881 5.7374-0.41729-0.0364-5.1742-2.6487-10.571-5.8055l-9.8113-5.7402 0.1934-12.068 0.19483-12.07 9.6178-5.6094c5.2898-3.0855 10.099-5.6058 10.687-5.6011zm44.171 0c0.58771 5e-3 5.3966 2.5311 10.686 5.615l9.6178 5.6066 0.19483 12.066 0.19482 12.066-10.123 5.8041c-5.5672 3.192-10.464 5.767-10.881 5.7235-0.4173-0.0437-5.1742-2.6534-10.571-5.7999l-9.8112-5.7207 0.19341-12.075 0.19482-12.074 9.6178-5.6094c5.2898-3.0855 10.099-5.6058 10.687-5.6011zm-573.64 0.26976 10.152 5.9056 10.154 5.9056 0.17811 12.081 0.17811 12.082-10.254 5.8736c-5.64 3.2305-10.369 5.8659-10.508 5.8584-0.13978-8e-3 -4.8172-2.6512-10.394-5.8736l-10.141-5.8593 0.0157-12.103 0.0136-12.103 10.302-5.8848zm44.171 0 10.152 5.9056 10.154 5.9056 0.1781 12.081 0.17811 12.082-10.254 5.8736c-5.6399 3.2305-10.369 5.8659-10.508 5.8584-0.13975-8e-3 -4.8172-2.6512-10.394-5.8736l-10.141-5.8583 0.015-12.103 0.0135-12.103 10.302-5.8848zm44.171 0 10.152 5.9056 10.154 5.9056 0.17811 12.081 0.17811 12.082-10.254 5.8736c-5.64 3.2305-10.369 5.8659-10.508 5.8584-0.13973-8e-3 -4.8172-2.6512-10.394-5.8736l-10.141-5.8583 0.0153-12.103 0.0139-12.103 10.302-5.8848zm44.171 0 10.152 5.9056 10.154 5.9056 0.17811 12.081 0.17811 12.082-10.254 5.8736c-5.64 3.2305-10.369 5.8659-10.508 5.8584-0.13974-8e-3 -4.8172-2.6512-10.394-5.8736l-10.141-5.8583 0.0152-12.103 0.0143-12.103 10.302-5.8848zm88.345 0 10.302 5.8834 10.302 5.8848 0.0171 12.103 0.0152 12.103-10.211 5.8736c-5.6156 3.2305-10.339 5.863-10.497 5.85-0.15806-0.013-4.8554-2.6561-10.439-5.8736l-10.152-5.85 0.17811-12.082 0.17678-12.081 10.154-5.9056zm44.171 0 10.302 5.8834 10.302 5.8848 0.0152 12.103 0.0171 12.103-10.211 5.8736c-5.6156 3.2305-10.339 5.863-10.497 5.85-0.15797-0.013-4.8554-2.6561-10.439-5.8736l-10.152-5.85 0.1781-12.082 0.17669-12.081 10.154-5.9056zm44.171 0 10.302 5.8834 10.302 5.8848 0.0161 12.103 0.0152 12.103-10.211 5.8736c-5.6156 3.2305-10.339 5.863-10.497 5.85-0.15797-0.013-4.8554-2.6561-10.439-5.8736l-10.152-5.85 0.17811-12.082 0.17668-12.081 10.154-5.9056zm44.171 0 10.302 5.8834 10.302 5.8848 0.0171 12.103 0.0152 12.103-10.211 5.8736c-5.6156 3.2305-10.339 5.863-10.497 5.85s-4.8554-2.6561-10.439-5.8736l-10.152-5.85 0.17811-12.082 0.17668-12.081 10.154-5.9056zm-397.53 3e-3 10.151 5.9042 10.149 5.9042 0.17811 12.081 0.17811 12.082-10.254 5.8736c-5.64 3.2305-10.369 5.8659-10.508 5.8584-0.13978-8e-3 -4.8172-2.6512-10.394-5.8736l-10.141-5.8583v-12.103l-0.0076-12.103 10.325-5.8834zm441.69 0 10.323 5.882 9.4077 5.3605 0.19065 12.53 0.18789 12.509-9.6722 5.5636h-0.01c-5.6156 3.2305-10.339 5.863-10.497 5.85-0.15797-0.013-4.8568-2.6561-10.44-5.8736l-10.151-5.85 0.17677-12.082 0.17811-12.081 10.149-5.9042zm-220.85 0.0431 10.304 5.8611 10.304 5.8611 0.0171 12.103 0.0152 12.103-10.211 5.8736c-5.6156 3.2305-10.339 5.8659-10.497 5.8584-0.15807-8e-3 -4.8506-2.6512-10.428-5.8736l-10.14-5.8584 0.0143-12.103 0.0152-12.103 10.304-5.8611zm330.7 37.367 10.304 5.8848 10.304 5.8848 0.0209 12.103 0.0218 12.103-10.013 5.6956c-5.5073 3.1326-10.235 5.7644-10.504 5.8486s-5.0517-2.4789-10.628-5.6956l-10.14-5.8486 0.0142-12.103 0.0143-12.103 10.302-5.8848zm44.171 0 10.304 5.8848 10.304 5.8848 0.0209 12.103 0.0218 12.103-10.013 5.6956c-5.5072 3.1326-10.235 5.7644-10.504 5.8486s-5.0518-2.4789-10.628-5.6956l-10.14-5.8486 0.0142-12.103 0.0142-12.103 10.303-5.8848zm-88.343 2e-3 10.154 5.9056 10.152 5.9056 0.18646 12.082 0.18504 12.081-10.026 5.6956c-5.5143 3.1326-10.247 5.7697-10.517 5.8597s-5.0564-2.4731-10.638-5.6956l-9.2199-5.323-0.18647-12.447-0.18922-12.586 9.7959-5.5941zm-308.61 0.88855 10.346 5.9418 10.347 5.9404-0.19483 12.07-0.1934 12.07-10.216 5.9209c-5.6186 3.2569-10.267 5.8949-10.33 5.8611-0.0627-0.0338-4.6025-2.6987-10.088-5.9209l-9.974-5.8583-0.19482-12.071-0.1934-12.071 10.346-5.9404zm44.171 0 10.346 5.9418 10.347 5.9404-0.19482 12.07-0.1934 12.07-10.216 5.9209c-5.6187 3.2569-10.268 5.8949-10.33 5.8611-0.0627-0.0338-4.6023-2.6987-10.088-5.9209l-9.9741-5.8583-0.19473-12.071-0.19349-12.071 10.346-5.9404zm-220.93 0.018 10.386 5.9251 10.387 5.9251-0.19485 12.081-0.19335 12.081-10.266 5.9181c-5.646 3.2545-10.295 5.892-10.33 5.8611-0.0356-0.0308-4.5523-2.6901-10.038-5.9084l-9.9741-5.8514-0.19486-12.092-0.19342-12.094 10.305-5.9237zm44.171 0 10.386 5.9251 10.387 5.9251-0.19481 12.081-0.19342 12.081-10.266 5.9181c-5.646 3.2545-10.295 5.892-10.33 5.8611-0.0356-0.0308-4.5523-2.6901-10.038-5.9084l-9.9741-5.8514-0.19485-12.092-0.19342-12.094 10.305-5.9237zm309.36 0 10.307 5.9223 10.305 5.9223-0.19483 12.094-0.1934 12.094-9.974 5.8514c-5.4858 3.2183-10.134 5.8435-10.33 5.8333-0.19587-0.0102-4.8445-2.6465-10.33-5.8584l-9.974-5.8403-0.19482-12.084-0.19341-12.085 10.386-5.9237zm44.171 0 10.307 5.9223 10.305 5.9223-0.1934 12.094-0.19482 12.094-9.974 5.8514c-5.4857 3.2183-10.134 5.8435-10.33 5.8333-0.19596-0.0102-4.8445-2.6465-10.33-5.8584l-9.9741-5.8403-0.19473-12.084-0.19349-12.085 10.386-5.9237zm-132.54 0.0139 10.318 5.9251 10.319 5.9251-0.19483 12.07-0.1934 12.07-10.216 5.9209c-5.6186 3.2569-10.268 5.8882-10.33 5.8472-0.0627-0.041-4.6024-2.7021-10.088-5.914l-9.9741-5.8403-0.19483-12.084-0.1934-12.085 10.373-5.9167zm44.171 0 10.318 5.9251 10.319 5.9251-0.19473 12.07-0.1934 12.07-10.216 5.9209c-5.6186 3.2569-10.268 5.8882-10.33 5.8472-0.0627-0.041-4.6025-2.7021-10.088-5.914l-9.974-5.8403-0.19483-12.084-0.1934-12.085 10.373-5.9167zm-220.97 9.5e-4 10.375 5.9168 10.373 5.9181-0.19482 12.081-0.19341 12.081-10.266 5.9182c-5.646 3.2545-10.295 5.8893-10.33 5.8555-0.0356-0.0338-4.5523-2.6973-10.038-5.9195l-9.9741-5.8597-0.19481-12.07-0.19342-12.071 10.318-5.9251zm44.171 0 10.375 5.9168 10.373 5.9181-0.19473 12.081-0.19349 12.081-10.266 5.9182c-5.6461 3.2545-10.295 5.8893-10.33 5.8555-0.0351-0.0338-4.5523-2.6973-10.038-5.9195l-9.974-5.8597-0.19483-12.07-0.1934-12.071 10.318-5.9251zm309.81 0.25308c0.29333 0.12858 4.9456 2.7568 10.337 5.8417l9.1461 5.234 0.0181 12.354 0.0181 12.47-9.743 5.7151c-5.4858 3.2183-10.134 5.8435-10.33 5.8333-0.19597-0.0102-4.8444-2.6464-10.33-5.8583l-9.9741-5.8403-0.19473-12.084-0.19349-12.085 10.357-5.907c5.6963-3.2493 10.596-5.802 10.89-5.6734zm65.09 37.115 10.36 5.9474 10.358 5.9487-0.1934 12.084-0.19483 12.084-9.9741 5.8514c-5.4857 3.2183-10.134 5.8505-10.33 5.8486-0.19596-9.5e-4 -4.8445-2.6206-10.33-5.8208l-9.9741-5.818-0.1252-7.8496v-16.55l10.07-5.7877zm44.171 0 10.36 5.9474 10.358 5.9487-0.1935 12.084-0.19473 12.084-9.9741 5.8514c-5.4857 3.2183-10.134 5.8514-10.33 5.8514-0.19597 0-4.8445-2.6331-10.33-5.8514l-9.974-5.8514-0.19341-12.094-0.19482-12.094 10.333-5.939zm-573.65 1.2084c0.412 0 5.2385 2.5963 10.725 5.7694l9.9769 5.7694v23.912l-9.9769 5.7694c-5.4869 3.1731-10.376 5.7545-10.865 5.736-0.48852-0.0185-5.2959-2.6147-10.684-5.7694l-9.796-5.736v-23.913l9.9352-5.7694c5.4642-3.1726 10.272-5.768 10.684-5.768zm44.171 0c0.412 0 5.2384 2.5963 10.725 5.7694l9.9769 5.7694v23.912l-9.9769 5.7694c-5.487 3.1731-10.376 5.7545-10.865 5.736-0.48852-0.0185-5.2959-2.6147-10.684-5.7694l-9.796-5.736v-23.913l9.9351-5.7694c5.4643-3.1726 10.272-5.768 10.684-5.768zm44.171 0c0.41204 0 5.2385 2.5963 10.725 5.7694l9.9768 5.7694v23.912l-9.9768 5.7694c-5.487 3.1731-10.376 5.7545-10.865 5.736-0.48853-0.0185-5.2959-2.6147-10.684-5.7694l-9.7959-5.736v-23.913l9.9351-5.7694c5.4643-3.1726 10.272-5.768 10.684-5.768zm44.171 0c0.41207 0 5.2385 2.5963 10.726 5.7694l9.9769 5.7694v23.912l-9.9769 5.7694c-5.487 3.1731-10.376 5.7545-10.865 5.736-0.48853-0.0185-5.2959-2.6147-10.684-5.7694l-9.7959-5.736v-23.913l9.9351-5.7694c5.4643-3.1726 10.272-5.768 10.684-5.768zm44.171 0c0.41207 0 5.2384 2.5963 10.726 5.7694l9.9768 5.7694v23.912l-9.9768 5.7694c-5.487 3.1731-10.376 5.7545-10.865 5.736-0.48854-0.0185-5.2959-2.6147-10.684-5.7694l-9.7959-5.736v-23.913l9.9351-5.7694c5.4642-3.1726 10.272-5.768 10.684-5.768zm44.213 0c0.38936 0 5.1968 2.5963 10.684 5.7694l9.9769 5.7694v23.912l-9.9769 5.7694c-5.487 3.1731-10.376 5.7495-10.865 5.7248-0.48853-0.0246-5.2959-2.6209-10.684-5.7693l-9.796-5.7249v-23.912l9.9769-5.7694c5.487-3.1731 10.294-5.7694 10.684-5.7694zm44.213 0c0.41207 0 5.2195 2.5954 10.684 5.768l9.9351 5.7694v23.914l-9.9351 5.7694c-5.4643 3.1726-10.353 5.7482-10.865 5.7234-0.51124-0.0246-5.3376-2.6209-10.725-5.7693l-9.796-5.7249v-23.912l9.9769-5.7694c5.487-3.1731 10.313-5.7693 10.725-5.7693zm44.171 0c0.41207 0 5.2194 2.5954 10.684 5.768l9.9352 5.7694v23.914l-9.9352 5.7694c-5.4643 3.1726-10.353 5.7482-10.865 5.7234-0.51124-0.0246-5.3377-2.6209-10.726-5.7693l-9.7959-5.7249v-23.912l9.9769-5.7694c5.487-3.1731 10.313-5.7693 10.725-5.7693zm44.171 0c0.41207 0 5.2194 2.5954 10.684 5.768l9.9351 5.7694v23.914l-9.9351 5.7694c-5.4642 3.1726-10.353 5.7482-10.865 5.7234-0.51124-0.0246-5.3377-2.6209-10.725-5.7693l-9.7959-5.7249v-23.912l9.9768-5.7694c5.487-3.1731 10.313-5.7693 10.726-5.7693zm44.171 0c0.41198 0 5.2195 2.5954 10.684 5.768l9.9351 5.7694v23.914l-9.9351 5.7694c-5.4642 3.1726-10.353 5.7482-10.865 5.7234-0.51114-0.0246-5.3376-2.6209-10.725-5.7693l-9.7959-5.7249v-23.912l9.9768-5.7694c5.487-3.1731 10.313-5.7693 10.726-5.7693zm44.171 0c0.41207 0 5.2194 2.5954 10.684 5.768l9.9351 5.7694v23.914l-9.9351 5.7694c-5.4642 3.1726-10.353 5.7482-10.865 5.7234-0.51124-0.0246-5.3376-2.6209-10.725-5.7693l-9.796-5.7249v-23.912l9.9769-5.7694c5.487-3.1731 10.314-5.7693 10.726-5.7693zm44.382 0.018c0.44845 0.0101 5.1434 2.5418 10.433 5.6261l9.3647 5.4607 0.18505 12.352 0.0684 4.5359v7.463l-7.4499 4.2676c-4.631 2.6531-9.2388 5.3434-11.09 6.466-0.88874 0.42371-1.5813 0.72393-1.7644 0.71611-0.5878-0.025-5.4768-2.6044-10.865-5.7318l-9.796-5.6859v-23.984l10.049-5.7526c5.527-3.1637 10.416-5.7434 10.865-5.7332zm65.858 37.578c0.0294 0.013 0.075 0.0344 0.10715 0.0487l10.056 5.8278 10.152 5.8834 0.19483 12.082 0.19482 12.084-10.205 5.8598v-9.5e-4c-5.6124 3.2228-10.351 5.8598-10.529 5.8598-0.17848 0-4.8973-2.6344-10.488-5.8542l-10.165-5.8542 0.19473-12.088 0.1934-12.088 10.152-5.8834zm-43.926 0.12931 9.9241 5.7513 10.147 5.8806 0.19482 12.082 0.19483 12.082-10.205 5.8597c-5.6124 3.2228-10.351 5.8584-10.529 5.8584-0.17849 0-4.8973-2.6344-10.488-5.8542l-10.005-5.7624 0.16842-11.201 0.1934-12.872 10.686-6.1921zm-309.3 0.082 10.152 5.8848 10.152 5.8848 0.1934 12.069 0.19483 12.07-10.204 5.8597c-5.6124 3.2228-10.349 5.857-10.525 5.8542-0.17602 0-4.8963-2.6422-10.489-5.8638l-10.167-5.857 0.1934-12.066 0.19482-12.066 10.152-5.8848zm44.171 0 10.152 5.8848 10.152 5.8848 0.1934 12.069 0.19482 12.07-10.204 5.8597c-5.6123 3.2228-10.349 5.857-10.525 5.8542-0.17601 0-4.8963-2.6422-10.489-5.8638l-10.168-5.857 0.19349-12.066 0.19473-12.066 10.152-5.8848zm-220.92 0.0167 10.187 5.8722 10.187 5.8722 0.19335 12.081 0.19485 12.081-10.259 5.8514c-5.6425 3.2185-10.38 5.8527-10.528 5.8527-0.14833 0-4.8444-2.6343-10.435-5.8542l-10.163-5.8542 0.19342-12.088 0.19486-12.088 10.117-5.8625zm44.171 0 10.187 5.8722 10.187 5.8722 0.19342 12.081 0.19481 12.081-10.259 5.8514c-5.6425 3.2185-10.379 5.8527-10.528 5.8527-0.14834 0-4.8444-2.6343-10.435-5.8542l-10.163-5.8542 0.19342-12.088 0.19485-12.088 10.117-5.8625zm309.34 0 10.117 5.8639 10.117 5.8625 0.1934 12.092 0.19483 12.092-10.179 5.85c-5.5986 3.2174-10.335 5.8404-10.525 5.8292-0.18998-0.0114-4.9214-2.6455-10.514-5.8543l-10.167-5.8333 0.19341-12.08 0.19482-12.078 10.187-5.8722zm44.171 0 10.117 5.8639 10.117 5.8625 0.19482 12.092 0.1934 12.092-10.179 5.85c-5.5986 3.2174-10.335 5.8404-10.525 5.8292-0.18998-0.0114-4.9214-2.6455-10.514-5.8543l-10.168-5.8333 0.19349-12.08 0.19473-12.078 10.187-5.8722zm44.171 0 10.117 5.8639 10.117 5.8625 0.19483 12.155 0.0276 1.7368v10.154l-11.043 6.3325-9.2296 5.291c-0.68755-0.094-5.3899-2.5536-10.78-5.6511l-10.168-5.843 0.1934-12.08 0.19482-12.078 10.187-5.8722zm-353.49 0.0108 10.177 5.8667 10.177 5.8667 0.19341 12.081 0.19482 12.081-10.259 5.8514c-5.6425 3.2185-10.378 5.8501-10.524 5.8472-0.146 0-4.8421-2.6422-10.435-5.8639l-10.167-5.857 0.19342-12.066 0.19481-12.066 10.127-5.8709zm44.171 0 10.177 5.8667 10.177 5.8667 0.19349 12.081 0.19473 12.081-10.259 5.8514c-5.6424 3.2185-10.378 5.8501-10.524 5.8472-0.1459 0-4.8421-2.6422-10.435-5.8639l-10.167-5.857 0.1934-12.066 0.19483-12.066 10.127-5.8709zm132.61 0 10.128 5.8708 10.127 5.8709 0.1934 12.069 0.19483 12.07-10.204 5.8597c-5.6123 3.2228-10.349 5.8501-10.525 5.8389-0.17611-0.0114-4.8963-2.6455-10.489-5.8542l-10.168-5.8333 0.1934-12.08 0.19483-12.078 10.177-5.8667zm44.171 0 10.129 5.8708 10.127 5.8709 0.1934 12.069 0.19473 12.07-10.204 5.8597c-5.6123 3.2228-10.349 5.8501-10.525 5.8389-0.17612-0.0114-4.8964-2.6455-10.489-5.8542l-10.167-5.8333 0.1934-12.08 0.19483-12.078 10.177-5.8667zm198.52 38.098 10.354 5.8987 10.352 5.9-0.0152 12.103-0.0152 12.103-9.9907 5.6956c-5.4954 3.1327-10.214 5.7568-10.485 5.8319-0.2711 0.075-5.0494-2.4878-10.618-5.6956l-10.126-5.8319-0.0142-12.103-0.0143-12.103 10.286-5.9zm-309 0.11961 10.319 5.9362 10.321 5.9376-0.0123 12.103-0.0124 12.103-10.027 5.6956c-5.5147 3.1327-10.232 5.752-10.485 5.8208-0.2523 0.0683-5.0158-2.4943-10.585-5.6956l-10.124-5.8208-0.0171-12.103-0.0152-12.103 10.319-5.9376zm265.07 0.0161 10.11 5.7527 10.385 5.9098-0.18229 12.081-0.18371 12.081-9.974 5.8569c-5.4857 3.2208-10.134 5.8552-10.33 5.8556-0.19596 3.8e-4 -4.9117-2.6242-10.481-5.8333l-10.064-5.7985 0.0152-11.233 0.0181-12.815 11.019-6.3172zm-397.61 0 10.347 5.9265 10.347 5.9278-0.17811 12.081-0.1781 12.081-9.9741 5.8556c-5.4857 3.2208-10.134 5.8565-10.33 5.857-0.19591 3.8e-4 -4.9131-2.6243-10.482-5.8334l-10.124-5.8347-0.0163-12.103-0.0149-12.103 10.302-5.9278zm44.171 0 10.347 5.9265 10.347 5.9278-0.17811 12.081-0.17811 12.081-9.9741 5.8556c-5.4857 3.2208-10.134 5.8565-10.33 5.857-0.19597 3.8e-4 -4.9131-2.6243-10.482-5.8334l-10.124-5.8347-0.0166-12.103-0.0153-12.103 10.302-5.9278zm44.171 0 10.347 5.9265 10.347 5.9278-0.17811 12.081-0.17811 12.081-9.974 5.8556c-5.4857 3.2208-10.134 5.8565-10.33 5.857-0.19597 3.8e-4 -4.9131-2.6243-10.482-5.8334l-10.124-5.8347-0.0162-12.103-0.0152-12.103 10.302-5.9278zm88.407 0 10.302 5.9265 10.303 5.9278-0.0114 12.103-0.0124 12.103-9.9922 5.6956c-5.4954 3.1327-10.212 5.7557-10.483 5.8306-0.2711 0.075-4.9823-2.4971-10.468-5.7165l-9.9741-5.8542-0.17811-12.081-0.17811-12.081 10.347-5.9278zm44.172 0 10.302 5.9265 10.302 5.9278-0.0124 12.103-0.0123 12.103-9.9922 5.6956c-5.4954 3.1327-10.214 5.7557-10.485 5.8306-0.2711 0.075-4.9809-2.4971-10.467-5.7165l-9.974-5.8542-0.17811-12.081-0.17811-12.081 10.347-5.9278zm44.171 0 10.302 5.9265 10.302 5.9278-0.0124 12.103-0.0124 12.103-9.9922 5.6956c-5.4955 3.1327-10.213 5.7557-10.485 5.8306-0.27111 0.075-4.9809-2.4971-10.467-5.7165l-9.9741-5.8542-0.17811-12.081-0.17811-12.081 10.347-5.9278zm44.171 0 10.302 5.9265 10.303 5.9278-0.0123 12.103-0.0124 12.103-9.9922 5.6956c-5.4955 3.1327-10.214 5.7557-10.485 5.8306-0.2711 0.075-4.9809-2.4971-10.467-5.7165l-9.9741-5.8542-0.1781-12.081-0.17811-12.081 10.347-5.9278zm44.163 0 10.304 5.9265 10.195 5.8667-0.0152 11.231-0.018 12.836-11.009 6.281-9.4786 5.4078c-0.67833-0.18159-5.1368-2.6245-10.341-5.6789l-9.974-5.8542-0.17811-12.081-0.1781-12.081 10.347-5.9278zm22.251 38.507c0.43268 0.11344 5.1926 2.7516 10.578 5.8625l9.7917 5.6567-0.19482 12.035-0.19473 12.035-9.6179 5.6067c-5.2898 3.0839-10.099 5.6103-10.686 5.615-0.5878 0-5.3967-2.5157-10.687-5.6011l-9.6178-5.6094-0.19482-12.113-0.0902-5.6609 0.095-6.2477 11.016-6.3005 7.8423-4.4846c1.0231-0.48736 1.8141-0.83242 1.9606-0.79397zm44.175 9.5e-4c0.43022 0.11296 5.1884 2.7502 10.574 5.8611l9.7918 5.6567-0.19483 12.035-0.19482 12.035-9.6178 5.6066c-5.2898 3.0839-10.099 5.6103-10.686 5.615-0.5878 9e-3 -5.3967-2.5156-10.687-5.6011l-9.6178-5.6094-0.1934-12.067-0.19483-12.067 10.119-5.8347c5.5656-3.2094 10.472-5.7433 10.902-5.6303zm-309.39 0.0427c0.30235 0 5.0816 2.6136 10.621 5.8083l10.071 5.8082-0.1934 12.062-0.19483 12.062-9.6178 5.6067c-5.2898 3.0839-10.099 5.6067-10.687 5.6067-0.58771 0-5.3966-2.5228-10.686-5.6067l-9.6178-5.608-0.19482-12.06-0.19483-12.062 10.073-5.8082c5.5395-3.1944 10.319-5.8083 10.621-5.8083zm44.171 0c0.30226 0 5.0816 2.6136 10.621 5.8083l10.071 5.8082-0.1934 12.062-0.19482 12.062-9.6178 5.6067c-5.2898 3.0839-10.099 5.6067-10.687 5.6067-0.58781 0-5.3966-2.5228-10.686-5.6067l-9.6179-5.608-0.19473-12.06-0.19482-12.062 10.073-5.8082c5.5395-3.1944 10.319-5.8083 10.621-5.8083zm132.22 0.14875c0.4267-0.11449 5.3234 2.4132 10.881 5.6164l10.105 5.8236-0.1934 12.081-0.19483 12.081-9.6178 5.6094c-5.2898 3.0854-10.099 5.5987-10.687 5.5844-0.58771-0.0142-5.3967-2.5345-10.686-5.6011l-9.6178-5.5761-0.19482-12.096-0.19483-12.096 9.8126-5.6094c5.3968-3.085 10.161-5.7022 10.588-5.8167zm44.171 0c0.4267-0.11449 5.3235 2.4119 10.881 5.615l9.9462 5.7318-0.16832 11.222-0.19483 12.846-10.687 6.1963-9.6234 5.5816-9.9476-5.7054-10.218-5.8611-0.19473-12.101-0.19482-12.099 9.8126-5.6094c5.3968-3.085 10.161-5.7022 10.588-5.8167zm-308.59 0c0.41889 0.11296 5.177 2.729 10.574 5.8139l9.8113 5.6094-0.19349 12.095-0.19474 12.096-9.6179 5.5761c-5.2898 3.0666-10.099 5.5831-10.686 5.5927-0.58775 9e-3 -5.3967-2.5061-10.686-5.59l-9.6178-5.6067-0.19481-12.062-0.1948-12.06 10.12-5.8361c5.5656-3.2094 10.462-5.7419 10.881-5.6289zm44.171 0c0.41891 0.11296 5.177 2.729 10.574 5.8139l9.8126 5.6094-0.19483 12.095-0.19482 12.096-9.6178 5.5761c-5.2898 3.0666-10.099 5.5831-10.686 5.5927-0.5878 9e-3 -5.3967-2.5061-10.687-5.59l-9.6178-5.6067-0.19483-12.062-0.19483-12.06 10.12-5.8361c5.5656-3.2094 10.462-5.7419 10.881-5.6289zm131.9 0c0.41881-0.11297 5.3157 2.4209 10.881 5.6303l10.119 5.8347-0.1935 12.062-0.19473 12.062-9.6179 5.6067c-5.2898 3.0838-10.099 5.5995-10.686 5.59-0.5878-9e-3 -5.3967-2.5262-10.686-5.5928l-9.6179-5.576-0.19483-12.096-0.19473-12.096 9.8126-5.6094c5.3968-3.0849 10.155-5.7009 10.574-5.8139zm44.171 0c0.41891-0.11297 5.3157 2.4209 10.881 5.6303l10.119 5.8347-0.1934 12.062-0.19473 12.062-9.6179 5.6067c-5.2898 3.0838-10.099 5.5995-10.686 5.59-0.58771-9e-3 -5.3967-2.5262-10.687-5.5928l-9.6178-5.576-0.19483-12.096-0.19483-12.096 9.8126-5.6094c5.3968-3.0849 10.155-5.7009 10.574-5.8139zm110.73 37.748 9.9532 5.7082 10.218 5.8598 0.19473 12.084 0.19482 12.084-10.123 5.8027c-5.5672 3.192-10.463 5.7764-10.88 5.7429-0.4173-0.0332-5.1742-2.6394-10.571-5.7916l-9.654-5.64 0.16842-11.229 0.19473-12.847 10.687-6.1963zm-220.85 0.56738c0.5878 0 5.3967 2.5239 10.687 5.6094l9.6178 5.6094 0.19483 12.071 0.1934 12.071-10.122 5.8041c-5.5672 3.192-10.464 5.7684-10.881 5.7249-0.41739-0.0437-5.1742-2.6548-10.571-5.8014l-9.8126-5.7207 0.19482-12.074 0.19474-12.075 9.6179-5.6094c5.2898-3.0855 10.099-5.6094 10.686-5.6094zm-44.171 0.01c0.5877 9e-3 5.3966 2.5311 10.686 5.6149l9.6178 5.6081 0.19483 12.064 0.1934 12.066-10.122 5.8041c-5.5672 3.192-10.464 5.7684-10.881 5.7249-0.41729-0.0437-5.1742-2.6548-10.571-5.8013l-9.8126-5.7208 0.19483-12.074 0.19482-12.075 9.6178-5.6094c5.2898-3.0855 10.099-5.6058 10.687-5.6011zm88.342 0c0.58771 0 5.3966 2.5156 10.686 5.6011l9.6179 5.6094 0.19482 12.071 0.1934 12.071-10.122 5.8041c-5.5672 3.192-10.464 5.7684-10.881 5.7249-0.4173-0.0437-5.1742-2.6548-10.571-5.8013l-9.8126-5.7208 0.19474-12.068 0.19482-12.068 9.6179-5.6081c5.2898-3.0838 10.099-5.6102 10.686-5.6149zm44.171 0c0.58771 0 5.3966 2.5156 10.686 5.6011l9.6179 5.6094 0.19473 12.067 0.1935 12.067-10.071 5.807c-5.5395 3.1943-10.436 5.776-10.881 5.7373-0.44503-0.0389-5.2245-2.6702-10.621-5.8472l-9.8113-5.7762 0.1934-12.023 0.19483-12.023 9.6178-5.6067c5.2898-3.0839 10.099-5.6103 10.687-5.615zm44.171 0c0.5878 0 5.3966 2.5156 10.686 5.6011l9.6178 5.6094 0.19483 12.067 0.1934 12.067-10.071 5.807c-5.5396 3.1943-10.436 5.776-10.881 5.7373-0.44503-0.0389-5.2245-2.6702-10.621-5.8472l-9.8112-5.7762 0.1934-12.023 0.19482-12.023 9.6178-5.6067c5.2898-3.0839 10.099-5.6103 10.687-5.615zm44.171 0c0.5878 0 5.3967 2.5156 10.687 5.6011l9.6178 5.6094 0.19482 12.113 0.0903 5.6609-0.0931 6.2435-11.018 6.3005-8.6466 4.9448c-0.59094 0.275-0.97508 0.4266-1.0853 0.4172-0.44845-0.0389-5.2314-2.6702-10.628-5.8472l-9.8112-5.7763 0.1934-12.023 0.19482-12.023 9.6178-5.6067c5.2898-3.0838 10.099-5.6102 10.687-5.6149z" fill="#666" stroke-width=".60817"/>
 </g>
 <g transform="matrix(.74963 0 0 .74963 .19794 2.2038e-6)" fill-rule="evenodd">
  <path d="m211.26 211.42c-76.922 76.922-124.5 183.19-124.5 300.57 0 117.38 47.578 223.64 124.5 300.57l300.57-300.57z" fill="#f0f0f0"/>
  <path d="m815.52 809.92c76.922-76.922 124.5-183.19 124.5-300.57 0-117.38-47.578-223.65-124.5-300.57l-300.57 300.57z" fill="#f0f0f0"/>
  <g fill="#ffc230">
   <path d="m647.5 512.39c0 74.625-60.492 135.12-135.12 135.12-74.621 0-135.12-60.492-135.12-135.12 0-74.621 60.496-135.12 135.12-135.12 74.625 0 135.12 60.496 135.12 135.12z"/>
   <path d="m840.89 783.19-34.102 36.566-214.52-200.04 34.102-36.57zm-82.996-77.395-11.031 11.832-131.52-122.65 11.031-11.832zm-23.066 24.738-11.031 11.832-131.53-122.65 11.035-11.832z"/>
   <path d="m189.49 234.88 34.102-36.57 214.52 200.04-34.102 36.566zm82.996 77.391 11.031-11.828 131.52 122.65-11.031 11.828zm23.066-24.734 11.031-11.832 131.53 122.65-11.035 11.832z"/>
  </g>
  <path d="m816.09 100.05c-85.035-62.875-190.22-100.05-304.09-100.05-113.7 0-218.74 37.059-303.7 99.758l196.29 201.4c32.191-16.406 68.637-25.656 107.24-25.656 38.875 0 75.562 9.3828 107.92 26.004z" fill="#f0f0f0"/>
  <path d="m816.09 924.46c-85.035 62.871-190.22 100.05-304.09 100.05-113.7 0-218.74-37.059-303.7-99.758l196.29-201.4c32.191 16.406 68.637 25.656 107.24 25.656 38.875 0 75.562-9.3828 107.92-26.004z" fill="#f0f0f0"/>
 </g>
 <g transform="translate(-.27088 -40.795)">
  <path d="m384.27 41.052a384 383.74 0 0 0 -384 383.74 384 383.74 0 0 0 384 383.74 384 383.74 0 0 0 384 -383.74 384 383.74 0 0 0 -384 -383.74zm0 14.99a369 368.75 0 0 1 369 368.75 369 368.75 0 0 1 -369 368.75 369 368.75 0 0 1 -369 -368.75 369 368.75 0 0 1 369 -368.75z" fill="#ffc230" stroke-width="1.0848"/>
 </g>
</svg>
