<svg width="1024" height="1024" version="1.1" viewBox="0 0 768.00001 768.00292" xmlns="http://www.w3.org/2000/svg">
 <defs>
  <clipPath id="a">
   <circle cx="384" cy="384" r="375" fill="#989898" stroke-width="3.5906"/>
  </clipPath>
 </defs>
 <g id="radarr-group-logo" transform="translate(5e-6 .26738)">
  <circle id="radarr-black-circle" cx="384" cy="384" r="375" stroke-width="1.8453"/>
  <path id="radarr-honeycomb" d="m675.79 18.683 19.008 10.923 18.814-10.923v-21.846l-18.814-10.923-19.008 10.923zm-37.628-21.846-18.814-10.923-18.8 10.923v21.846l18.8 10.923 18.814-10.923v-21.846l18.814-10.923 18.814 10.923m-37.628 21.846 18.814 10.923 18.814-10.923m-37.628 43.498v21.846l18.814 10.923 18.814-10.923v-21.846l-18.814-10.729-18.814 10.729-18.814-10.729-18.8 10.729m75.243 21.846 19.008 10.923 18.814-10.923v-21.846l-18.814-10.729-19.008 10.729m19.008-32.575v21.846m-37.822-21.846v21.846m56.636-54.615 18.814-10.923 18.814 10.923 18.814-10.923 18.814 10.923 18.8-10.923 18.814 10.923v21.846l18.814 10.923v21.846l-18.814 10.729v21.846l18.814 10.923v21.846l-18.814 10.923v21.846l18.814 10.923v21.846l-18.814 10.715v21.846l18.814 10.923v21.846l-18.814 10.923v21.846l18.814 10.923v21.846l-18.814 10.715v21.846l18.814 10.923v21.846l-18.814 10.937v21.846l18.814 10.923v21.846l-18.814 10.715v21.846l18.814 10.923v21.846l-18.814 10.923v21.846l18.814 10.923v21.846l-18.814 10.715v21.846l18.814 10.923v21.846l-18.814 10.923v21.846l18.814 10.923v21.846l-18.814 10.729v21.846l18.814 10.923v21.846l-18.814 10.923-18.814-10.923-18.8 10.923-18.814-10.923-18.814 10.923-18.814-10.923-18.814 10.923-18.814-10.923-19.008 10.923-18.814-10.923-18.814 10.923-18.814-10.923-18.8 10.923-18.814-10.923-18.814 10.923-18.814-10.923-18.814 10.923-18.814-10.923-19.008 10.923-18.814-10.923-18.814 10.923-18.814-10.923-18.8 10.923-18.814-10.923-18.814 10.923-18.814-10.923-18.814 10.923-18.814-10.923-18.8 10.923-18.814-10.923-18.814 10.923-18.814-10.923-19.008 10.923-18.814-10.923-18.814 10.923-18.814-10.923-18.814 10.923-18.814-10.923-18.814 10.923-18.8-10.923-18.814 10.923-18.814-10.923-19.008 10.923-18.814-10.923-18.814 10.923-18.814-10.923-18.814 10.923-18.814-10.923v-21.846l-18.814-10.923v-21.846l18.814-10.729v-21.846l-18.814-10.923v-21.846l18.814-10.923v-21.846l-18.814-10.923v-21.846l18.814-10.715v-21.846l-18.814-10.923v-21.846l18.814-10.923v-21.846l-18.814-10.923v-21.846l18.814-10.715v-21.846l-18.814-10.923v-21.846l18.814-10.937v-21.846l-18.814-10.923v-21.846l18.814-10.715v-21.846l-18.814-10.923v-21.846l18.814-10.923v-21.846l-18.814-10.923v-21.846l18.814-10.715v-21.846l-18.814-10.923v-21.846l18.814-10.923v-21.846l-18.814-10.923v-21.846l18.814-10.729v-21.846l-18.814-10.923v-21.846l18.814-10.923 18.814 10.923 18.814-10.923 18.814 10.923 18.814-10.923 18.814 10.923 19.008-10.923 18.814 10.923 18.814-10.923 18.8 10.923 18.814-10.923 18.814 10.923 18.814-10.923 18.814 10.923 18.814-10.923 18.814 10.923 19.008-10.923 18.814 10.923 18.814-10.923 18.814 10.923 18.8-10.923 18.814 10.923 18.814-10.923 18.814 10.923 18.814-10.923 18.814 10.923 18.8-10.923 18.814 10.923 18.814-10.923 18.814 10.923 19.008-10.923 18.814 10.923 18.814-10.923 18.814 10.923 18.814-10.923 18.814 10.923m-37.628 0v21.846l18.814 10.923 18.814-10.923m-37.628 43.498v21.846l18.814 10.923 18.814-10.923v-21.846l-18.814-10.729-18.814 10.729-18.814-10.729-18.814 10.729m94.057-32.575v21.846m-37.614-21.846v21.846m18.814 76.267v21.846l18.8 10.923 18.814-10.923v-21.846l-18.814-10.923-18.8 10.923-18.814-10.923-18.814 10.923v21.846l18.814 10.923 18.814-10.923m37.614-65.538-18.814 10.923v21.846m-18.8-32.769 18.8 10.923m-37.614 0v21.846m0 43.692v21.846l18.814 10.715 18.8-10.715v-21.846m37.628-65.538v21.846l18.814 10.923 19.008-10.923v-21.846m-37.822 21.846-18.814 10.923m-18.814 54.615 18.814 10.715 18.814-10.715v-21.846l-18.814-10.923m37.628-21.846v21.846l19.008 10.923 18.814-10.923v-21.846l-18.814-10.923m0 43.692v21.846l18.814 10.715 18.814-10.715v-21.846l-18.814-10.923m-56.636 10.923 18.814-10.923m-150.5-152.73v21.846l18.814 10.923 18.814-10.923m-113.08-21.846v21.846l18.814 10.923 18.814-10.923v-21.846m0 21.846 19.008 10.923 18.814-10.923m-37.822 43.498v21.846l19.008 10.923 18.814-10.923v-21.846l-18.814-10.729-19.008 10.729-18.814-10.729-18.814 10.729v21.846l18.814 10.923 18.814-10.923m-18.814-54.421v21.846m75.45-21.846v21.846m-37.628-21.846v21.846m-94.251-54.615v21.846l18.8 10.923 18.814-10.923m-75.243-21.846v21.846l18.814 10.923 18.814-10.923m-18.814 32.769-18.814 10.729v21.846l18.814 10.923 18.814-10.923v-21.846zm56.429 10.729-18.814-10.729-18.8 10.729m-18.814-32.575v21.846m37.614-21.846v21.846m18.814 32.575-18.814 10.923v21.846l18.814 10.923 18.814-10.923v-21.846m-75.243 0v21.846l18.814 10.923 18.8-10.923m-37.614 65.538 18.814 10.715 18.8-10.715v-21.846l-18.8-10.923-18.814 10.923v21.846l-18.814 10.715v21.846l18.814 10.923 18.814-10.923v-21.846m18.8-32.561 18.814-10.923v-21.846m-37.614-43.692 18.8 10.923m-18.8 54.615v-21.846m94.251-32.769v21.846l18.814 10.923 18.814-10.923v-21.846l-18.814-10.923m-75.45 65.538 18.814 10.923 18.814-10.923v-21.846l-18.814-10.923m37.822 0-19.008 10.923m19.008 54.615 18.814 10.715 18.814-10.715v-21.846l-18.814-10.923-18.814 10.923v21.846l-19.008 10.715v21.846l-18.814 10.923v21.846l18.814 10.923 19.008-10.923v-21.846l-19.008-10.923m-56.442-32.561 18.814 10.715 18.814-10.715v-21.846m18.814-10.923 19.008 10.923m18.814-10.923v-21.846m0 65.33v21.846l18.814 10.923 18.814-10.923v-21.846l-18.814-10.715m-56.636 76.253v21.846l19.008 10.923 18.814-10.923v-21.846l-18.814-10.923m18.814 32.769 18.814 10.923 18.814-10.923v-21.846l-18.814-10.923-18.814 10.923m-18.814-32.769 18.814-10.923m18.814 10.923v21.846m-75.45-21.846-18.814-10.923-18.814 10.923v21.846l18.814 10.923 18.814-10.923m-18.814-32.769v-21.846m-56.429 54.615-18.814 10.923v21.846l18.814 10.923 18.814-10.923v-21.846zm18.814 32.769 18.8 10.923 18.814-10.923v-21.846m-56.429-32.769v21.846m37.614 0-18.8 10.923m0-43.692 18.8 10.923m0 87.384-18.8 10.715v21.846l18.8 10.923 18.814-10.923v-21.846zm0-21.846v21.846m-37.614-21.846v21.846l18.814 10.715m0 21.846-18.814 10.923v21.846l18.814 10.937 18.8-10.937v-21.846m94.265-32.769v21.846l18.814 10.923 18.814-10.923v-21.846l-18.814-10.715zm18.814-32.561v21.846m-56.636-32.769-18.814 10.923v21.846l18.814 10.715 19.008-10.715v-21.846m-56.636 54.407 18.814 10.923 18.814-10.923v-21.846m37.822 21.846-18.814 10.923v21.846l18.814 10.937 18.814-10.937v-21.846m-113.08 21.846 18.814 10.937 18.814-10.937v-21.846m18.814-10.923 19.008 10.923m0-43.484 18.814 10.715m-75.45-43.484 18.814 10.923m0 21.846-18.814 10.715m244.96-141.58-19.008 10.715v21.846l19.008 10.923 18.814-10.923v-21.846m-75.451 0v21.846l18.814 10.923 18.814-10.923m-37.628 65.538 18.814 10.923 18.814-10.923v-21.846l-18.814-10.923-18.814 10.923v21.846l-18.814 10.923v21.846m56.442-32.769 19.008 10.923 18.814-10.923v-21.846l-18.814-10.923-19.008 10.923m19.008-32.769v21.846m-37.822-21.846v21.846m-56.429-54.615v21.846l18.8 10.923 18.814-10.923m-75.243 0 18.814 10.923 18.814-10.923m-37.628 65.538 18.814 10.923 18.814-10.923v-21.846l-18.814-10.923-18.814 10.923m75.243 0-18.814-10.923-18.8 10.923m18.8-32.769v21.846m-37.614-21.846v21.846m18.814 76.253v21.846l18.8 10.923 18.814-10.923v-21.846l-18.814-10.715-18.8 10.715-18.814-10.715-18.814 10.715m18.814-32.561v21.846m18.814 32.561-18.814 10.923v21.846l18.814 10.937 18.8-10.937v-21.846m-56.429-10.923 18.814 10.923m113.06-65.33v21.846l18.814 10.715 18.814-10.715v-21.846l-18.814-10.923m-18.814 32.769-19.008 10.715v21.846l19.008 10.923 18.814-10.923v-21.846m-56.636-32.561v21.846l18.814 10.715m-18.814-10.715-18.814 10.715m37.628 21.846-18.814 10.923v21.846l18.814 10.937 19.008-10.937v-21.846m-56.636-10.923 18.814 10.923m-56.429-76.253 18.8 10.923m-56.429-163.64-18.814-10.923m0 43.692 18.814-10.923m-18.814-54.615 18.814-10.923m94.057 98.307 18.814 10.715m-94.057-10.715-18.814 10.715m-75.45 0-18.814-10.715m339.01-152.73-18.8-10.923-18.814 10.923v21.846l18.814 10.729 18.8-10.729v-21.846l18.814-10.923m0 43.498-18.814-10.729m-18.8-54.615v21.846m-75.257 0 18.814 10.923 18.814-10.923v-21.846m-37.628 87.19 18.814 10.923 18.814-10.923v-21.846l-18.814-10.729-18.814 10.729m37.628 0 18.814-10.729m-37.628-21.846v21.846m18.814-32.769 18.814 10.923m0 65.344v21.846l18.814 10.923 18.8-10.923v-21.846l-18.8-10.923-18.814 10.923-18.814-10.923m-18.814 76.461 18.814-10.923v-21.846l-18.814-10.923-18.814 10.923m18.814-32.769v21.846m37.628 43.692v21.846l18.814 10.715 18.8-10.715v-21.846l-18.8-10.923-18.814 10.923-18.814-10.923m37.628-21.846v21.846m-37.628-21.846 18.814-10.923m56.429 10.923-18.814-10.923m0-21.846 18.814-10.923m-18.814 76.461 18.814-10.923m-37.615-87.384v21.846m0 109.02v21.846l18.8 10.923 18.814-10.923m-37.615 0-18.814 10.923v21.846l18.814 10.923 18.8-10.923v-21.846m18.814 32.769-18.814-10.923m-94.057-32.769 18.814 10.923 18.814-10.923v-21.846l-18.814-10.715m0 109.02 18.814-10.923v-21.846l-18.814-10.923-18.814 10.923m75.257 0v21.846l18.8 10.923 18.814-10.923m-75.243-21.846 18.814-10.923m-37.628-21.846v21.846m18.814-32.769 18.814 10.923m-37.628 87.384 18.814 10.715 18.814-10.715v-21.846l-18.814-10.923m0 43.484v21.846l18.814 10.923 18.814-10.923v-21.846l-18.814-10.715m-56.443 32.561 18.814 10.923 18.814-10.923m-18.814 10.923v21.846l18.814 10.937 18.814-10.937v-21.846m18.814-32.769 18.8-10.715v-21.846m18.814 32.561-18.814-10.715m-18.8 32.561 18.8 10.923 18.814-10.923m-56.429 32.769 18.814 10.937 18.8-10.937v-21.846m-37.614-65.33 18.814-10.923m37.615-87.384-18.814-10.715m-56.429 10.715 18.814-10.715m37.614 239.9-18.8-10.923-18.814 10.923v21.846l18.814 10.715 18.8-10.715v-21.846l18.814-10.923m0 43.484-18.814-10.715m-18.8-54.615v21.846m-37.628-21.846v21.846l18.814 10.923m-56.443-10.923-18.814 10.923v21.846l18.814 10.715 18.814-10.715v-21.846l-18.814-10.923v-21.846l-18.814-10.937m56.443 32.783-18.814 10.923m37.628 21.846-18.814 10.715v21.846l18.814 10.923 18.814-10.923v-21.846m-94.071-10.715-19.008 10.715v21.846l19.008 10.923 18.814-10.923v-21.846m18.814-10.715 18.814 10.715m18.814 54.615-18.814 10.923v21.846l18.814 10.923 18.814-10.923v-21.846zm0-21.846v21.846m-18.814-32.769-18.814 10.923v21.846l18.814 10.923m-18.814-10.923-18.814 10.923v21.846l18.814 10.923 18.814-10.923m-18.814 10.923v21.846l18.814 10.715 18.814-10.715v-21.846m18.814-32.769 18.8-10.923v-21.846l-18.8-10.923m37.615 43.692-18.814-10.923m-37.614 65.538 18.814 10.715 18.8-10.715v-21.846l-18.8-10.923m18.8 10.923 18.814-10.923m-112.87-65.538 18.814 10.923m75.243 0 18.814-10.923m-37.615 109.02v21.846l18.8 10.923 18.814-10.923m0 43.692-18.814-10.923-18.8 10.923v21.846l18.8 10.923 18.814-10.923m-18.814-32.769v-21.846m-18.8-10.923-18.814 10.923v21.846l18.814 10.923m-56.443-76.253-18.814 10.715v21.846l18.814 10.923 18.814-10.923v-21.846m-18.814 98.307 18.814-10.923v-21.846l-18.814-10.923-18.814 10.923v21.846l18.814 10.923v21.846l18.814 10.729 18.814-10.729m-18.814-32.769 18.814 10.923 18.814-10.923m-18.814-32.769-18.814 10.923m0-43.692 18.814 10.923m-37.628 0v21.846m37.628 43.692v21.846l18.814 10.729 18.8-10.729v-21.846m-94.057-10.923-18.814 10.923v21.846l18.814 10.729 18.814-10.729m-18.814 10.729v21.846l18.814 10.923 18.814-10.923v-21.846m-18.814 32.769v21.846m75.243 0v-21.846l-18.8-10.923-18.814 10.923v21.846m18.814-54.615v21.846m-18.814 10.923-18.814-10.923m75.243-21.846-18.814-10.729m0 43.498 18.814-10.923m0-152.73-18.814-10.715m-131.88-185.48v21.846l19.008 10.923m-37.822-43.706-18.814 10.937v21.846l18.814 10.923 18.814-10.923m0 43.484-18.814-10.715-18.814 10.715v21.846l18.814 10.923 18.814-10.923m-18.814-32.561v-21.846m-56.429-32.769v21.846l18.8 10.923 18.814-10.923m-56.429-32.783-18.814 10.937v21.846l18.814 10.923 18.814-10.923m-37.628 65.33 18.814 10.923 18.814-10.923v-21.846l-18.814-10.715-18.814 10.715v21.846l-18.814 10.923v21.846m56.442-54.615 18.8-10.715v-21.846m-37.614 0v21.846m18.814 76.253v21.846l18.8 10.923 18.814-10.923v-21.846l-18.814-10.923zm37.614-43.692-18.814 10.923v21.846m-37.614-21.846v21.846l18.814 10.923m-18.814-10.923-18.814 10.923v21.846l18.814 10.923 18.814-10.923m-18.814 10.923v21.846l18.814 10.715 18.8-10.715v-21.846m75.45-65.538v21.846l18.814 10.923m-18.814-10.923-19.008 10.923v21.846l19.008 10.923 18.814-10.923m-75.451-21.846 18.814-10.923v-21.846m18.814 54.615-18.814 10.923v21.846l18.814 10.715 19.008-10.715v-21.846m-56.636-10.923 18.814 10.923m18.814-32.769-18.814-10.923m-56.429-32.769 18.8 10.923m0-43.484 18.814 10.715m-131.69-76.267-19.008 10.937v21.846l19.008 10.923 18.814-10.923v-21.846m-18.814 32.769v21.846l18.814 10.715 18.814-10.715v-21.846l-18.814-10.923m-75.45-21.846v21.846l18.814 10.923 18.814-10.923m19.008 32.769-19.008 10.715v21.846l19.008 10.923 18.814-10.923v-21.846m-37.822 0-18.814-10.715-18.814 10.715v21.846l18.814 10.923 18.814-10.923m-18.814-32.561v-21.846m-18.814-10.923-18.814 10.923v21.846l18.814 10.715m-56.429-76.267-18.814 10.937v21.846l18.814 10.923 18.814-10.923v-21.846m0 65.33-18.814-10.715-18.814 10.715v21.846l18.814 10.923 18.814-10.923v-21.846l18.8-10.715m0-21.846-18.8-10.923m-18.814 10.923v21.846m37.614 65.33-18.8 10.923v21.846l18.8 10.923 18.814-10.923v-21.846zm18.814-32.769-18.814 10.923v21.846m-37.614-21.846v21.846l18.814 10.923m0 21.846-18.814 10.923v21.846l18.814 10.715 18.8-10.715v-21.846m131.89-32.769-18.814-10.923-18.814 10.923v21.846l18.814 10.923 18.814-10.923m-94.265-54.615v21.846l18.814 10.923 19.008-10.923v-21.846m-37.822 87.384 18.814 10.715 19.008-10.715v-21.846l-19.008-10.923-18.814 10.923v21.846l-18.814 10.715v21.846l18.814 10.923 18.814-10.923m19.008-32.561 18.814 10.715 18.814-10.715v-21.846m-37.628 0 18.814-10.923m-37.822-21.846v21.846m37.822-21.846-18.814-10.923m18.814-32.769 18.814 10.923m-75.45 21.846-18.814 10.923m0 21.846 18.814 10.923m-56.429-76.461 18.8 10.923m94.265 119.95-18.814 10.923v21.846l18.814 10.923 18.814-10.923v-21.846l-18.814-10.923v-21.846m-37.822 0v21.846l19.008 10.923m0 21.846-19.008 10.923v21.846l19.008 10.923 18.814-10.923v-21.846m-37.822 0-18.814-10.923-18.814 10.923v21.846l18.814 10.923 18.814-10.923m19.008 10.923v21.846l18.814 10.729 18.814-10.729v-21.846l-18.814-10.923m-56.636-32.769v-21.846m-56.429-32.769v21.846l18.8 10.923 18.814-10.923m-56.429-32.561-18.814 10.715v21.846l18.814 10.923 18.814-10.923m-18.814 32.769-18.814 10.923v21.846l18.814 10.923 18.814-10.923v-21.846zm56.429 32.769-18.814 10.923v21.846l18.814 10.729 18.814-10.729v-21.846m-37.628-65.538v21.846l18.814 10.923m-56.429-32.769v21.846m18.814 10.923 18.8-10.923m0 43.692-18.8-10.923m-18.814 10.923v21.846l18.814 10.729 18.8-10.729m0 65.344v-21.846l-18.8-10.923-18.814 10.923v21.846m75.243 0v-21.846l-18.814-10.923-18.814 10.923m-18.8-10.923v-21.846m37.614 21.846v-21.846m18.814 32.769 18.814-10.923v-21.846l-18.814-10.729m37.822 0-19.008 10.729m19.008 54.615v-21.846l-19.008-10.923m94.265 32.769v-21.846l-18.814-10.923-18.814 10.923v21.846m-18.814-54.615v21.846l18.814 10.923m-37.628 0 18.814-10.923m150.5-152.73v21.846l19.008 10.923 18.814-10.923m-56.636-32.561-18.814 10.715v21.846l18.814 10.923 18.814-10.923m-18.814 76.461 18.814-10.923v-21.846l-18.814-10.923-18.814 10.923v21.846l18.814 10.923v21.846l18.814 10.729 19.008-10.729m18.814-54.615-18.814-10.923-19.008 10.923m0 21.846 19.008 10.923m0-43.692v-21.846m-37.822 0v21.846m-56.429-54.615v21.846l18.8 10.923 18.814-10.923m-56.429-32.561-18.814 10.715v21.846l18.814 10.923 18.814-10.923m-37.628 43.692v21.846l18.814 10.923 18.814-10.923v-21.846l-18.814-10.923-18.814 10.923-18.814-10.923m94.057 10.923-18.814-10.923-18.8 10.923m0 21.846 18.8 10.923 18.814-10.923m-18.814-54.615v21.846m-37.614-21.846v21.846m0 43.692v21.846l18.814 10.729 18.8-10.729v-21.846m-37.614 21.846-18.814 10.729v21.846m56.429 32.769v-21.846l-18.8-10.923-18.814 10.923m18.814-10.923v-21.846m18.8-10.729 18.814 10.729 18.814-10.729m-18.814 10.729v21.846l18.814 10.923 18.814-10.923v-21.846m-18.814 32.769v21.846m37.822 0v-21.846l-19.008-10.923m-56.442 10.923 18.814-10.923m-75.243-283.6-18.814-10.715m0-21.846 18.814-10.923m-18.814 272.66 18.814-10.923m-18.814-54.615 18.814-10.923m0-21.846-18.814-10.715m94.057 10.715-18.814-10.715m-169.51 10.715-18.814-10.715m131.89 141.6-18.814-10.729m150.69 43.498 18.814-10.923m0-152.73-18.814-10.715m37.628-196.42-18.814 10.937m-150.69 0-18.814-10.937m94.057 10.937-18.814-10.937m207.14 10.937-18.814-10.937m-320.2 10.937-18.814-10.937m-470.7-381.7v21.846l18.814 10.923 18.814-10.923v-21.846m0 21.846 19.008 10.923 18.814-10.923v-21.846m-113.08 0v21.846l18.814 10.923 18.814-10.923m-18.814 32.769-18.814 10.729v21.846l18.814 10.923 18.814-10.923v-21.846zm18.814 32.575 18.814 10.923 18.814-10.923v-21.846l-18.814-10.729-18.814 10.729m37.628 21.846 19.008 10.923 18.814-10.923v-21.846l-18.814-10.729-19.008 10.729m-56.442-32.575v21.846m37.628-21.846v21.846m37.822-21.846v21.846m-113.08-21.846 18.814-10.923m0 43.498-18.814-10.729m0 109.04 18.814-10.923v-21.846l-18.814-10.923m0-21.846 18.814-10.923m56.442 32.769-18.814 10.923v21.846l18.814 10.923 18.814-10.923v-21.846l-18.814-10.923v-21.846m18.814 54.615 19.008 10.923 18.814-10.923v-21.846l-18.814-10.923-19.008 10.923m19.008-32.769v21.846m-75.45-21.846v21.846l18.814 10.923m0 21.846-18.814 10.923v21.846l18.814 10.715 18.814-10.715v-21.846m37.822 0v21.846l18.814 10.715 18.814-10.715v-21.846l-18.814-10.923m-94.265-32.769-18.814 10.923m0 21.846 18.814 10.923m56.442 54.407-18.814 10.923v21.846l18.814 10.923 19.008-10.923v-21.846zm19.008-32.561-19.008 10.715v21.846m-56.442-32.561-18.814 10.715v21.846l18.814 10.923 18.814-10.923v-21.846m0 65.538-18.814-10.923-18.814 10.923v21.846l18.814 10.923 18.814-10.923v-21.846l18.814-10.923m18.814 10.923v21.846l19.008 10.923 18.814-10.923v-21.846l-18.814-10.923m-75.45-21.846v21.846m37.628-21.846-18.814-10.923m-56.443 10.923 18.814-10.923m0 43.692-18.814-10.923m0 109.02 18.814-10.923v-21.846l-18.814-10.715m94.071 10.715v21.846l19.008 10.923 18.814-10.923v-21.846l-18.814-10.715zm19.008-32.561v21.846m-19.008-32.769-18.814 10.923v21.846l18.814 10.715m-56.442-32.561v21.846l18.814 10.715 18.814-10.715m-37.628 43.484v21.846l18.814 10.937 18.814-10.937v-21.846l-18.814-10.923zm75.45 0v21.846l18.814 10.937 18.814-10.937v-21.846l-18.814-10.923m-56.636 10.923 18.814-10.923m-37.628-21.846v21.846m0-65.33 18.814 10.923m-37.628 21.846-18.814 10.715m0 21.846 18.814 10.923m-37.628-65.33 18.814-10.923m75.257-87.384-18.814-10.715m-56.442 10.715-18.814-10.715m395.46-185.5v21.846l18.814 10.923 18.814-10.923m-75.243-21.846v21.846l18.8 10.923 18.814-10.923m-18.814 32.769-18.8 10.729v21.846l18.8 10.923 18.814-10.923v-21.846l-18.814-10.729v-21.846m56.442 32.575-18.814-10.729-18.814 10.729m18.814-10.729v-21.846m-94.057-32.769v21.846l18.814 10.923 18.814-10.923m-75.45-21.846v21.846l19.008 10.923 18.814-10.923m-37.822 43.498v21.846l19.008 10.923 18.814-10.923v-21.846l-18.814-10.729-19.008 10.729-18.814-10.729-18.814 10.729m113.08 0-18.814-10.729-18.814 10.729m-18.814-32.575v21.846m37.628-21.846v21.846m18.814 32.575-18.814 10.923v21.846l18.814 10.923 18.8-10.923v-21.846m-56.429-10.923 18.814 10.923m0 21.846-18.814 10.923v21.846l18.814 10.923 18.814-10.923v-21.846m-75.45-43.692-18.814 10.923v21.846l18.814 10.923 19.008-10.923v-21.846m18.814 54.615-18.814 10.923v21.846l18.814 10.715 18.814-10.715v-21.846m-56.636-32.769v21.846l19.008 10.923m18.814-32.769-18.814-10.923m94.057-32.769 18.814 10.923 18.814-10.923m-18.814 32.769-18.814 10.923v21.846l18.814 10.923 18.814-10.923v-21.846l-18.814-10.923v-21.846m-37.628 21.846 18.814 10.923m0 21.846-18.814 10.923v21.846l18.814 10.715 18.814-10.715v-21.846m-37.628 0-18.8-10.923m-113.08-152.73v21.846l18.814 10.923 18.814-10.923m-75.257-21.846v21.846l18.814 10.923 18.814-10.923m-37.628 43.498v21.846l18.814 10.923 18.814-10.923v-21.846l-18.814-10.729-18.814 10.729-18.814-10.729-18.814 10.729m94.071-32.575v21.846m-37.628-21.846v21.846m-56.442-54.615v21.846l18.814 10.923 18.814-10.923m-75.243 0 18.814 10.923 18.8-10.923m-37.614 65.344 18.814 10.923 18.8-10.923v-21.846l-18.8-10.729-18.814 10.729m56.429-32.575v21.846m-37.614-21.846v21.846m18.8 32.575 18.814 10.923 18.814-10.923m-18.814 10.923v21.846l18.814 10.923 18.814-10.923v-21.846m-37.628 21.846-18.814 10.923v21.846l18.814 10.923 18.814-10.923v-21.846m-75.243 0 18.814-10.923v-21.846m37.614 65.538v21.846l18.814 10.715 18.814-10.715v-21.846l-18.814-10.923m-37.628-21.846-18.8-10.923m0 43.692 18.8-10.923m75.257-65.538 18.814 10.923m0 21.846-18.814 10.923v21.846l18.814 10.923 18.814-10.923m-56.442 32.769 18.814 10.715 18.814-10.715v-21.846m-37.628-43.692 18.814 10.923m-18.814 32.769 18.814-10.923m0 43.484v21.846l18.814 10.923 18.814-10.923v-21.846l-18.814-10.715m-56.442 10.715v21.846l18.814 10.923 18.814-10.923m-37.628 65.538 18.814 10.923 18.814-10.923v-21.846l-18.814-10.923-18.814 10.923v21.846l-18.814 10.923v21.846m56.442-32.769 18.814 10.923 18.814-10.923v-21.846l-18.814-10.923-18.814 10.923m18.814-32.769v21.846m-37.628-21.846v21.846m-37.628-65.33-18.814 10.715v21.846l18.814 10.923 18.814-10.923m-75.243-21.846v21.846l18.814 10.923 18.8-10.923m-37.614 65.538 18.814 10.923 18.8-10.923v-21.846l-18.8-10.923-18.814 10.923m75.243 0-18.814-10.923-18.814 10.923m-18.8-32.769v21.846m37.614-21.846v21.846m-18.814 76.253v21.846l18.814 10.923 18.814-10.923v-21.846l-18.814-10.715-18.814 10.715-18.8-10.715-18.814 10.715m18.814-32.561v21.846m37.614 43.484v21.846l18.814 10.937 18.814-10.937v-21.846l-18.814-10.923m-56.429 10.923 18.8-10.923m94.071-54.407v21.846l18.814 10.715 19.008-10.715v-21.846l-19.008-10.923m-18.814 32.769-18.814 10.715v21.846l18.814 10.923 18.814-10.923v-21.846m-37.628 0-18.814-10.715-18.814 10.715m18.814-32.561v21.846m37.628 43.484v21.846l18.814 10.937 19.008-10.937v-21.846l-19.008-10.923m-56.442 10.923 18.814-10.923m-75.257-65.33 18.814 10.923m207.14-98.307v21.846l18.814 10.923 18.814-10.923m-37.628 0-18.814 10.923v21.846l18.814 10.923 18.814-10.923v-21.846m-37.628 21.846-18.8 10.923v21.846l18.8 10.923 18.814-10.923v-21.846m37.628 0-18.814-10.923m-94.057-54.615v21.846l18.814 10.923 18.814-10.923v-21.846l-18.814-10.715m-56.636 32.561 19.008 10.923 18.814-10.923m-18.814 76.461 18.814-10.923v-21.846l-18.814-10.923-19.008 10.923m75.45 0-18.814-10.923-18.814 10.923m-18.814-32.769v21.846m37.628-21.846v21.846m18.814 32.769-18.814 10.923v21.846l18.814 10.715 18.8-10.715v-21.846m-37.614 21.846-18.814 10.715v21.846l18.814 10.923 18.814-10.923v-21.846m-18.814 32.769v21.846l18.814 10.937 18.8-10.937v-21.846l-18.8-10.923m-37.628-21.846-18.814-10.715m0 43.484 18.814-10.923m94.057-32.561-18.814 10.715v21.846l18.814 10.923 18.814-10.923v-21.846l-18.814-10.715v-21.846l-18.814-10.923m0 43.484-18.814-10.715m0 43.484 18.814-10.923m-18.814 32.769 18.814 10.937 18.814-10.937v-21.846m0-65.33 18.814-10.923m-112.87 0 18.814 10.923m37.614-65.538-18.8-10.923m-188.34-21.846-18.8-10.715m282.38 10.715-18.814-10.715m-112.87 0-19.008 10.715m94.251-10.715-18.8 10.715m-244.76 32.769 18.814-10.923m263.56 174.57v21.846l18.814 10.923 18.814-10.923m-37.628 0-18.814 10.923v21.846l18.814 10.715 18.814-10.715v-21.846m-37.628 21.846-18.8 10.715v21.846l18.8 10.923 18.814-10.923v-21.846m37.628 0-18.814-10.715m-56.429-54.615v21.846l18.8 10.923m-18.8-10.923-18.814 10.923v21.846l18.814 10.715m-18.814-32.561-18.814-10.923-18.814 10.923v21.846l18.814 10.715 18.814-10.715m-18.814-32.769v-21.846l-18.814-10.937m-19.008 10.937v21.846l19.008 10.923m0 21.846-19.008 10.715v21.846l19.008 10.923 18.814-10.923v-21.846m0 65.538v21.846l18.814 10.923 18.814-10.923v-21.846l-18.814-10.923-18.814 10.923-18.814-10.923-19.008 10.923v21.846l19.008 10.923 18.814-10.923m37.628-65.538-18.814 10.923v21.846m-37.628-21.846v21.846m-19.008 32.769-18.814 10.923v21.846l18.814 10.715 19.008-10.715v-21.846m37.628 0v21.846l18.814 10.715 18.8-10.715v-21.846l-18.8-10.923m56.429-32.769-18.814 10.923v21.846l18.814 10.923 18.814-10.923v-21.846l-18.814-10.923v-21.846l-18.814-10.923m-18.814 10.923v21.846l18.814 10.923m-18.814 32.769 18.814-10.923m-18.814 32.769 18.814 10.715 18.814-10.715v-21.846m-94.057-76.461 18.814 10.923m37.614 21.846-18.8 10.923m56.429-32.769 18.814-10.923m-169.51-98.113-18.814 10.937v21.846l18.814 10.923 18.814-10.923m-75.257-21.846v21.846l18.814 10.923 18.814-10.923m-37.628 0-18.814 10.923v21.846l18.814 10.715 18.814-10.715v-21.846m-37.628 21.846-18.814 10.715v21.846l18.814 10.923 18.814-10.923v-21.846m75.257 0-18.814-10.715-18.814 10.715v21.846l18.814 10.923 18.814-10.923m-18.814-54.407v21.846m-37.628 0 18.814 10.715m-56.442-76.267-18.814 10.937v21.846l18.814 10.923m-56.429-10.923-18.814 10.923v21.846l18.814 10.715 18.814-10.715v-21.846l-18.814-10.923v-21.846m0 65.33v21.846l18.814 10.923 18.8-10.923m0-21.846-18.8-10.715m0-21.846 18.8-10.923m0 109.02v21.846l18.814 10.923 18.814-10.923v-21.846l-18.814-10.923zm18.814-32.769v21.846m-37.614-21.846v21.846l18.8 10.923m-18.8-10.923-18.814 10.923v21.846l18.814 10.923 18.8-10.923m-37.614 0-18.814 10.923v21.846l18.814 10.715 18.814-10.715v-21.846m37.614 0v21.846l18.814 10.715 18.814-10.715v-21.846l-18.814-10.923m56.442-54.615v21.846l18.814 10.923m-18.814-10.923-18.814 10.923v21.846l18.814 10.923m-18.814-32.769-18.814-10.923-18.814 10.923m37.628-43.692-18.814 10.923v21.846m0 43.692 18.814-10.923m-37.628-65.538 18.814 10.923m-18.814 98.099v21.846l18.814 10.923 18.814-10.923v-21.846l-18.814-10.715m18.814 32.561 18.814 10.923 18.814-10.923v-21.846m-75.257 87.384 18.814 10.923 18.814-10.923v-21.846l-18.814-10.923-18.814 10.923zm37.628 0 18.814 10.923 18.814-10.923v-21.846l-18.814-10.923-18.814 10.923m18.814-32.769v21.846m-37.628-21.846v21.846m-94.057-54.615v21.846l18.814 10.923 18.8-10.923v-21.846l-18.8-10.715m18.8 32.561 18.814 10.923 18.814-10.923m-75.243 0-18.814 10.923v21.846l18.814 10.923 18.814-10.923v-21.846m-37.628 21.846-19.008 10.923v21.846l19.008 10.923 18.814-10.923v-21.846m-18.814 32.769v21.846l18.814 10.729 18.814-10.729v-21.846l-18.814-10.923m75.243-21.846-18.814-10.923-18.814 10.923v21.846l18.814 10.923 18.814-10.923m-18.814-54.615v21.846m-37.614 43.692 18.8-10.923m0-21.846-18.8-10.923m18.8 76.267v21.846l18.814 10.923 18.814-10.923v-21.846l-18.814-10.729-18.814 10.729-18.8-10.729m-18.814 10.729v21.846l18.814 10.923 18.8-10.923m-18.8 10.923v21.846m37.614-21.846v21.846m37.628-87.19v21.846l18.814 10.729 18.814-10.729v-21.846m-56.442 32.575 18.814-10.729m-18.814 32.575 18.814 10.923 18.814-10.923v-21.846m-18.814 32.769v21.846m37.628 0v-21.846l-18.814-10.923m-56.442-54.421v21.846m207.14-120.15v21.846l18.814 10.923 18.814-10.923m-75.243-21.846v21.846l18.8 10.923 18.814-10.923m-18.814 32.769-18.8 10.923v21.846l18.8 10.923 18.814-10.923v-21.846l-18.814-10.923v-21.846m56.442 32.769-18.814-10.923-18.814 10.923m0 21.846 18.814 10.923 18.814-10.923m-18.814-32.769v-21.846m-75.243-43.484-18.814 10.715v21.846l18.814 10.923 18.814-10.923m-75.45 0 19.008 10.923 18.814-10.923m-37.822 65.538 19.008 10.923 18.814-10.923v-21.846l-18.814-10.923-19.008 10.923m75.45 21.846-18.814 10.923v21.846l18.814 10.729 18.8-10.729v-21.846m-18.8-32.769-18.814-10.923-18.814 10.923m18.814 32.769-18.814-10.923m-18.814-32.769v-21.846m37.628 0v21.846m-37.628 43.692v21.846l18.814 10.729 18.814-10.729m-75.45 0 18.814 10.729 19.008-10.729m-19.008 10.729v21.846l19.008 10.923 18.814-10.923v-21.846m-18.814 32.769v21.846m75.243 0v-21.846l-18.8-10.923-18.814 10.923v21.846m0-21.846-18.814-10.923m37.628-21.846v21.846m56.429-32.575-18.814 10.729v21.846l18.814 10.923 18.814-10.923v-21.846l-18.814-10.729v-21.846m-37.628 21.846 18.814 10.729m0 21.846-18.814 10.923m37.628 21.846v-21.846m-150.69 0 18.814-10.923m-94.071-163.44-18.814 10.715m94.071-10.715-18.814 10.715m75.45 0-18.814-10.715m131.69 10.715-18.814-10.715m-357.83-185.48v21.846l18.814 10.923 18.814-10.923v-21.846l-18.814-10.937m18.814 32.783 19.008 10.923m-75.45-43.706-18.814 10.937v21.846l18.814 10.923 18.814-10.923m0 43.484-18.814-10.715-18.814 10.715v21.846l18.814 10.923 18.814-10.923zm0 21.846 18.814 10.923 18.814-10.923v-21.846l-18.814-10.715-18.814 10.715m56.636-10.715-19.008 10.715m-56.442-32.561v21.846m37.628 0v-21.846m-75.257 0 18.814-10.923m0 43.484-18.814-10.715m0 109.02 18.814-10.923v-21.846l-18.814-10.923m75.257-21.846v21.846l18.814 10.923 19.008-10.923v-21.846l-19.008-10.923m-56.442 10.923v21.846l18.814 10.923 18.814-10.923m-37.628 65.538 18.814 10.715 18.814-10.715v-21.846l-18.814-10.923-18.814 10.923v21.846l-18.814 10.715m56.442-32.561 18.814-10.923v-21.846m0 21.846 19.008 10.923m-56.636-32.769v21.846m-56.443-54.615 18.814-10.923m18.814 32.769-18.814 10.923m0 21.846 18.814 10.923m18.814 32.561v21.846l18.814 10.923 18.814-10.923v-21.846l-18.814-10.715m18.814 32.561 19.008 10.923m-56.636-10.923-18.814 10.923v21.846l18.814 10.923 18.814-10.923v-21.846m-37.628 21.846-18.814 10.923v21.846l18.814 10.923 18.814-10.923v-21.846m0 21.846 18.814 10.923 18.814-10.923m0-21.846-18.814-10.923m-75.257-21.846 18.814-10.923v-21.846l-18.814-10.715m0 109.02 18.814-10.923m0-21.846-18.814-10.923m0 109.04 18.814-10.923v-21.846l-18.814-10.729m113.08 0-19.008 10.729v21.846l19.008 10.923 18.814-10.923m-37.822-21.846-18.814-10.729-18.814 10.729v21.846l18.814 10.923 18.814-10.923m-56.442-54.421v21.846l18.814 10.729m0 21.846-18.814 10.923v21.846m75.45 0v-21.846m-37.822 21.846v-21.846m0-43.498v-21.846m-56.442-76.461 18.814 10.923m0 87.384-18.814 10.729m0 21.846 18.814 10.923m75.45-174.37-19.008 10.715m37.822-65.33-18.814-10.923m0-21.846 18.814-10.923m37.614-87.176-18.8-10.937m-131.89 10.937-18.814-10.937m113.08 0-19.008 10.937m244.96-10.937-18.814 10.937m-94.265-10.937 18.814 10.937m188.32 0-18.814-10.937m18.814-228.97 18.814 10.923m0-43.692-18.814 10.923m0 414.47 18.814 10.923m0-43.692-18.814 10.923m18.814 185.48-18.814 10.729m0 21.846 18.814 10.923m-18.814-403.56 18.814 10.923m0-43.484-18.814 10.715" clip-path="url(#a)" fill="none" stroke="#989898" stroke-linecap="square" stroke-miterlimit="1" stroke-width="2.0228"/>
  <g id="radarr-group-details" transform="matrix(.74963 0 0 .74963 -.85254 -.00025565)" fill-rule="evenodd">
   <g id="radarr-group-shapes-l-r" transform="translate(-5.0026)" fill="#f0f0f0">
    <path id="radarr-shape-right" d="m818.96 812.82c76.922-76.922 124.5-183.19 124.5-300.57s-47.578-223.65-124.5-300.57l-300.57 300.57z"/>
    <path id="radarr-shape-left" d="m217.82 211.68c-76.922 76.922-124.5 183.19-124.5 300.57s47.578 223.64 124.5 300.57l300.57-300.57z"/>
   </g>
   <g id="radarr-group-shapes-t-b" fill="#f0f0f0">
    <path id="radarr-shape-bottom" d="m817.28 922.46c-85.035 62.871-190.22 100.05-304.09 100.05-113.7 0-218.74-37.059-303.7-99.758l196.29-201.4c32.191 16.406 68.637 25.656 107.24 25.656 38.875 0 75.562-9.3828 107.92-26.004z"/>
    <path id="radarr-shape-top" d="m817.28 102.05c-85.035-62.875-190.22-100.05-304.09-100.05-113.7 0-218.74 37.059-303.7 99.758l196.29 201.4c32.191-16.406 68.637-25.656 107.24-25.656 38.875 0 75.562 9.3828 107.92 26.004z"/>
   </g>
   <path id="radarr-stick-2" d="m838.44 786.8-34.102 36.566-214.52-200.04 34.102-36.57zm-82.996-77.395-11.031 11.832-131.52-122.65 11.031-11.832zm-23.066 24.738-11.031 11.832-131.53-122.65 11.035-11.832z" fill="#ffc230"/>
   <path id="radarr-stick-1" d="m189.05 236.93 34.102-36.57 214.52 200.04-34.102 36.566zm82.996 77.391 11.031-11.828 131.52 122.65-11.031 11.828zm23.066-24.734 11.031-11.832 131.53 122.65-11.035 11.832z" fill="#ffc230"/>
   <path id="radarr-yellow-circle" d="m648.51 512.26c0 74.625-60.492 135.12-135.12 135.12-74.621 0-135.12-60.492-135.12-135.12 0-74.621 60.496-135.12 135.12-135.12 74.625 0 135.12 60.496 135.12 135.12z" fill="#ffc230"/>
  </g>
  <path id="radarr-outer-ring" d="m384-0.26592a384 384 0 0 0 -384 384 384 384 0 0 0 384 384 384 384 0 0 0 384 -384 384 384 0 0 0 -384 -384zm0 15a369 369 0 0 1 369 369 369 369 0 0 1 -369 369 369 369 0 0 1 -369 -369 369 369 0 0 1 369 -369z" fill="#ffc230" stroke-width="1.0852"/>
 </g>
</svg>
