<svg id="Layer_1" data-name="Layer 1" xmlns="http://www.w3.org/2000/svg" viewBox="0 0 1024 1024"><defs><style>.cls-1{fill:#fff;opacity:0.9;}.cls-2{fill:#ffc230;}.cls-3{fill:#24292e;}</style></defs><path class="cls-1" d="M273.87,1024a237,237,0,0,1-237-237V237A237,237,0,0,1,392.38,31.76l476.27,275a237,237,0,0,1,0,410.54l-476.27,275A237.27,237.27,0,0,1,273.87,1024Z"/><path class="cls-2" d="M729.53,500.1,294.47,248.93a13.73,13.73,0,0,0-20.6,11.89V763.18a13.73,13.73,0,0,0,20.6,11.89L729.53,523.9A13.75,13.75,0,0,0,729.53,500.1Z"/><path class="cls-3" d="M801.65,601.25l-476.25,275c-1,.58-2,1.15-3.06,1.7l-.87.46.48.29A172.85,172.85,0,0,1,67.76,755.49V787a206.11,206.11,0,0,0,309.16,178.5L763.54,742.26C812.83,713.8,829.66,650.68,801.65,601.25Z"/><path class="cls-3" d="M853.19,333.5l-476.26-275A206.11,206.11,0,0,0,67.76,237V683.41C67.76,740.32,114,786.5,170.81,787V237A103.06,103.06,0,0,1,325.4,147.78l476.26,275c1,.59,2,1.2,3,1.8q6.39,3.87,12.34,8.25c.42.3.84.59,1.25.9l1.07.81q1.81,1.37,3.6,2.78l.07.06a174.15,174.15,0,0,1,7.13,266.47l23.07-13.32a206.12,206.12,0,0,0,0-357Z"/></svg>