<?xml version="1.0" encoding="utf-8"?>
<!-- Generator: Adobe Illustrator 24.2.0, SVG Export Plug-In . SVG Version: 6.00 Build 0)  -->
<svg version="1.1" id="Layer_1" xmlns="http://www.w3.org/2000/svg" xmlns:xlink="http://www.w3.org/1999/xlink" x="0px" y="0px"
	 viewBox="0 0 1024 1024" style="enable-background:new 0 0 1024 1024;" xml:space="preserve">
<style type="text/css">
	.st0{fill:#FFC230;}
	.st1{fill:#24292E;}
	.st2{fill:none;}
</style>
<path class="st0" d="M729.7,500.1L294.6,248.9c-6.6-3.8-15-1.5-18.8,5c-1.2,2.1-1.8,4.5-1.8,6.9v502.4c0,7.6,6.1,13.7,13.7,13.7
	c2.4,0,4.8-0.6,6.9-1.8l435.1-251.2c6.6-3.8,8.8-12.2,5-18.8C733.5,503,731.7,501.3,729.7,500.1z"/>
<path class="st1" d="M801.9,601.3l-476.3,275c-1,0.6-2,1.2-3.1,1.7l-0.9,0.5l0.5,0.3c-83.5,46.2-188.7,15.9-234.9-67.6
	C77.7,793.8,71.2,775,68,755.5V787c0,113.8,92.3,206.1,206.1,206.1c36.2,0,71.7-9.5,103.1-27.6l386.6-223.2
	C813.1,713.8,829.9,650.7,801.9,601.3z"/>
<path class="st2" d="M822.9,437.3L822.9,437.3L822.9,437.3z"/>
<path class="st2" d="M818.3,433.7l1.1,0.8L818.3,433.7z"/>
<path class="st1" d="M853,333.4L377,58.6C278.5,1.7,152.5,35.4,95.6,134C77.5,165.3,68,200.8,68,237v446.5
	c0,56.9,46.2,103,103,103.5V237.1c0-56.9,46.1-103,103-103c18.1,0,35.8,4.8,51.5,13.8l476,274.8c1,0.6,2,1.2,3,1.8
	c4.3,2.6,8.4,5.3,12.3,8.2c0.4,0.3,0.8,0.6,1.2,0.9l1.1,0.8c1.2,0.9,2.4,1.8,3.6,2.8l0.1,0.1c75.2,59.9,87.6,169.4,27.7,244.6
	c-6.2,7.8-13.1,15.1-20.6,21.7l23.1-13.3c98.5-56.9,132.3-182.9,75.4-281.4c-18.1-31.3-44.1-57.3-75.4-75.4L853,333.4z"/>
</svg>
