<?xml version="1.0" standalone="no"?>
<!DOCTYPE svg PUBLIC "-//W3C//DTD SVG 20010904//EN"
 "http://www.w3.org/TR/2001/REC-SVG-20010904/DTD/svg10.dtd">
<svg version="1.0" xmlns="http://www.w3.org/2000/svg"
 width="700.000000pt" height="700.000000pt" viewBox="0 0 700.000000 700.000000"
 preserveAspectRatio="xMidYMid meet">
<metadata>
Created by potrace 1.11, written by Peter Selinger 2001-2013
</metadata>
<g transform="translate(0.000000,700.000000) scale(0.100000,-0.100000)"
fill="#000000" stroke="none">
<path d="M1444 6139 c-218 -168 -444 -398 -619 -631 -578 -768 -795 -1744
-599 -2696 138 -674 514 -1329 1022 -1786 95 -85 268 -226 277 -226 1 0 280
286 620 635 340 349 619 635 620 635 1 0 35 -15 76 -34 315 -145 725 -177
1074 -86 63 17 239 82 311 116 6 3 253 -244 549 -548 296 -304 575 -590 620
-636 l81 -83 80 61 c679 524 1138 1321 1259 2185 77 552 4 1163 -202 1680
-221 557 -597 1060 -1057 1415 l-80 61 -81 -83 c-45 -46 -324 -332 -620 -636
-296 -304 -543 -551 -549 -548 -6 3 -60 25 -121 50 -205 84 -376 116 -612 116
-235 0 -455 -46 -652 -136 -41 -19 -75 -34 -76 -34 -1 0 -280 286 -620 635
-340 349 -619 635 -620 635 -1 0 -38 -27 -81 -61z m414 -833 c116 -109 212
-203 212 -209 0 -6 -14 -26 -32 -44 l-32 -33 39 -39 c108 -106 831 -774 841
-778 7 -2 36 14 65 37 67 53 211 123 314 152 68 19 104 23 235 23 131 0 167
-4 235 -23 114 -33 251 -102 339 -172 42 -33 79 -60 83 -60 5 0 321 313 703
695 l695 695 43 -43 c51 -49 173 -193 231 -270 346 -468 544 -1021 569 -1584
18 -391 -26 -716 -143 -1069 -141 -424 -359 -782 -682 -1121 l-88 -93 -274
258 c-151 142 -277 264 -279 271 -2 7 11 28 29 47 l33 34 -39 39 c-108 106
-831 774 -841 778 -7 2 -36 -14 -65 -37 -67 -53 -211 -123 -314 -152 -68 -19
-104 -23 -235 -23 -131 0 -167 4 -235 23 -114 33 -251 102 -339 172 -42 33
-79 60 -83 60 -5 0 -321 -313 -703 -695 l-695 -695 -43 43 c-51 49 -173 193
-231 270 -346 468 -544 1021 -569 1585 -18 390 26 715 143 1068 139 419 340
753 664 1102 l104 112 66 -63 c36 -34 162 -152 279 -261z"/>
</g>
</svg>
