<?xml version="1.0" standalone="no"?>
<!DOCTYPE svg PUBLIC "-//W3C//DTD SVG 20010904//EN"
 "http://www.w3.org/TR/2001/REC-SVG-20010904/DTD/svg10.dtd">
<svg version="1.0" xmlns="http://www.w3.org/2000/svg"
 width="900.000000pt" height="900.000000pt" viewBox="0 0 900.000000 900.000000"
 preserveAspectRatio="xMidYMid meet">
<metadata>
Created by potrace 1.11, written by Peter Selinger 2001-2013
</metadata>
<g transform="translate(0.000000,900.000000) scale(0.100000,-0.100000)"
fill="#000000" stroke="none">
<path d="M2015 8684 c-512 -92 -890 -408 -1080 -904 -86 -223 -115 -428 -115
-813 0 -693 60 -5016 71 -5086 44 -290 223 -481 517 -553 66 -16 120 -21 224
-21 76 0 141 2 144 6 3 3 -8 1384 -26 3069 -34 3162 -34 3159 4 3283 25 80 76
156 129 192 124 83 270 61 502 -75 44 -26 1221 -689 2615 -1473 1806 -1017
2563 -1448 2632 -1499 262 -195 418 -418 489 -696 16 -64 29 -127 29 -139 0
-129 128 175 165 390 22 129 22 350 0 481 -20 118 -79 303 -130 405 -108 215
-285 420 -458 534 -29 18 -1055 612 -2282 1320 -1226 708 -2272 1314 -2323
1347 -177 114 -380 193 -587 228 -141 24 -396 26 -520 4z"/>
<path d="M2920 6218 c0 -46 -14 -825 -30 -1733 -17 -907 -30 -1662 -28 -1677
3 -26 50 0 1565 865 859 491 1561 896 1559 902 -3 10 -3044 1725 -3058 1725
-5 0 -8 -37 -8 -82z"/>
<path d="M5015 2654 c-1441 -844 -2655 -1553 -2698 -1575 -104 -53 -259 -104
-377 -125 -140 -24 -370 -15 -504 20 -55 14 -101 24 -104 22 -10 -11 70 -110
167 -206 195 -195 440 -327 731 -397 141 -34 409 -43 546 -19 113 19 240 59
319 98 123 63 4442 2572 4493 2611 83 63 148 144 198 242 87 175 97 352 32
555 -38 120 -144 311 -171 310 -7 -1 -1191 -692 -2632 -1536z"/>
</g>
</svg>
