<?xml version="1.0" standalone="no"?>
<!DOCTYPE svg PUBLIC "-//W3C//DTD SVG 20010904//EN"
 "http://www.w3.org/TR/2001/REC-SVG-20010904/DTD/svg10.dtd">
<svg version="1.0" xmlns="http://www.w3.org/2000/svg"
 width="700.000000pt" height="700.000000pt" viewBox="0 0 700.000000 700.000000"
 preserveAspectRatio="xMidYMid meet">
<metadata>
Created by potrace 1.11, written by Peter Selinger 2001-2013
</metadata>
<g transform="translate(0.000000,700.000000) scale(0.100000,-0.100000)"
fill="#000000" stroke="none">
<path d="M3260 6964 c-780 -68 -1462 -351 -2031 -841 -605 -522 -1010 -1229
-1153 -2013 -42 -233 -51 -341 -51 -620 0 -420 46 -715 171 -1094 83 -250 213
-527 355 -754 283 -454 697 -860 1159 -1136 607 -362 1275 -529 1982 -495
1424 69 2670 1004 3129 2349 83 241 142 501 169 745 16 143 13 660 -5 803 -94
759 -425 1451 -954 1995 -566 582 -1270 935 -2081 1042 -119 16 -580 29 -690
19z m585 -25 c673 -58 1337 -331 1884 -776 138 -113 383 -359 495 -498 258
-322 484 -739 606 -1120 70 -220 125 -492 150 -734 15 -150 12 -523 -5 -685
-86 -815 -446 -1549 -1041 -2126 -1346 -1306 -3492 -1306 -4838 0 -594 576
-956 1314 -1041 2123 -17 169 -20 534 -5 688 58 576 249 1116 561 1584 145
217 255 352 439 536 291 292 591 505 953 679 581 279 1178 385 1842 329z"/>
<path d="M3360 6524 c-570 -33 -1077 -201 -1540 -509 -181 -120 -275 -199
-456 -379 -178 -178 -255 -270 -379 -456 -339 -507 -507 -1063 -507 -1680 0
-605 168 -1166 498 -1667 287 -435 696 -799 1161 -1032 440 -221 870 -323
1363 -323 205 0 329 10 522 43 912 153 1737 759 2165 1589 227 442 334 885
334 1390 0 349 -46 637 -151 950 -159 476 -382 835 -739 1190 -177 177 -272
255 -451 375 -409 272 -852 435 -1330 489 -145 16 -384 26 -490 20z m435 -455
c577 -64 1108 -321 1526 -738 169 -170 303 -335 273 -338 -11 -1 -107 -10
-214 -18 -223 -19 -346 -35 -547 -71 l-141 -25 -100 74 c-655 488 -1529 488
-2185 -1 -91 -67 -103 -74 -136 -69 -20 3 -103 17 -186 31 -179 30 -397 54
-575 64 l-130 7 77 100 c105 138 344 373 483 477 431 321 869 481 1435 522 73
5 316 -3 420 -15z m1900 -1169 c29 -27 50 -94 60 -188 l6 -64 -35 27 c-47 36
-116 41 -317 26 -667 -52 -1235 -203 -1618 -430 -52 -31 -111 -74 -132 -96
l-39 -39 0 60 c0 35 -5 65 -12 73 -11 10 -10 11 3 6 11 -4 21 9 38 50 31 75
67 110 184 179 314 186 756 317 1298 386 234 30 341 38 446 37 82 -2 94 -4
118 -27z m-3895 -5 c600 -70 1083 -214 1405 -418 94 -60 135 -107 156 -178 9
-28 16 -36 28 -32 13 5 14 3 4 -8 -8 -7 -13 -39 -13 -74 l0 -60 -26 32 c-42
55 -215 159 -384 233 -343 150 -839 263 -1315 300 -77 5 -158 12 -181 14 -66
5 -151 -10 -185 -35 l-32 -22 7 64 c11 99 33 165 64 190 26 21 33 21 182 16
85 -4 216 -13 290 -22z m-577 -1805 c7 -454 12 -827 11 -829 -2 -2 -26 43 -55
100 -113 226 -193 478 -234 739 -79 501 -4 1035 208 1484 l42 90 8 -380 c4
-208 13 -750 20 -1204z m4692 1336 c179 -465 217 -985 109 -1485 -35 -163
-115 -395 -184 -536 l-59 -120 5 185 c4 191 24 1504 29 1900 1 124 3 234 4
245 3 28 42 -50 96 -189z m-4177 -2636 c574 -146 1088 -372 1486 -653 60 -42
118 -77 128 -77 32 0 77 29 93 60 20 39 20 110 0 110 -11 0 -15 11 -15 39 0
22 6 44 15 51 12 10 15 44 15 186 l0 174 40 0 40 0 0 -169 c0 -138 3 -171 15
-181 9 -8 15 -30 15 -56 0 -32 -4 -44 -15 -44 -35 0 -7 -114 36 -144 45 -31
79 -21 185 55 301 215 679 398 1118 544 198 65 549 158 576 152 25 -5 -279
-301 -410 -398 -166 -123 -245 -171 -425 -260 -261 -129 -547 -213 -850 -250
-129 -16 -441 -16 -570 0 -321 40 -566 112 -850 251 -179 87 -259 136 -420
256 -158 117 -453 404 -416 404 6 0 100 -23 209 -50z"/>
</g>
</svg>
