<?xml version="1.0" encoding="utf-8"?>
<svg width="1024" height="1024" version="1.1" viewBox="0 0 1024 1024" xmlns="http://www.w3.org/2000/svg">
  <g id="radarr-group-logo">
    <circle id="radarr-black-circle" cx="512" cy="512" r="490" stroke-width="1.8"/>
    <g id="radarr-group-details">
      <g id="radarr-group-shapes-l-r" fill="#f0f0f0">
        <path id="radarr-shape-right" d="M 812.57 812.57 C 889.492 735.648 937.07 629.38 937.07 512 C 937.07 394.62 889.492 288.35 812.57 211.43 L 512 512 Z"/>
        <path id="radarr-shape-left" d="M 211.43 211.43 C 134.508 288.352 86.93 394.62 86.93 512 C 86.93 629.38 134.508 735.64 211.43 812.57 L 512 512 Z"/>
      </g>
      <g id="radarr-group-shapes-t-b" fill="#f0f0f0">
        <path id="radarr-shape-bottom" d="M 404.395 721.097 C 436.586 737.503 473.032 746.753 511.635 746.753 C 550.51 746.753 587.197 737.37 619.555 720.749 L 808.162 914.27 C 725.294 975.382 622.865 1011.5 512 1011.5 C 401.209 1011.5 298.843 975.43 216.004 914.392 Z"/>
        <path id="radarr-shape-top" d="M 619.555 303.251 C 587.197 286.63 550.51 277.247 511.635 277.247 C 473.032 277.247 436.586 286.497 404.395 302.903 L 216.004 109.608 C 298.843 48.57 401.209 12.5 512 12.5 C 622.865 12.5 725.293 48.618 808.162 109.73 Z"/>
      </g>
      <g id="radarr-group-shapes" fill="#ffc230" fill-rule="evenodd">
        <path id="radarr-stick-2" d="M 836.695 786.937 L 802.593 823.503 L 588.073 623.463 L 622.175 586.893 Z M 753.699 709.542 L 742.668 721.374 L 611.148 598.724 L 622.179 586.892 Z M 730.633 734.28 L 719.602 746.112 L 588.072 623.462 L 599.107 611.63 Z"/>
        <path id="radarr-stick-1" d="M 187.305 237.067 L 221.407 200.497 L 435.927 400.537 L 401.825 437.103 Z M 270.301 314.458 L 281.332 302.63 L 412.852 425.28 L 401.821 437.108 Z M 293.367 289.724 L 304.398 277.892 L 435.928 400.542 L 424.893 412.374 Z"/>
        <path id="radarr-yellow-circle" d="M 647.12 512 C 647.12 586.625 586.628 647.12 512 647.12 C 437.379 647.12 376.88 586.628 376.88 512 C 376.88 437.379 437.376 376.88 512 376.88 C 586.625 376.88 647.12 437.376 647.12 512 Z"/>
      </g>
    </g>
    <circle id="radarr-outline" cx="512" cy="512" r="499.5" style="fill:none;stroke:#ffc230;stroke-width:20"/>
  </g>
</svg>